<svg width="578" height="56" viewBox="0 0 578 56" fill="none" xmlns="http://www.w3.org/2000/svg">
<path d="M5.56901 34.168C4.64501 34.168 3.83767 33.958 3.14701 33.538C2.45634 33.118 1.91967 32.5347 1.53701 31.788C1.15434 31.032 0.963008 30.1547 0.963008 29.156C0.963008 28.148 1.15901 27.2613 1.55101 26.496C1.95234 25.7213 2.51701 25.1193 3.24501 24.69C3.98234 24.2513 4.85501 24.032 5.86301 24.032C7.01101 24.032 7.96301 24.3073 8.71901 24.858C9.47501 25.4087 9.96501 26.1693 10.189 27.14H8.18701C8.03767 26.6827 7.76701 26.328 7.37501 26.076C6.98301 25.8147 6.47901 25.684 5.86301 25.684C4.88301 25.684 4.12701 25.9967 3.59501 26.622C3.06301 27.238 2.79701 28.0873 2.79701 29.17C2.79701 30.2527 3.05834 31.0927 3.58101 31.69C4.11301 32.278 4.83167 32.572 5.73701 32.572C6.62367 32.572 7.29101 32.334 7.73901 31.858C8.19634 31.3727 8.47167 30.738 8.56501 29.954H6.08701V28.61H10.371V34H8.71901L8.57901 32.712C8.26167 33.1787 7.86501 33.538 7.38901 33.79C6.91301 34.042 6.30634 34.168 5.56901 34.168ZM15.4451 34.168C14.7451 34.168 14.1245 34.0187 13.5831 33.72C13.0418 33.4213 12.6171 33.0013 12.3091 32.46C12.0011 31.9187 11.8471 31.2933 11.8471 30.584C11.8471 29.8653 11.9965 29.226 12.2951 28.666C12.6031 28.106 13.0231 27.672 13.5551 27.364C14.0965 27.0467 14.7311 26.888 15.4591 26.888C16.1405 26.888 16.7425 27.0373 17.2651 27.336C17.7878 27.6347 18.1938 28.0453 18.4831 28.568C18.7818 29.0813 18.9311 29.6553 18.9311 30.29C18.9311 30.3927 18.9265 30.5 18.9171 30.612C18.9171 30.724 18.9125 30.8407 18.9031 30.962H13.6251C13.6625 31.5033 13.8491 31.928 14.1851 32.236C14.5305 32.544 14.9458 32.698 15.4311 32.698C15.7951 32.698 16.0985 32.6187 16.3411 32.46C16.5931 32.292 16.7798 32.0773 16.9011 31.816H18.7211C18.5905 32.2547 18.3711 32.656 18.0631 33.02C17.7645 33.3747 17.3911 33.6547 16.9431 33.86C16.5045 34.0653 16.0051 34.168 15.4451 34.168ZM15.4591 28.344C15.0205 28.344 14.6331 28.47 14.2971 28.722C13.9611 28.9647 13.7465 29.338 13.6531 29.842H17.1111C17.0831 29.3847 16.9151 29.0207 16.6071 28.75C16.2991 28.4793 15.9165 28.344 15.4591 28.344ZM20.4383 34V27.056H22.0203L22.1603 28.232C22.375 27.8213 22.683 27.4947 23.0843 27.252C23.495 27.0093 23.9757 26.888 24.5263 26.888C25.385 26.888 26.0523 27.1587 26.5283 27.7C27.0043 28.2413 27.2423 29.0347 27.2423 30.08V34H25.4503V30.248C25.4503 29.6507 25.329 29.1933 25.0863 28.876C24.8437 28.5587 24.4657 28.4 23.9523 28.4C23.4483 28.4 23.033 28.5773 22.7063 28.932C22.389 29.2867 22.2303 29.7813 22.2303 30.416V34H20.4383ZM32.3299 34.168C31.6299 34.168 31.0092 34.0187 30.4679 33.72C29.9266 33.4213 29.5019 33.0013 29.1939 32.46C28.8859 31.9187 28.7319 31.2933 28.7319 30.584C28.7319 29.8653 28.8812 29.226 29.1799 28.666C29.4879 28.106 29.9079 27.672 30.4399 27.364C30.9812 27.0467 31.6159 26.888 32.3439 26.888C33.0252 26.888 33.6272 27.0373 34.1499 27.336C34.6726 27.6347 35.0786 28.0453 35.3679 28.568C35.6666 29.0813 35.8159 29.6553 35.8159 30.29C35.8159 30.3927 35.8112 30.5 35.8019 30.612C35.8019 30.724 35.7972 30.8407 35.7879 30.962H30.5099C30.5472 31.5033 30.7339 31.928 31.0699 32.236C31.4152 32.544 31.8306 32.698 32.3159 32.698C32.6799 32.698 32.9832 32.6187 33.2259 32.46C33.4779 32.292 33.6646 32.0773 33.7859 31.816H35.6059C35.4752 32.2547 35.2559 32.656 34.9479 33.02C34.6492 33.3747 34.2759 33.6547 33.8279 33.86C33.3892 34.0653 32.8899 34.168 32.3299 34.168ZM32.3439 28.344C31.9052 28.344 31.5179 28.47 31.1819 28.722C30.8459 28.9647 30.6312 29.338 30.5379 29.842H33.9959C33.9679 29.3847 33.7999 29.0207 33.4919 28.75C33.1839 28.4793 32.8012 28.344 32.3439 28.344ZM37.3231 34V27.056H38.9191L39.0871 28.358C39.3391 27.91 39.6798 27.5553 40.1091 27.294C40.5478 27.0233 41.0611 26.888 41.6491 26.888V28.778H41.1451C40.7531 28.778 40.4031 28.8387 40.0951 28.96C39.7871 29.0813 39.5444 29.2913 39.3671 29.59C39.1991 29.8887 39.1151 30.304 39.1151 30.836V34H37.3231ZM45.2679 34.168C44.6705 34.168 44.1805 34.0747 43.7979 33.888C43.4152 33.692 43.1305 33.4353 42.9439 33.118C42.7572 32.8007 42.6639 32.4507 42.6639 32.068C42.6639 31.424 42.9159 30.9013 43.4199 30.5C43.9239 30.0987 44.6799 29.898 45.6879 29.898H47.4519V29.73C47.4519 29.254 47.3165 28.904 47.0459 28.68C46.7752 28.456 46.4392 28.344 46.0379 28.344C45.6739 28.344 45.3565 28.4327 45.0859 28.61C44.8152 28.778 44.6472 29.03 44.5819 29.366H42.8319C42.8785 28.862 43.0465 28.4233 43.3359 28.05C43.6345 27.6767 44.0172 27.392 44.4839 27.196C44.9505 26.9907 45.4732 26.888 46.0519 26.888C47.0412 26.888 47.8205 27.1353 48.3899 27.63C48.9592 28.1247 49.2439 28.8247 49.2439 29.73V34H47.7179L47.5499 32.88C47.3445 33.2533 47.0552 33.5613 46.6819 33.804C46.3179 34.0467 45.8465 34.168 45.2679 34.168ZM45.6739 32.768C46.1872 32.768 46.5839 32.6 46.8639 32.264C47.1532 31.928 47.3352 31.5127 47.4099 31.018H45.8839C45.4079 31.018 45.0672 31.1067 44.8619 31.284C44.6565 31.452 44.5539 31.662 44.5539 31.914C44.5539 32.1847 44.6565 32.3947 44.8619 32.544C45.0672 32.6933 45.3379 32.768 45.6739 32.768ZM50.9539 34V23.92H52.7459V34H50.9539Z" fill="#EB6079"/>
<path d="M128.374 34V24.2H132C132.784 24.2 133.433 24.3307 133.946 24.592C134.459 24.8533 134.842 25.2127 135.094 25.67C135.346 26.1273 135.472 26.6407 135.472 27.21C135.472 27.7513 135.351 28.2507 135.108 28.708C134.865 29.156 134.487 29.52 133.974 29.8C133.461 30.0707 132.803 30.206 132 30.206H130.166V34H128.374ZM130.166 28.75H131.888C132.513 28.75 132.961 28.6147 133.232 28.344C133.512 28.064 133.652 27.686 133.652 27.21C133.652 26.7247 133.512 26.3467 133.232 26.076C132.961 25.796 132.513 25.656 131.888 25.656H130.166V28.75ZM138.792 34.168C138.195 34.168 137.705 34.0747 137.322 33.888C136.94 33.692 136.655 33.4353 136.468 33.118C136.282 32.8007 136.188 32.4507 136.188 32.068C136.188 31.424 136.44 30.9013 136.944 30.5C137.448 30.0987 138.204 29.898 139.212 29.898H140.976V29.73C140.976 29.254 140.841 28.904 140.57 28.68C140.3 28.456 139.964 28.344 139.562 28.344C139.198 28.344 138.881 28.4327 138.61 28.61C138.34 28.778 138.172 29.03 138.106 29.366H136.356C136.403 28.862 136.571 28.4233 136.86 28.05C137.159 27.6767 137.542 27.392 138.008 27.196C138.475 26.9907 138.998 26.888 139.576 26.888C140.566 26.888 141.345 27.1353 141.914 27.63C142.484 28.1247 142.768 28.8247 142.768 29.73V34H141.242L141.074 32.88C140.869 33.2533 140.58 33.5613 140.206 33.804C139.842 34.0467 139.371 34.168 138.792 34.168ZM139.198 32.768C139.712 32.768 140.108 32.6 140.388 32.264C140.678 31.928 140.86 31.5127 140.934 31.018H139.408C138.932 31.018 138.592 31.1067 138.386 31.284C138.181 31.452 138.078 31.662 138.078 31.914C138.078 32.1847 138.181 32.3947 138.386 32.544C138.592 32.6933 138.862 32.768 139.198 32.768ZM145.114 37.08L146.724 33.538H146.304L143.602 27.056H145.548L147.494 31.942L149.524 27.056H151.428L147.018 37.08H145.114ZM152.599 34V27.056H154.181L154.335 27.994C154.559 27.658 154.853 27.392 155.217 27.196C155.591 26.9907 156.02 26.888 156.505 26.888C157.579 26.888 158.339 27.3033 158.787 28.134C159.039 27.7513 159.375 27.448 159.795 27.224C160.225 27 160.691 26.888 161.195 26.888C162.101 26.888 162.796 27.1587 163.281 27.7C163.767 28.2413 164.009 29.0347 164.009 30.08V34H162.217V30.248C162.217 29.6507 162.101 29.1933 161.867 28.876C161.643 28.5587 161.293 28.4 160.817 28.4C160.332 28.4 159.94 28.5773 159.641 28.932C159.352 29.2867 159.207 29.7813 159.207 30.416V34H157.415V30.248C157.415 29.6507 157.299 29.1933 157.065 28.876C156.832 28.5587 156.473 28.4 155.987 28.4C155.511 28.4 155.124 28.5773 154.825 28.932C154.536 29.2867 154.391 29.7813 154.391 30.416V34H152.599ZM169.085 34.168C168.385 34.168 167.764 34.0187 167.223 33.72C166.681 33.4213 166.257 33.0013 165.949 32.46C165.641 31.9187 165.487 31.2933 165.487 30.584C165.487 29.8653 165.636 29.226 165.935 28.666C166.243 28.106 166.663 27.672 167.195 27.364C167.736 27.0467 168.371 26.888 169.099 26.888C169.78 26.888 170.382 27.0373 170.905 27.336C171.427 27.6347 171.833 28.0453 172.123 28.568C172.421 29.0813 172.571 29.6553 172.571 30.29C172.571 30.3927 172.566 30.5 172.557 30.612C172.557 30.724 172.552 30.8407 172.543 30.962H167.265C167.302 31.5033 167.489 31.928 167.825 32.236C168.17 32.544 168.585 32.698 169.071 32.698C169.435 32.698 169.738 32.6187 169.981 32.46C170.233 32.292 170.419 32.0773 170.541 31.816H172.361C172.23 32.2547 172.011 32.656 171.703 33.02C171.404 33.3747 171.031 33.6547 170.583 33.86C170.144 34.0653 169.645 34.168 169.085 34.168ZM169.099 28.344C168.66 28.344 168.273 28.47 167.937 28.722C167.601 28.9647 167.386 29.338 167.293 29.842H170.751C170.723 29.3847 170.555 29.0207 170.247 28.75C169.939 28.4793 169.556 28.344 169.099 28.344ZM174.078 34V27.056H175.66L175.8 28.232C176.015 27.8213 176.323 27.4947 176.724 27.252C177.135 27.0093 177.615 26.888 178.166 26.888C179.025 26.888 179.692 27.1587 180.168 27.7C180.644 28.2413 180.882 29.0347 180.882 30.08V34H179.09V30.248C179.09 29.6507 178.969 29.1933 178.726 28.876C178.483 28.5587 178.105 28.4 177.592 28.4C177.088 28.4 176.673 28.5773 176.346 28.932C176.029 29.2867 175.87 29.7813 175.87 30.416V34H174.078ZM185.69 34C184.962 34 184.378 33.8227 183.94 33.468C183.501 33.1133 183.282 32.4833 183.282 31.578V28.554H182.092V27.056H183.282L183.492 25.194H185.074V27.056H186.95V28.554H185.074V31.592C185.074 31.928 185.144 32.1613 185.284 32.292C185.433 32.4133 185.685 32.474 186.04 32.474H186.908V34H185.69Z" fill="#EB6079"/>
<path d="M261.28 34V24.2H264.626C265.774 24.2 266.717 24.4053 267.454 24.816C268.201 25.2173 268.751 25.7867 269.106 26.524C269.47 27.252 269.652 28.1107 269.652 29.1C269.652 30.0893 269.47 30.9527 269.106 31.69C268.751 32.418 268.201 32.9873 267.454 33.398C266.717 33.7993 265.774 34 264.626 34H261.28ZM263.072 32.46H264.542C265.363 32.46 266.012 32.3293 266.488 32.068C266.964 31.7973 267.305 31.4147 267.51 30.92C267.715 30.416 267.818 29.8093 267.818 29.1C267.818 28.4 267.715 27.798 267.51 27.294C267.305 26.79 266.964 26.4027 266.488 26.132C266.012 25.8613 265.363 25.726 264.542 25.726H263.072V32.46ZM274.565 34.168C273.865 34.168 273.245 34.0187 272.703 33.72C272.162 33.4213 271.737 33.0013 271.429 32.46C271.121 31.9187 270.967 31.2933 270.967 30.584C270.967 29.8653 271.117 29.226 271.415 28.666C271.723 28.106 272.143 27.672 272.675 27.364C273.217 27.0467 273.851 26.888 274.579 26.888C275.261 26.888 275.863 27.0373 276.385 27.336C276.908 27.6347 277.314 28.0453 277.603 28.568C277.902 29.0813 278.051 29.6553 278.051 30.29C278.051 30.3927 278.047 30.5 278.037 30.612C278.037 30.724 278.033 30.8407 278.023 30.962H272.745C272.783 31.5033 272.969 31.928 273.305 32.236C273.651 32.544 274.066 32.698 274.551 32.698C274.915 32.698 275.219 32.6187 275.461 32.46C275.713 32.292 275.9 32.0773 276.021 31.816H277.841C277.711 32.2547 277.491 32.656 277.183 33.02C276.885 33.3747 276.511 33.6547 276.063 33.86C275.625 34.0653 275.125 34.168 274.565 34.168ZM274.579 28.344C274.141 28.344 273.753 28.47 273.417 28.722C273.081 28.9647 272.867 29.338 272.773 29.842H276.231C276.203 29.3847 276.035 29.0207 275.727 28.75C275.419 28.4793 275.037 28.344 274.579 28.344ZM279.558 34V23.92H281.35V34H279.558ZM284.147 25.978C283.821 25.978 283.55 25.88 283.335 25.684C283.13 25.488 283.027 25.2407 283.027 24.942C283.027 24.6433 283.13 24.4007 283.335 24.214C283.55 24.018 283.821 23.92 284.147 23.92C284.474 23.92 284.74 24.018 284.945 24.214C285.16 24.4007 285.267 24.6433 285.267 24.942C285.267 25.2407 285.16 25.488 284.945 25.684C284.74 25.88 284.474 25.978 284.147 25.978ZM283.251 34V27.056H285.043V34H283.251ZM288.79 34L286.242 27.056H288.118L289.882 32.306L291.646 27.056H293.522L290.96 34H288.79ZM297.684 34.168C296.984 34.168 296.364 34.0187 295.822 33.72C295.281 33.4213 294.856 33.0013 294.548 32.46C294.24 31.9187 294.086 31.2933 294.086 30.584C294.086 29.8653 294.236 29.226 294.534 28.666C294.842 28.106 295.262 27.672 295.794 27.364C296.336 27.0467 296.97 26.888 297.698 26.888C298.38 26.888 298.982 27.0373 299.504 27.336C300.027 27.6347 300.433 28.0453 300.722 28.568C301.021 29.0813 301.17 29.6553 301.17 30.29C301.17 30.3927 301.166 30.5 301.156 30.612C301.156 30.724 301.152 30.8407 301.142 30.962H295.864C295.902 31.5033 296.088 31.928 296.424 32.236C296.77 32.544 297.185 32.698 297.67 32.698C298.034 32.698 298.338 32.6187 298.58 32.46C298.832 32.292 299.019 32.0773 299.14 31.816H300.96C300.83 32.2547 300.61 32.656 300.302 33.02C300.004 33.3747 299.63 33.6547 299.182 33.86C298.744 34.0653 298.244 34.168 297.684 34.168ZM297.698 28.344C297.26 28.344 296.872 28.47 296.536 28.722C296.2 28.9647 295.986 29.338 295.892 29.842H299.35C299.322 29.3847 299.154 29.0207 298.846 28.75C298.538 28.4793 298.156 28.344 297.698 28.344ZM302.678 34V27.056H304.274L304.442 28.358C304.694 27.91 305.034 27.5553 305.464 27.294C305.902 27.0233 306.416 26.888 307.004 26.888V28.778H306.5C306.108 28.778 305.758 28.8387 305.45 28.96C305.142 29.0813 304.899 29.2913 304.722 29.59C304.554 29.8887 304.47 30.304 304.47 30.836V34H302.678ZM309.096 37.08L310.706 33.538H310.286L307.584 27.056H309.53L311.476 31.942L313.506 27.056H315.41L311 37.08H309.096Z" fill="#EB6079"/>
<path d="M378.599 34.168C377.61 34.168 376.76 33.958 376.051 33.538C375.342 33.1087 374.796 32.516 374.413 31.76C374.03 30.9947 373.839 30.1127 373.839 29.114C373.839 28.1153 374.03 27.2333 374.413 26.468C374.796 25.7027 375.342 25.1053 376.051 24.676C376.76 24.2467 377.61 24.032 378.599 24.032C379.775 24.032 380.736 24.326 381.483 24.914C382.239 25.4927 382.71 26.3093 382.897 27.364H380.923C380.802 26.832 380.54 26.4167 380.139 26.118C379.747 25.81 379.224 25.656 378.571 25.656C377.666 25.656 376.956 25.964 376.443 26.58C375.93 27.196 375.673 28.0407 375.673 29.114C375.673 30.1873 375.93 31.032 376.443 31.648C376.956 32.2547 377.666 32.558 378.571 32.558C379.224 32.558 379.747 32.418 380.139 32.138C380.54 31.8487 380.802 31.452 380.923 30.948H382.897C382.71 31.956 382.239 32.7447 381.483 33.314C380.736 33.8833 379.775 34.168 378.599 34.168ZM386.835 34.168C386.238 34.168 385.748 34.0747 385.365 33.888C384.983 33.692 384.698 33.4353 384.511 33.118C384.325 32.8007 384.231 32.4507 384.231 32.068C384.231 31.424 384.483 30.9013 384.987 30.5C385.491 30.0987 386.247 29.898 387.255 29.898H389.019V29.73C389.019 29.254 388.884 28.904 388.613 28.68C388.343 28.456 388.007 28.344 387.605 28.344C387.241 28.344 386.924 28.4327 386.653 28.61C386.383 28.778 386.215 29.03 386.149 29.366H384.399C384.446 28.862 384.614 28.4233 384.903 28.05C385.202 27.6767 385.585 27.392 386.051 27.196C386.518 26.9907 387.041 26.888 387.619 26.888C388.609 26.888 389.388 27.1353 389.957 27.63C390.527 28.1247 390.811 28.8247 390.811 29.73V34H389.285L389.117 32.88C388.912 33.2533 388.623 33.5613 388.249 33.804C387.885 34.0467 387.414 34.168 386.835 34.168ZM387.241 32.768C387.755 32.768 388.151 32.6 388.431 32.264C388.721 31.928 388.903 31.5127 388.977 31.018H387.451C386.975 31.018 386.635 31.1067 386.429 31.284C386.224 31.452 386.121 31.662 386.121 31.914C386.121 32.1847 386.224 32.3947 386.429 32.544C386.635 32.6933 386.905 32.768 387.241 32.768ZM395.52 34C394.792 34 394.208 33.8227 393.77 33.468C393.331 33.1133 393.112 32.4833 393.112 31.578V28.554H391.922V27.056H393.112L393.322 25.194H394.904V27.056H396.78V28.554H394.904V31.592C394.904 31.928 394.974 32.1613 395.114 32.292C395.263 32.4133 395.515 32.474 395.87 32.474H396.738V34H395.52ZM401.514 34.168C400.814 34.168 400.194 34.0187 399.652 33.72C399.111 33.4213 398.686 33.0013 398.378 32.46C398.07 31.9187 397.916 31.2933 397.916 30.584C397.916 29.8653 398.066 29.226 398.364 28.666C398.672 28.106 399.092 27.672 399.624 27.364C400.166 27.0467 400.8 26.888 401.528 26.888C402.21 26.888 402.812 27.0373 403.334 27.336C403.857 27.6347 404.263 28.0453 404.552 28.568C404.851 29.0813 405 29.6553 405 30.29C405 30.3927 404.996 30.5 404.986 30.612C404.986 30.724 404.982 30.8407 404.972 30.962H399.694C399.732 31.5033 399.918 31.928 400.254 32.236C400.6 32.544 401.015 32.698 401.5 32.698C401.864 32.698 402.168 32.6187 402.41 32.46C402.662 32.292 402.849 32.0773 402.97 31.816H404.79C404.66 32.2547 404.44 32.656 404.132 33.02C403.834 33.3747 403.46 33.6547 403.012 33.86C402.574 34.0653 402.074 34.168 401.514 34.168ZM401.528 28.344C401.09 28.344 400.702 28.47 400.366 28.722C400.03 28.9647 399.816 29.338 399.722 29.842H403.18C403.152 29.3847 402.984 29.0207 402.676 28.75C402.368 28.4793 401.986 28.344 401.528 28.344ZM409.297 31.928C408.961 31.928 408.649 31.8907 408.359 31.816L407.841 32.334C408 32.418 408.215 32.488 408.485 32.544C408.756 32.6 409.195 32.656 409.801 32.712C410.725 32.796 411.397 33.0153 411.817 33.37C412.237 33.7247 412.447 34.2147 412.447 34.84C412.447 35.2507 412.335 35.638 412.111 36.002C411.887 36.3753 411.542 36.674 411.075 36.898C410.609 37.1313 410.011 37.248 409.283 37.248C408.294 37.248 407.496 37.0613 406.889 36.688C406.283 36.324 405.979 35.7733 405.979 35.036C405.979 34.4107 406.283 33.8693 406.889 33.412C406.703 33.328 406.539 33.2393 406.399 33.146C406.269 33.0527 406.152 32.9547 406.049 32.852V32.53L407.267 31.242C406.726 30.766 406.455 30.1547 406.455 29.408C406.455 28.9413 406.567 28.5167 406.791 28.134C407.025 27.7513 407.351 27.448 407.771 27.224C408.191 27 408.7 26.888 409.297 26.888C409.689 26.888 410.053 26.944 410.389 27.056H413.021V28.148L411.831 28.232C412.018 28.5867 412.111 28.9787 412.111 29.408C412.111 29.8747 411.999 30.2993 411.775 30.682C411.551 31.0647 411.225 31.368 410.795 31.592C410.375 31.816 409.876 31.928 409.297 31.928ZM409.297 30.556C409.661 30.556 409.96 30.458 410.193 30.262C410.436 30.066 410.557 29.786 410.557 29.422C410.557 29.058 410.436 28.778 410.193 28.582C409.96 28.386 409.661 28.288 409.297 28.288C408.915 28.288 408.607 28.386 408.373 28.582C408.14 28.778 408.023 29.058 408.023 29.422C408.023 29.786 408.14 30.066 408.373 30.262C408.607 30.458 408.915 30.556 409.297 30.556ZM407.617 34.854C407.617 35.1993 407.776 35.456 408.093 35.624C408.42 35.8013 408.817 35.89 409.283 35.89C409.731 35.89 410.095 35.7967 410.375 35.61C410.655 35.4327 410.795 35.19 410.795 34.882C410.795 34.63 410.702 34.42 410.515 34.252C410.338 34.084 409.979 33.9813 409.437 33.944C409.055 33.916 408.7 33.874 408.373 33.818C408.103 33.9673 407.907 34.1307 407.785 34.308C407.673 34.4853 407.617 34.6673 407.617 34.854ZM417.387 34.168C416.715 34.168 416.108 34.014 415.567 33.706C415.035 33.398 414.61 32.9733 414.293 32.432C413.985 31.8813 413.831 31.2467 413.831 30.528C413.831 29.8093 413.989 29.1793 414.307 28.638C414.624 28.0873 415.049 27.658 415.581 27.35C416.122 27.042 416.729 26.888 417.401 26.888C418.063 26.888 418.661 27.042 419.193 27.35C419.734 27.658 420.159 28.0873 420.467 28.638C420.784 29.1793 420.943 29.8093 420.943 30.528C420.943 31.2467 420.784 31.8813 420.467 32.432C420.159 32.9733 419.734 33.398 419.193 33.706C418.651 34.014 418.049 34.168 417.387 34.168ZM417.387 32.614C417.853 32.614 418.259 32.4413 418.605 32.096C418.95 31.7413 419.123 31.2187 419.123 30.528C419.123 29.8373 418.95 29.3193 418.605 28.974C418.259 28.6193 417.858 28.442 417.401 28.442C416.925 28.442 416.514 28.6193 416.169 28.974C415.833 29.3193 415.665 29.8373 415.665 30.528C415.665 31.2187 415.833 31.7413 416.169 32.096C416.514 32.4413 416.92 32.614 417.387 32.614ZM422.545 34V27.056H424.141L424.309 28.358C424.561 27.91 424.901 27.5553 425.331 27.294C425.769 27.0233 426.283 26.888 426.871 26.888V28.778H426.367C425.975 28.778 425.625 28.8387 425.317 28.96C425.009 29.0813 424.766 29.2913 424.589 29.59C424.421 29.8887 424.337 30.304 424.337 30.836V34H422.545ZM429.062 25.978C428.735 25.978 428.464 25.88 428.25 25.684C428.044 25.488 427.942 25.2407 427.942 24.942C427.942 24.6433 428.044 24.4007 428.25 24.214C428.464 24.018 428.735 23.92 429.062 23.92C429.388 23.92 429.654 24.018 429.86 24.214C430.074 24.4007 430.182 24.6433 430.182 24.942C430.182 25.2407 430.074 25.488 429.86 25.684C429.654 25.88 429.388 25.978 429.062 25.978ZM428.166 34V27.056H429.958V34H428.166ZM435.202 34.168C434.502 34.168 433.881 34.0187 433.34 33.72C432.799 33.4213 432.374 33.0013 432.066 32.46C431.758 31.9187 431.604 31.2933 431.604 30.584C431.604 29.8653 431.753 29.226 432.052 28.666C432.36 28.106 432.78 27.672 433.312 27.364C433.853 27.0467 434.488 26.888 435.216 26.888C435.897 26.888 436.499 27.0373 437.022 27.336C437.545 27.6347 437.951 28.0453 438.24 28.568C438.539 29.0813 438.688 29.6553 438.688 30.29C438.688 30.3927 438.683 30.5 438.674 30.612C438.674 30.724 438.669 30.8407 438.66 30.962H433.382C433.419 31.5033 433.606 31.928 433.942 32.236C434.287 32.544 434.703 32.698 435.188 32.698C435.552 32.698 435.855 32.6187 436.098 32.46C436.35 32.292 436.537 32.0773 436.658 31.816H438.478C438.347 32.2547 438.128 32.656 437.82 33.02C437.521 33.3747 437.148 33.6547 436.7 33.86C436.261 34.0653 435.762 34.168 435.202 34.168ZM435.216 28.344C434.777 28.344 434.39 28.47 434.054 28.722C433.718 28.9647 433.503 29.338 433.41 29.842H436.868C436.84 29.3847 436.672 29.0207 436.364 28.75C436.056 28.4793 435.673 28.344 435.216 28.344ZM443.065 34.168C442.449 34.168 441.908 34.07 441.441 33.874C440.974 33.6687 440.601 33.3887 440.321 33.034C440.041 32.6793 439.873 32.2687 439.817 31.802H441.623C441.679 32.0727 441.828 32.306 442.071 32.502C442.323 32.6887 442.645 32.782 443.037 32.782C443.429 32.782 443.714 32.7027 443.891 32.544C444.078 32.3853 444.171 32.2033 444.171 31.998C444.171 31.6993 444.04 31.4987 443.779 31.396C443.518 31.284 443.154 31.1767 442.687 31.074C442.388 31.0087 442.085 30.9293 441.777 30.836C441.469 30.7427 441.184 30.626 440.923 30.486C440.671 30.3367 440.466 30.15 440.307 29.926C440.148 29.6927 440.069 29.408 440.069 29.072C440.069 28.456 440.312 27.938 440.797 27.518C441.292 27.098 441.982 26.888 442.869 26.888C443.69 26.888 444.344 27.0793 444.829 27.462C445.324 27.8447 445.618 28.372 445.711 29.044H444.017C443.914 28.5307 443.527 28.274 442.855 28.274C442.519 28.274 442.258 28.3393 442.071 28.47C441.894 28.6007 441.805 28.764 441.805 28.96C441.805 29.1653 441.94 29.3287 442.211 29.45C442.482 29.5713 442.841 29.6833 443.289 29.786C443.774 29.898 444.218 30.024 444.619 30.164C445.03 30.2947 445.356 30.4953 445.599 30.766C445.842 31.0273 445.963 31.4053 445.963 31.9C445.972 32.3293 445.86 32.7167 445.627 33.062C445.394 33.4073 445.058 33.678 444.619 33.874C444.18 34.07 443.662 34.168 443.065 34.168ZM454.065 34.154C453.346 34.154 452.721 34.0327 452.189 33.79C451.657 33.538 451.241 33.188 450.943 32.74C450.653 32.292 450.509 31.7693 450.509 31.172C450.509 30.5373 450.686 29.9633 451.041 29.45C451.395 28.9367 451.923 28.526 452.623 28.218C452.343 27.8913 452.142 27.5833 452.021 27.294C451.899 27.0047 451.839 26.6967 451.839 26.37C451.839 25.922 451.951 25.5253 452.175 25.18C452.399 24.8253 452.716 24.5453 453.127 24.34C453.547 24.1347 454.046 24.032 454.625 24.032C455.213 24.032 455.712 24.1393 456.123 24.354C456.533 24.5687 456.841 24.858 457.047 25.222C457.261 25.586 457.359 25.992 457.341 26.44H455.633C455.633 26.0947 455.53 25.838 455.325 25.67C455.129 25.4927 454.891 25.404 454.611 25.404C454.293 25.404 454.037 25.4927 453.841 25.67C453.654 25.8473 453.561 26.076 453.561 26.356C453.561 26.5893 453.635 26.8273 453.785 27.07C453.934 27.3127 454.153 27.5927 454.443 27.91L457.187 30.626C457.383 30.3087 457.588 29.94 457.803 29.52L458.111 28.904H459.945L459.455 29.856C459.081 30.612 458.708 31.2513 458.335 31.774L460.589 34H458.447L457.355 32.908C456.879 33.3467 456.37 33.664 455.829 33.86C455.297 34.056 454.709 34.154 454.065 34.154ZM452.245 31.06C452.245 31.5173 452.413 31.9047 452.749 32.222C453.094 32.53 453.551 32.684 454.121 32.684C454.933 32.684 455.637 32.3947 456.235 31.816L453.645 29.254C453.169 29.4593 452.814 29.716 452.581 30.024C452.357 30.332 452.245 30.6773 452.245 31.06ZM387.142 52V42.2H390.768C391.552 42.2 392.201 42.3307 392.714 42.592C393.228 42.8533 393.61 43.2127 393.862 43.67C394.114 44.1273 394.24 44.6407 394.24 45.21C394.24 45.7513 394.119 46.2507 393.876 46.708C393.634 47.156 393.256 47.52 392.742 47.8C392.229 48.0707 391.571 48.206 390.768 48.206H388.934V52H387.142ZM388.934 46.75H390.656C391.282 46.75 391.73 46.6147 392 46.344C392.28 46.064 392.42 45.686 392.42 45.21C392.42 44.7247 392.28 44.3467 392 44.076C391.73 43.796 391.282 43.656 390.656 43.656H388.934V46.75ZM395.604 52V45.056H397.2L397.368 46.358C397.62 45.91 397.961 45.5553 398.39 45.294C398.829 45.0233 399.342 44.888 399.93 44.888V46.778H399.426C399.034 46.778 398.684 46.8387 398.376 46.96C398.068 47.0813 397.826 47.2913 397.648 47.59C397.48 47.8887 397.396 48.304 397.396 48.836V52H395.604ZM404.364 52.168C403.692 52.168 403.085 52.014 402.544 51.706C402.012 51.398 401.587 50.9733 401.27 50.432C400.962 49.8813 400.808 49.2467 400.808 48.528C400.808 47.8093 400.967 47.1793 401.284 46.638C401.601 46.0873 402.026 45.658 402.558 45.35C403.099 45.042 403.706 44.888 404.378 44.888C405.041 44.888 405.638 45.042 406.17 45.35C406.711 45.658 407.136 46.0873 407.444 46.638C407.761 47.1793 407.92 47.8093 407.92 48.528C407.92 49.2467 407.761 49.8813 407.444 50.432C407.136 50.9733 406.711 51.398 406.17 51.706C405.629 52.014 405.027 52.168 404.364 52.168ZM404.364 50.614C404.831 50.614 405.237 50.4413 405.582 50.096C405.927 49.7413 406.1 49.2187 406.1 48.528C406.1 47.8373 405.927 47.3193 405.582 46.974C405.237 46.6193 404.835 46.442 404.378 46.442C403.902 46.442 403.491 46.6193 403.146 46.974C402.81 47.3193 402.642 47.8373 402.642 48.528C402.642 49.2187 402.81 49.7413 403.146 50.096C403.491 50.4413 403.897 50.614 404.364 50.614ZM412.714 52.168C412.061 52.168 411.478 52.0093 410.964 51.692C410.451 51.3747 410.045 50.9407 409.746 50.39C409.448 49.8393 409.298 49.214 409.298 48.514C409.298 47.814 409.448 47.1933 409.746 46.652C410.045 46.1013 410.451 45.672 410.964 45.364C411.478 45.0467 412.061 44.888 412.714 44.888C413.237 44.888 413.694 44.986 414.086 45.182C414.478 45.378 414.796 45.6533 415.038 46.008V41.92H416.83V52H415.234L415.038 51.006C414.814 51.314 414.516 51.5847 414.142 51.818C413.778 52.0513 413.302 52.168 412.714 52.168ZM413.092 50.6C413.671 50.6 414.142 50.4087 414.506 50.026C414.88 49.634 415.066 49.1347 415.066 48.528C415.066 47.9213 414.88 47.4267 414.506 47.044C414.142 46.652 413.671 46.456 413.092 46.456C412.523 46.456 412.052 46.6473 411.678 47.03C411.305 47.4127 411.118 47.9073 411.118 48.514C411.118 49.1207 411.305 49.62 411.678 50.012C412.052 50.404 412.523 50.6 413.092 50.6ZM421.259 52.168C420.391 52.168 419.719 51.8973 419.243 51.356C418.776 50.8147 418.543 50.0213 418.543 48.976V45.056H420.321V48.808C420.321 49.4053 420.442 49.8627 420.685 50.18C420.928 50.4973 421.31 50.656 421.833 50.656C422.328 50.656 422.734 50.4787 423.051 50.124C423.378 49.7693 423.541 49.2747 423.541 48.64V45.056H425.333V52H423.751L423.611 50.824C423.396 51.2347 423.084 51.5613 422.673 51.804C422.272 52.0467 421.8 52.168 421.259 52.168ZM430.575 52.168C429.865 52.168 429.24 52.014 428.699 51.706C428.157 51.398 427.728 50.9687 427.411 50.418C427.103 49.8673 426.949 49.2373 426.949 48.528C426.949 47.8187 427.103 47.1887 427.411 46.638C427.728 46.0873 428.157 45.658 428.699 45.35C429.24 45.042 429.865 44.888 430.575 44.888C431.461 44.888 432.208 45.1213 432.815 45.588C433.421 46.0453 433.809 46.68 433.977 47.492H432.087C431.993 47.156 431.807 46.8947 431.527 46.708C431.256 46.512 430.934 46.414 430.561 46.414C430.066 46.414 429.646 46.6007 429.301 46.974C428.955 47.3473 428.783 47.8653 428.783 48.528C428.783 49.1907 428.955 49.7087 429.301 50.082C429.646 50.4553 430.066 50.642 430.561 50.642C430.934 50.642 431.256 50.5487 431.527 50.362C431.807 50.1753 431.993 49.9093 432.087 49.564H433.977C433.809 50.348 433.421 50.978 432.815 51.454C432.208 51.93 431.461 52.168 430.575 52.168ZM438.566 52C437.838 52 437.254 51.8227 436.816 51.468C436.377 51.1133 436.158 50.4833 436.158 49.578V46.554H434.968V45.056H436.158L436.368 43.194H437.95V45.056H439.826V46.554H437.95V49.592C437.95 49.928 438.02 50.1613 438.16 50.292C438.309 50.4133 438.561 50.474 438.916 50.474H439.784V52H438.566ZM444.234 52.168C443.618 52.168 443.077 52.07 442.61 51.874C442.143 51.6687 441.77 51.3887 441.49 51.034C441.21 50.6793 441.042 50.2687 440.986 49.802H442.792C442.848 50.0727 442.997 50.306 443.24 50.502C443.492 50.6887 443.814 50.782 444.206 50.782C444.598 50.782 444.883 50.7027 445.06 50.544C445.247 50.3853 445.34 50.2033 445.34 49.998C445.34 49.6993 445.209 49.4987 444.948 49.396C444.687 49.284 444.323 49.1767 443.856 49.074C443.557 49.0087 443.254 48.9293 442.946 48.836C442.638 48.7427 442.353 48.626 442.092 48.486C441.84 48.3367 441.635 48.15 441.476 47.926C441.317 47.6927 441.238 47.408 441.238 47.072C441.238 46.456 441.481 45.938 441.966 45.518C442.461 45.098 443.151 44.888 444.038 44.888C444.859 44.888 445.513 45.0793 445.998 45.462C446.493 45.8447 446.787 46.372 446.88 47.044H445.186C445.083 46.5307 444.696 46.274 444.024 46.274C443.688 46.274 443.427 46.3393 443.24 46.47C443.063 46.6007 442.974 46.764 442.974 46.96C442.974 47.1653 443.109 47.3287 443.38 47.45C443.651 47.5713 444.01 47.6833 444.458 47.786C444.943 47.898 445.387 48.024 445.788 48.164C446.199 48.2947 446.525 48.4953 446.768 48.766C447.011 49.0273 447.132 49.4053 447.132 49.9C447.141 50.3293 447.029 50.7167 446.796 51.062C446.563 51.4073 446.227 51.678 445.788 51.874C445.349 52.07 444.831 52.168 444.234 52.168Z" fill="#EB6079"/>
<path d="M520.362 34.168C519.643 34.168 519.018 34.0373 518.486 33.776C517.954 33.5147 517.543 33.1507 517.254 32.684C516.965 32.2173 516.82 31.676 516.82 31.06H518.052C518.052 31.4427 518.141 31.7973 518.318 32.124C518.495 32.4413 518.752 32.698 519.088 32.894C519.433 33.0807 519.858 33.174 520.362 33.174C521.025 33.174 521.538 33.0153 521.902 32.698C522.266 32.3807 522.448 31.984 522.448 31.508C522.448 31.116 522.364 30.8033 522.196 30.57C522.028 30.3273 521.799 30.1313 521.51 29.982C521.23 29.8327 520.903 29.702 520.53 29.59C520.166 29.478 519.783 29.352 519.382 29.212C518.626 28.9507 518.066 28.6287 517.702 28.246C517.338 27.854 517.156 27.3453 517.156 26.72C517.147 26.1973 517.268 25.7353 517.52 25.334C517.772 24.9233 518.127 24.606 518.584 24.382C519.051 24.1487 519.601 24.032 520.236 24.032C520.861 24.032 521.403 24.1487 521.86 24.382C522.327 24.6153 522.686 24.9373 522.938 25.348C523.199 25.7587 523.335 26.2253 523.344 26.748H522.112C522.112 26.4773 522.042 26.2113 521.902 25.95C521.762 25.6793 521.547 25.46 521.258 25.292C520.978 25.124 520.623 25.04 520.194 25.04C519.662 25.0307 519.223 25.166 518.878 25.446C518.542 25.726 518.374 26.1133 518.374 26.608C518.374 27.028 518.491 27.35 518.724 27.574C518.967 27.798 519.303 27.9847 519.732 28.134C520.161 28.274 520.656 28.4373 521.216 28.624C521.683 28.792 522.103 28.988 522.476 29.212C522.849 29.436 523.139 29.7253 523.344 30.08C523.559 30.4347 523.666 30.8873 523.666 31.438C523.666 31.9047 523.545 32.348 523.302 32.768C523.059 33.1787 522.691 33.5147 522.196 33.776C521.711 34.0373 521.099 34.168 520.362 34.168ZM527.798 34.168C526.977 34.168 526.323 33.9207 525.838 33.426C525.353 32.922 525.11 32.152 525.11 31.116V27.056H526.286V30.99C526.286 32.4367 526.879 33.16 528.064 33.16C528.671 33.16 529.17 32.9453 529.562 32.516C529.963 32.0773 530.164 31.4567 530.164 30.654V27.056H531.34V34H530.276L530.192 32.754C529.977 33.1927 529.655 33.538 529.226 33.79C528.806 34.042 528.33 34.168 527.798 34.168ZM533.276 34V27.056H534.34L534.424 28.064C534.648 27.6907 534.946 27.4013 535.32 27.196C535.693 26.9907 536.113 26.888 536.58 26.888C537.13 26.888 537.602 27 537.994 27.224C538.395 27.448 538.703 27.7887 538.918 28.246C539.16 27.826 539.492 27.4947 539.912 27.252C540.341 27.0093 540.803 26.888 541.298 26.888C542.128 26.888 542.791 27.14 543.286 27.644C543.78 28.1387 544.028 28.904 544.028 29.94V34H542.866V30.066C542.866 29.3473 542.721 28.806 542.432 28.442C542.142 28.078 541.727 27.896 541.186 27.896C540.626 27.896 540.159 28.1153 539.786 28.554C539.422 28.9833 539.24 29.5993 539.24 30.402V34H538.064V30.066C538.064 29.3473 537.919 28.806 537.63 28.442C537.34 28.078 536.925 27.896 536.384 27.896C535.833 27.896 535.371 28.1153 534.998 28.554C534.634 28.9833 534.452 29.5993 534.452 30.402V34H533.276ZM545.799 34V27.056H546.863L546.947 28.064C547.171 27.6907 547.47 27.4013 547.843 27.196C548.216 26.9907 548.636 26.888 549.103 26.888C549.654 26.888 550.125 27 550.517 27.224C550.918 27.448 551.226 27.7887 551.441 28.246C551.684 27.826 552.015 27.4947 552.435 27.252C552.864 27.0093 553.326 26.888 553.821 26.888C554.652 26.888 555.314 27.14 555.809 27.644C556.304 28.1387 556.551 28.904 556.551 29.94V34H555.389V30.066C555.389 29.3473 555.244 28.806 554.955 28.442C554.666 28.078 554.25 27.896 553.709 27.896C553.149 27.896 552.682 28.1153 552.309 28.554C551.945 28.9833 551.763 29.5993 551.763 30.402V34H550.587V30.066C550.587 29.3473 550.442 28.806 550.153 28.442C549.864 28.078 549.448 27.896 548.907 27.896C548.356 27.896 547.894 28.1153 547.521 28.554C547.157 28.9833 546.975 29.5993 546.975 30.402V34H545.799ZM560.632 34.168C560.054 34.168 559.573 34.07 559.19 33.874C558.808 33.678 558.523 33.4167 558.336 33.09C558.15 32.7633 558.056 32.4087 558.056 32.026C558.056 31.3167 558.327 30.7707 558.868 30.388C559.41 30.0053 560.147 29.814 561.08 29.814H562.956V29.73C562.956 29.1233 562.798 28.666 562.48 28.358C562.163 28.0407 561.738 27.882 561.206 27.882C560.749 27.882 560.352 27.9987 560.016 28.232C559.69 28.456 559.484 28.7873 559.4 29.226H558.196C558.243 28.722 558.411 28.2973 558.7 27.952C558.999 27.6067 559.368 27.3453 559.806 27.168C560.245 26.9813 560.712 26.888 561.206 26.888C562.177 26.888 562.905 27.1493 563.39 27.672C563.885 28.1853 564.132 28.8713 564.132 29.73V34H563.082L563.012 32.754C562.816 33.146 562.527 33.482 562.144 33.762C561.771 34.0327 561.267 34.168 560.632 34.168ZM560.814 33.174C561.262 33.174 561.645 33.0573 561.962 32.824C562.289 32.5907 562.536 32.2873 562.704 31.914C562.872 31.5407 562.956 31.1487 562.956 30.738V30.724H561.178C560.488 30.724 559.998 30.8453 559.708 31.088C559.428 31.3213 559.288 31.6153 559.288 31.97C559.288 32.334 559.419 32.628 559.68 32.852C559.951 33.0667 560.329 33.174 560.814 33.174ZM565.897 34V27.056H566.961L567.059 28.386C567.273 27.9287 567.6 27.5647 568.039 27.294C568.477 27.0233 569.019 26.888 569.663 26.888V28.12H569.341C568.93 28.12 568.552 28.1947 568.207 28.344C567.861 28.484 567.586 28.7267 567.381 29.072C567.175 29.4173 567.073 29.8933 567.073 30.5V34H565.897ZM571.739 37.08L573.461 33.328H573.055L570.297 27.056H571.571L573.867 32.46L576.303 27.056H577.521L572.971 37.08H571.739Z" fill="#576B75"/>
<circle cx="28" cy="6" r="6" fill="#EB6079"/>
<line x1="42" y1="5.5" x2="142" y2="5.5" stroke="#EB6079" stroke-width="3"/>
<circle cx="158" cy="6" r="6" fill="#EB6079"/>
<line x1="172" y1="5.5" x2="272" y2="5.5" stroke="#EB6079" stroke-width="3"/>
<circle cx="288" cy="6" r="6" fill="#EB6079"/>
<line x1="302" y1="5.5" x2="402" y2="5.5" stroke="#EB6079" stroke-width="3"/>
<circle cx="418" cy="6" r="6" fill="#EB6079"/>
<line x1="432" y1="5.5" x2="532" y2="5.5" stroke="#B9B9C4"/>
<circle cx="548" cy="6" r="5.5" fill="white" stroke="#B9B9C4"/>
</svg>
