<svg width="61" height="61" viewBox="0 0 61 61" fill="none" xmlns="http://www.w3.org/2000/svg">
<path d="M57.0441 1.38367H28.7423C27.7002 1.38367 26.8555 2.22841 26.8555 3.27046V57.9874C26.8555 59.0295 27.7002 59.8742 28.7423 59.8742H57.0441C58.0862 59.8742 58.9309 59.0295 58.9309 57.9874V3.27046C58.9309 2.22841 58.0862 1.38367 57.0441 1.38367Z" fill="url(#paint0_linear_225:14181)"/>
<path d="M57.0441 1.38367H28.7423C28.2419 1.38367 27.7619 1.58245 27.4081 1.9363C27.0543 2.29014 26.8555 2.77005 26.8555 3.27046V7.98225H58.9309V3.27046C58.9309 2.77005 58.7322 2.29014 58.3783 1.9363C58.0245 1.58245 57.5446 1.38367 57.0441 1.38367Z" fill="url(#paint1_linear_225:14181)"/>
<path d="M26.8555 57.9875C26.8555 58.4879 27.0543 58.9678 27.4081 59.3216C27.7619 59.6755 28.2419 59.8743 28.7423 59.8743H57.0441C57.5446 59.8743 58.0245 59.6755 58.3783 59.3216C58.7322 58.9678 58.9309 58.4879 58.9309 57.9875V52.3322H26.8555V57.9875Z" fill="url(#paint2_linear_225:14181)"/>
<path d="M45.021 57.0465H40.8987C40.6485 57.0465 40.4086 56.9471 40.2316 56.7701C40.0547 56.5932 39.9553 56.3533 39.9553 56.1031C39.9553 55.8529 40.0547 55.6129 40.2316 55.436C40.4086 55.2591 40.6485 55.1597 40.8987 55.1597H45.021C45.2712 55.1597 45.5112 55.2591 45.6881 55.436C45.865 55.6129 45.9644 55.8529 45.9644 56.1031C45.9644 56.3533 45.865 56.5932 45.6881 56.7701C45.5112 56.9471 45.2712 57.0465 45.021 57.0465Z" fill="#735A5A"/>
<path d="M42.8931 6.07747C43.4141 6.07747 43.8365 5.65509 43.8365 5.13407C43.8365 4.61305 43.4141 4.19067 42.8931 4.19067C42.3721 4.19067 41.9497 4.61305 41.9497 5.13407C41.9497 5.65509 42.3721 6.07747 42.8931 6.07747Z" fill="#735A5A"/>
<path d="M32.5158 11.761C32.2656 11.761 32.0256 11.8604 31.8487 12.0373C31.6718 12.2142 31.5724 12.4542 31.5724 12.7044V28.7421C31.5724 29.7429 31.1748 30.7028 30.4672 31.4104C29.7595 32.1181 28.7996 32.5157 27.7988 32.5157H50.4403C51.4412 32.5157 52.401 32.1181 53.1087 31.4104C53.8163 30.7028 54.2139 29.7429 54.2139 28.7421V12.7044C54.2139 12.4542 54.1145 12.2142 53.9376 12.0373C53.7607 11.8604 53.5207 11.761 53.2705 11.761H32.5158Z" fill="url(#paint3_linear_225:14181)"/>
<path d="M28.7422 32.3978C27.7414 32.3978 26.7816 32.0002 26.0739 31.2925C25.3662 30.5849 24.9687 29.625 24.9687 28.6242V21.195C24.9687 20.1942 24.5711 19.2343 23.8634 18.5266C23.1557 17.819 22.1959 17.4214 21.1951 17.4214L33.772 18.3648L42.8932 17.4214C43.894 17.4214 44.8538 17.819 45.5615 18.5266C46.2692 19.2343 46.6668 20.1942 46.6668 21.195V28.6242C46.6668 29.625 47.0643 30.5849 47.772 31.2925C48.4797 32.0002 49.4395 32.3978 50.4404 32.3978H28.7422Z" fill="url(#paint4_linear_225:14181)"/>
<path d="M21.1951 17.4214C20.1943 17.4214 19.2345 17.819 18.5268 18.5266C17.8191 19.2343 17.4215 20.1942 17.4215 21.195V45.7233C17.4215 46.7241 17.024 47.6839 16.3163 48.3916C15.6086 49.0993 14.6488 49.4969 13.6479 49.4969H35.3461C36.3469 49.4969 37.3067 49.0993 38.0144 48.3916C38.7221 47.6839 39.1196 46.7241 39.1196 45.7233V21.195C39.1196 20.1942 39.5172 19.2343 40.2249 18.5266C40.9326 17.819 41.8924 17.4214 42.8932 17.4214H21.1951Z" fill="url(#paint5_linear_225:14181)"/>
<path d="M31.5724 45.7233V42.7129C31.5724 42.6325 31.5518 42.5534 31.5127 42.4832C31.4735 42.413 31.4171 42.3539 31.3487 42.3116C31.2803 42.2694 31.2022 42.2453 31.1219 42.2417C31.0415 42.238 30.9616 42.255 30.8897 42.291L27.7988 43.8365L24.0252 41.9497L21.195 43.8365L17.4214 41.9497L13.6479 43.8365L10.5569 42.291C10.485 42.255 10.4051 42.238 10.3248 42.2417C10.2444 42.2453 10.1664 42.2694 10.098 42.3116C10.0296 42.3539 9.97311 42.413 9.93396 42.4832C9.89481 42.5534 9.87426 42.6325 9.87427 42.7129V45.7233C9.87427 46.7241 10.2718 47.6839 10.9795 48.3916C11.6872 49.0993 12.647 49.4969 13.6479 49.4969H35.346C34.3451 49.4969 33.3853 49.0993 32.6776 48.3916C31.97 47.6839 31.5724 46.7241 31.5724 45.7233Z" fill="url(#paint6_linear_225:14181)"/>
<path d="M29.4497 29.4498H27.445C27.0071 29.4498 26.5872 29.2758 26.2776 28.9662C25.9679 28.6566 25.794 28.2367 25.794 27.7988C25.794 27.361 25.9679 26.941 26.2776 26.6314C26.5872 26.3218 27.0071 26.1479 27.445 26.1479H30.3709C30.4585 26.1479 30.5452 26.1656 30.6258 26.2001C30.7064 26.2345 30.7792 26.2849 30.8398 26.3482C30.9004 26.4115 30.9476 26.4864 30.9784 26.5684C31.0093 26.6504 31.0233 26.7378 31.0195 26.8253C31.0061 27.1378 31.1173 27.4429 31.3288 27.6733C31.5403 27.9038 31.8346 28.0408 32.1471 28.0542C32.4596 28.0676 32.7646 27.9563 32.9951 27.7449C33.2255 27.5334 33.3625 27.239 33.376 26.9265C33.3934 26.521 33.3285 26.1162 33.1853 25.7364C33.0422 25.3567 32.8236 25.0098 32.5429 24.7167C32.2621 24.4236 31.9249 24.1904 31.5517 24.031C31.1784 23.8716 30.7768 23.7894 30.3709 23.7894H29.6855V23.0818C29.6855 22.7691 29.5613 22.4691 29.3401 22.248C29.119 22.0268 28.819 21.9026 28.5063 21.9026C28.1935 21.9026 27.8936 22.0268 27.6724 22.248C27.4513 22.4691 27.327 22.7691 27.327 23.0818V23.7923C26.2747 23.8236 25.2769 24.2676 24.5492 25.0284C23.8214 25.7892 23.4222 26.8057 23.4377 27.8584C23.4532 28.9111 23.8821 29.9154 24.6319 30.6545C25.3817 31.3935 26.3922 31.8079 27.445 31.8082H29.4497C29.8874 31.8087 30.307 31.9828 30.6165 32.2923C30.9261 32.6018 31.1001 33.0215 31.1006 33.4592V33.5771C31.1001 34.0148 30.9261 34.4345 30.6165 34.744C30.307 35.0535 29.8874 35.2276 29.4497 35.2281H26.4769C26.3907 35.2281 26.3053 35.2109 26.2258 35.1776C26.1463 35.1443 26.0742 35.0955 26.0137 35.034C25.9533 34.9725 25.9057 34.8996 25.8737 34.8196C25.8417 34.7395 25.8259 34.6539 25.8274 34.5677L25.8297 34.4453C25.8356 34.1326 25.717 33.8304 25.5001 33.6051C25.2831 33.3798 24.9856 33.25 24.6729 33.2441C24.6654 33.2441 24.6578 33.2441 24.6503 33.2441C24.3414 33.2442 24.045 33.3655 23.8246 33.5819C23.6042 33.7982 23.4775 34.0924 23.4717 34.4012L23.4694 34.5245C23.4622 34.924 23.5347 35.321 23.6826 35.6921C23.8305 36.0633 24.0509 36.4013 24.3309 36.6864C24.6109 36.9714 24.9448 37.1979 25.3133 37.3524C25.6818 37.507 26.0773 37.5866 26.4769 37.5866H27.327V38.2941C27.327 38.6069 27.4513 38.9068 27.6724 39.128C27.8936 39.3491 28.1935 39.4733 28.5063 39.4733C28.819 39.4733 29.119 39.3491 29.3401 39.128C29.5613 38.9068 29.6855 38.6069 29.6855 38.2941V37.579C30.7058 37.5178 31.6643 37.0696 32.3655 36.326C33.0667 35.5824 33.4578 34.5992 33.4591 33.5771V33.4592C33.4579 32.3962 33.0351 31.3771 32.2835 30.6254C31.5318 29.8737 30.5127 29.4509 29.4497 29.4498Z" fill="#72C2C8"/>
<defs>
<linearGradient id="paint0_linear_225:14181" x1="20.8043" y1="52.7179" x2="64.9821" y2="8.54003" gradientUnits="userSpaceOnUse">
<stop stop-color="#E3DEDE"/>
<stop offset="1" stop-color="white"/>
</linearGradient>
<linearGradient id="paint1_linear_225:14181" x1="33.501" y1="14.6279" x2="52.2854" y2="-4.15654" gradientUnits="userSpaceOnUse">
<stop stop-color="#816A6A"/>
<stop offset="1" stop-color="#9D8B8B"/>
</linearGradient>
<linearGradient id="paint2_linear_225:14181" x1="8955.19" y1="4192.8" x2="9504.02" y2="1858.72" gradientUnits="userSpaceOnUse">
<stop stop-color="#816A6A"/>
<stop offset="1" stop-color="#9D8B8B"/>
</linearGradient>
<linearGradient id="paint3_linear_225:14181" x1="29.7428" y1="34.4597" x2="58.8785" y2="5.32396" gradientUnits="userSpaceOnUse">
<stop stop-color="#83CACF"/>
<stop offset="1" stop-color="#DCF0F1"/>
</linearGradient>
<linearGradient id="paint4_linear_225:14181" x1="24.7623" y1="13.8542" x2="46.8731" y2="35.965" gradientUnits="userSpaceOnUse">
<stop stop-color="#8177B8"/>
<stop offset="1" stop-color="#ABA4D0"/>
</linearGradient>
<linearGradient id="paint5_linear_225:14181" x1="3113.65" y1="13168.4" x2="11417.8" y2="5596.92" gradientUnits="userSpaceOnUse">
<stop stop-color="#83CACF"/>
<stop offset="1" stop-color="#DCF0F1"/>
</linearGradient>
<linearGradient id="paint6_linear_225:14181" x1="-5440.1" y1="1920.66" x2="-4636.54" y2="-791.364" gradientUnits="userSpaceOnUse">
<stop stop-color="#8177B8"/>
<stop offset="1" stop-color="#ABA4D0"/>
</linearGradient>
</defs>
</svg>
