<svg width="101" height="33" viewBox="0 0 101 33" fill="none" xmlns="http://www.w3.org/2000/svg">
<path d="M100.943 30.2336C100.943 31.4946 99.8648 32.5182 98.5367 32.5182H2.7198C1.39102 32.5182 0.314453 31.4946 0.314453 30.2336V2.56267C0.314453 1.30029 1.39102 0.276714 2.7198 0.276714H98.5367C99.8648 0.276714 100.943 1.30029 100.943 2.56267V30.2336Z" fill="#00AEEF"/>
<path d="M16.6122 10.8923H22.7899C27.0942 10.8923 33.0324 11.0794 33.0324 15.6064C33.0324 20.5995 26.8943 21.9082 22.3519 21.9082H12.9062L16.6122 10.8923ZM22.5511 19.7141C26.4959 19.7141 28.2902 17.6596 28.2902 15.6064C28.2902 13.7866 26.7749 13.0857 23.9859 13.0857H20.3993L18.1664 19.7141H22.5511Z" fill="white"/>
<path d="M37.3427 10.908C37.3427 10.908 41.2345 14.8346 40.7193 18.2495C40.4544 20.0122 39.8527 21.9219 39.8527 21.9219H35.2292C35.2292 21.9219 35.7047 20.9117 36.2212 18.2267C36.9389 14.514 32.259 10.908 32.259 10.908H37.3427Z" fill="white"/>
<path d="M40.4727 13.8484C41.3359 15.2543 41.5694 16.571 41.6083 17.4336C41.6083 17.763 41.6049 18.1017 41.5935 18.1205C41.951 17.6107 42.4152 16.9695 43.1108 16.1713C45.4282 13.5144 49.2871 10.8971 49.2871 10.8971L49.2844 10.8944L43.9237 10.8917C43.9237 10.8917 42.9417 11.6208 42.1314 12.2788C41.1012 13.1146 40.4727 13.8484 40.4727 13.8484Z" fill="white"/>
<path d="M50.1403 10.8935H56.8667L57.412 18.127L62.5434 10.8935H69.6997L66.2359 21.9081H61.8062L64.7193 13.2271L58.3048 21.9081H54.1052L53.4452 13.2271L50.6856 21.9081H46.6021L50.1403 10.8935Z" fill="white"/>
<path d="M88.2317 15.6066C88.2317 19.9464 83.3807 22.1411 77.6987 22.1411C72.6271 22.1411 69.176 20.4146 69.176 17.146C69.176 12.8075 73.9834 10.659 79.5775 10.659C84.737 10.659 88.2317 12.2943 88.2317 15.6066ZM74.2899 17.3344C74.2899 18.5935 74.9432 19.9001 77.6987 19.9001C81.1518 19.9001 83.1607 17.8462 83.1607 15.6522C83.1607 14.4401 82.4182 12.9007 79.4903 12.9007C76.2566 12.9007 74.2899 15.1404 74.2899 17.3344Z" fill="white"/>
<path d="M88.0547 10.83H88.1922C88.3471 10.83 88.4813 10.775 88.4813 10.6268C88.4813 10.5235 88.4048 10.4188 88.1922 10.4188L88.0547 10.4269V10.83ZM88.0547 11.49H87.8635V10.2994C87.9655 10.286 88.058 10.2726 88.2029 10.2726C88.3827 10.2726 88.5001 10.3082 88.5712 10.3618C88.6423 10.4128 88.6819 10.4946 88.6819 10.608C88.6819 10.7656 88.5745 10.8595 88.4478 10.8971V10.9065C88.5517 10.9266 88.6242 11.0198 88.647 11.1963C88.6765 11.3821 88.7033 11.4532 88.7214 11.49H88.5236C88.4947 11.4532 88.4665 11.3438 88.4444 11.1862C88.4135 11.0346 88.3391 10.9769 88.1882 10.9769H88.0547V11.49ZM88.2539 9.96876C87.7857 9.96876 87.3993 10.3712 87.3993 10.8696C87.3993 11.3753 87.7857 11.7744 88.2579 11.7744C88.7335 11.7812 89.1125 11.3753 89.1125 10.875C89.1125 10.3712 88.7335 9.96876 88.2579 9.96876H88.2539ZM88.2579 9.80174C88.8422 9.80174 89.307 10.276 89.307 10.8696C89.307 11.4706 88.8422 11.9408 88.2539 11.9408C87.6697 11.9408 87.1968 11.4706 87.1968 10.8696C87.1968 10.276 87.6697 9.80174 88.2539 9.80174H88.2579Z" fill="white"/>
</svg>
