<svg width="106" height="120" viewBox="0 0 106 120" fill="none" xmlns="http://www.w3.org/2000/svg">
<path d="M10.1812 112.996C4.86247 112.996 0.550781 108.672 0.550781 103.338V9.65845C0.550781 4.32449 4.86247 0.000732422 10.1812 0.000732422H51.3989C52.5684 0.000732422 53.7088 0.285152 54.7279 0.815844C55.3803 1.15555 85.0181 30.9991 85.3721 31.7785C85.7961 32.7121 86.0216 33.7346 86.0216 34.7801V101.648C86.0216 107.915 80.9409 112.996 74.6737 112.996H10.1812V112.996Z" fill="#F9F8F9"/>
<path d="M17.4252 112.995H10.1819C4.86295 112.995 0.550781 108.673 0.550781 103.338V9.65771C0.550781 4.32424 4.86295 0 10.1819 0H17.4252C12.1062 0 7.79407 4.32424 7.79407 9.65771V103.338C7.79407 108.673 12.1062 112.995 17.4252 112.995Z" fill="#E3E0E4"/>
<path d="M44.1568 36.2132H14.3118C13.3117 36.2132 12.501 35.4027 12.501 34.4024C12.501 33.4021 13.3117 32.5916 14.3118 32.5916H44.1568C45.1569 32.5916 45.9676 33.4021 45.9676 34.4024C45.9676 35.4027 45.1569 36.2132 44.1568 36.2132Z" fill="#A29AA5"/>
<path d="M56.2289 79.6828H14.3118C13.3117 79.6828 12.501 78.8723 12.501 77.872C12.501 76.8717 13.3117 76.0612 14.3118 76.0612H56.2289C57.229 76.0612 58.0397 76.8717 58.0397 77.872C58.0397 78.8723 57.229 79.6828 56.2289 79.6828Z" fill="#A29AA5"/>
<path d="M67.8732 50.7029H13.8294C12.8293 50.7029 12.0186 49.8924 12.0186 48.8921C12.0186 47.8918 12.8293 47.0813 13.8294 47.0813H67.8732C68.8733 47.0813 69.684 47.8918 69.684 48.8921C69.684 49.8924 68.8733 50.7029 67.8732 50.7029Z" fill="#A29AA5"/>
<path d="M67.8819 65.193H13.8294C12.8293 65.193 12.0186 64.3824 12.0186 63.3821C12.0186 62.3818 12.8293 61.5713 13.8294 61.5713H67.8819C68.882 61.5713 69.6927 62.3818 69.6927 63.3821C69.6927 64.3824 68.882 65.193 67.8819 65.193Z" fill="#A29AA5"/>
<path d="M105.44 95.7592C105.364 94.156 104.667 92.5951 103.52 91.4666L86.0647 74.1124C83.4924 71.555 79.3229 71.555 76.7505 74.1124C74.1782 76.6697 74.1782 80.8151 76.7505 83.3724L82.9621 89.5478H47.8136C44.1743 89.5478 41.2266 92.4785 41.2266 96.0967C41.2266 99.715 44.1743 102.646 47.8136 102.646H82.9621L76.7505 108.821C74.1782 111.379 74.1782 115.524 76.7505 118.081C79.3193 120.64 83.496 120.64 86.0647 118.081L103.52 100.727C104.831 99.4405 105.544 97.5876 105.44 95.7592Z" fill="#80E29E"/>
<path d="M82.9474 89.5339H87.2912C88.3683 89.5339 88.9062 88.2302 88.1425 87.4708L82.0934 81.4555C79.5704 78.9469 79.1985 75.108 80.9804 72.2083C79.44 72.3072 77.9285 72.9422 76.7503 74.1132C74.1789 76.6701 74.1789 80.8157 76.7503 83.3726L82.9474 89.5339ZM76.7501 108.821C74.1787 111.378 74.1787 115.523 76.7501 118.08C77.9259 119.251 79.4397 119.886 80.9801 119.985C79.1983 117.083 79.5701 113.246 82.0932 110.738L87.8719 104.686C88.6054 103.918 88.0609 102.645 86.9988 102.645H82.9621L76.7501 108.821ZM51.0774 89.5487H47.8131C44.1746 89.5487 41.2266 92.4774 41.2266 96.0966C41.2266 99.7158 44.1746 102.645 47.8131 102.645H51.0774C48.7934 101.346 47.2554 98.8998 47.2554 96.0966C47.2554 93.2935 48.7934 90.8476 51.0774 89.5487Z" fill="#77D192"/>
<path d="M86.0216 34.7798V39.022H60.9429C53.3519 39.022 47.1758 32.8362 47.1758 25.2332V0H51.3986C52.482 0 53.539 0.243857 54.4985 0.700909C55.239 1.0539 85.0225 31.0054 85.3767 31.7884C85.7977 32.7196 86.0216 33.7383 86.0216 34.7798Z" fill="#E3E0E4"/>
<path d="M85.3695 31.7786H60.9427C57.3404 31.7786 54.4189 28.8499 54.4189 25.2331V0.66626C55.1891 1.02118 55.9014 1.51372 56.5123 2.12699L83.9112 29.6635C84.5269 30.2816 85.0194 30.9987 85.3695 31.7786Z" fill="#A29AA5"/>
</svg>
