<svg width="61" height="61" viewBox="0 0 61 61" fill="none" xmlns="http://www.w3.org/2000/svg">
<g clip-path="url(#clip0_229:13010)">
<path d="M30.6289 0.440308V60.8177C31.2322 60.8177 31.7654 60.5232 32.097 60.0716C32.0996 60.0716 49.1104 36.8639 49.1104 36.8639C51.8867 33.0741 53.5285 28.399 53.5285 23.34C53.5285 10.6928 43.2761 0.440308 30.6289 0.440308Z" fill="#E04B3A"/>
<path d="M30.6292 0.440308C17.982 0.440308 7.72949 10.6928 7.72949 23.34C7.72949 28.399 9.37134 33.0741 12.1494 36.8638C12.1475 36.8638 29.1585 60.0715 29.1585 60.0715C29.4927 60.5232 30.0259 60.8175 30.6292 60.8175C31.1365 60.8175 31.5847 60.5231 31.8637 60.0715C31.8657 60.0715 46.1695 36.8638 46.1695 36.8638C48.5038 33.0741 49.8843 28.399 49.8843 23.34C49.8843 10.6928 41.2635 0.440308 30.6292 0.440308Z" fill="#FF6145"/>
<path d="M30.6292 42.5951C41.2635 42.5951 49.8843 33.9743 49.8843 23.34C49.8843 12.7057 41.2635 4.08484 30.6292 4.08484C19.9948 4.08484 11.374 12.7057 11.374 23.34C11.374 33.9743 19.9948 42.5951 30.6292 42.5951Z" fill="#E5F9FF"/>
<path d="M17.2324 15.6055C17.1535 15.7416 17.1104 15.8979 17.1104 16.0607V30.6193C17.1104 30.9448 17.284 31.2455 17.5659 31.4083L30.1735 38.6876C30.3144 38.769 30.4717 38.8097 30.6291 38.8097L40.5033 15.5347L17.2324 15.6055Z" fill="#FF9457"/>
<path d="M44.0256 15.6055L30.6284 15.5347L40.5031 33.2494L43.692 31.4083C43.9739 31.2455 44.1476 30.9447 44.1476 30.6193V16.0607C44.1477 15.8979 44.1046 15.7416 44.0256 15.6055Z" fill="#FF6145"/>
<path d="M40.5031 17.6388L30.6289 15.5347V38.8097C30.7862 38.8097 30.9435 38.769 31.0845 38.6876L40.5031 33.2494V29.0412L38.6808 26.937L40.5031 24.8328V17.6388Z" fill="#FF7E4F"/>
<path d="M40.5041 24.8329L34.2739 28.4299V32.6382L40.5041 29.0412V24.8329Z" fill="white"/>
<path d="M43.6922 15.2716L31.0845 7.99233C30.8027 7.82954 30.4554 7.82954 30.1734 7.99233L23.8696 11.6314L25.6919 19.4379H37.3883L44.0256 15.6055C43.947 15.4693 43.8332 15.353 43.6922 15.2716Z" fill="#FF9457"/>
<path d="M23.8698 11.6315L17.5659 15.2717C17.425 15.3531 17.3111 15.4694 17.2324 15.6056L30.6292 23.3401L37.3885 19.438L23.8698 11.6315Z" fill="#FFAE6B"/>
</g>
<defs>
<clipPath id="clip0_229:13010">
<rect width="60.3774" height="60.3774" fill="white" transform="translate(0.44043 0.440308)"/>
</clipPath>
</defs>
</svg>
