<svg width="61" height="61" viewBox="0 0 61 61" fill="none" xmlns="http://www.w3.org/2000/svg">
<g clip-path="url(#clip0_229:12973)">
<path d="M57.6387 3.40796H10.7302C10.4165 3.40796 10.135 3.60029 10.0208 3.89239L7.55127 10.2144V50.9088C7.55127 52.0369 8.46578 52.9512 9.59372 52.9512H58.7752C59.9033 52.9512 60.8177 52.0367 60.8177 50.9088V10.2144L58.348 3.89239C58.234 3.60029 57.9524 3.40796 57.6387 3.40796Z" fill="#927266"/>
<path d="M58.7752 52.9513H9.59372C8.46566 52.9513 7.55127 52.0368 7.55127 50.9088V10.2146H60.8177V50.9089C60.8177 52.0369 59.9032 52.9513 58.7752 52.9513Z" fill="#82635A"/>
<path d="M55.4533 10.2145V46.9909C55.4533 48.8232 53.9679 50.3086 52.1356 50.3086H9.59372C8.46566 50.3086 7.55127 49.3942 7.55127 48.2661V50.9088C7.55127 52.0369 8.46578 52.9513 9.59372 52.9513H58.7752C59.9033 52.9513 60.8177 52.0368 60.8177 50.9088V10.2145H55.4533Z" fill="#72544E"/>
<path d="M37.6883 29.564C38.018 30.6368 37.4151 31.7635 36.3536 32.0922L27.5549 34.8154L28.0737 35.027L33.9452 37.4211L43.664 41.3839C44.8431 41.8647 45.4092 43.2105 44.9285 44.3896C44.4477 45.5687 43.1019 46.1349 41.9228 45.6541L44.1766 46.5731C45.3557 47.0539 45.9219 48.3996 45.4411 49.5787C44.9603 50.7579 43.6145 51.324 42.4354 50.8432L40.1816 49.9242C41.347 50.3995 41.9136 51.7194 41.4625 52.8885C40.9972 54.0945 39.5893 54.6629 38.3924 54.1748L36.5129 53.4084C37.692 53.8892 38.2582 55.235 37.7774 56.4141C37.2966 57.5932 35.9509 58.1594 34.7717 57.6786L17.7493 50.7377C16.0767 50.0557 14.6058 48.9582 13.4757 47.549C12.3457 46.1398 10.8748 45.0423 9.20216 44.3603L2.14355 41.4822L7.07716 29.3826L13.1877 31.8741C15.2331 32.7082 35.2936 28.1903 35.2936 28.1903C36.3248 27.9739 37.3788 28.5568 37.6883 29.564Z" fill="#FED9A8"/>
<path d="M37.6883 29.564C38.018 30.6368 37.4151 31.7635 36.3536 32.0922L27.5549 34.8154L28.0737 35.027L33.9452 37.4211L43.664 41.3839C44.8431 41.8647 45.4092 43.2105 44.9285 44.3896C44.4477 45.5687 43.1019 46.1349 41.9228 45.6541L44.1766 46.5731C45.3557 47.0539 45.9219 48.3996 45.4411 49.5787C44.9603 50.7579 43.6145 51.324 42.4354 50.8432L40.1816 49.9242C41.347 50.3995 41.9136 51.7194 41.4625 52.8885C40.9972 54.0945 39.5893 54.6629 38.3924 54.1748L36.5129 53.4084C37.692 53.8892 38.2582 55.235 37.7774 56.4141C37.2966 57.5932 35.9509 58.1594 34.7717 57.6786L17.7493 50.7377C16.0767 50.0557 14.6058 48.9582 13.4757 47.549C12.3457 46.1398 10.8748 45.0423 9.20216 44.3603L2.14355 41.4822L7.07716 29.3826L13.1877 31.8741C15.2331 32.7082 35.2936 28.1903 35.2936 28.1903C36.3248 27.9739 37.3788 28.5568 37.6883 29.564Z" fill="#FED9A8"/>
<path d="M37.6883 29.564C38.018 30.6368 37.4151 31.7635 36.3536 32.0922L27.5549 34.8154L28.0737 35.027L33.9452 37.4211L43.664 41.3839C44.8431 41.8647 45.4092 43.2105 44.9285 44.3896C44.4477 45.5687 43.1019 46.1349 41.9228 45.6541L44.1766 46.5731C45.3557 47.0539 45.9219 48.3996 45.4411 49.5787C44.9603 50.7579 43.6145 51.324 42.4354 50.8432L40.1816 49.9242C41.347 50.3995 41.9136 51.7194 41.4625 52.8885C40.9972 54.0945 39.5893 54.6629 38.3924 54.1748L36.5129 53.4084C37.692 53.8892 38.2582 55.235 37.7774 56.4141C37.2966 57.5932 35.9509 58.1594 34.7717 57.6786L17.7493 50.7377C16.0767 50.0557 14.6058 48.9582 13.4757 47.549C12.3457 46.1398 10.8748 45.0423 9.20216 44.3603L2.14355 41.4822L7.07716 29.3826L13.1877 31.8741C15.2331 32.7082 35.2936 28.1903 35.2936 28.1903C36.3248 27.9739 37.3788 28.5568 37.6883 29.564Z" fill="#FED9A8"/>
<path d="M37.7794 56.4091C37.7824 56.4018 37.7853 56.3946 37.7882 56.3873C37.7893 56.3843 37.7904 56.3814 37.7916 56.3786C37.7939 56.3724 37.7963 56.3664 37.7985 56.3604C37.7998 56.3569 37.8011 56.3535 37.8024 56.3499C37.8044 56.3445 37.8064 56.3391 37.8084 56.3336C37.81 56.3296 37.8114 56.3255 37.8128 56.3215C37.8146 56.3167 37.8163 56.3118 37.818 56.307C37.8194 56.3029 37.8208 56.2987 37.8222 56.2946C37.8239 56.2897 37.8257 56.2847 37.8273 56.2797C37.8287 56.2755 37.8301 56.2711 37.8317 56.2669C37.8332 56.2623 37.8346 56.2578 37.8362 56.2532C37.8376 56.2487 37.8391 56.2443 37.8405 56.2398C37.8419 56.2352 37.8435 56.2306 37.8449 56.226C37.8462 56.2216 37.8476 56.2174 37.8489 56.213C37.8503 56.2082 37.8518 56.2033 37.8533 56.1985C37.8546 56.1943 37.8559 56.1899 37.857 56.1856C37.8583 56.1812 37.8596 56.1767 37.8609 56.1722C37.8623 56.1674 37.8636 56.1625 37.8651 56.1578C37.8662 56.1537 37.8673 56.1494 37.8685 56.1453C37.8698 56.1405 37.8711 56.1356 37.8724 56.1308C37.8734 56.1266 37.8746 56.1223 37.8757 56.1182C37.877 56.1132 37.8781 56.1084 37.8794 56.1036C37.8805 56.0993 37.8816 56.0952 37.8825 56.0909C37.8837 56.086 37.8849 56.0812 37.886 56.0763C37.8869 56.0727 37.8878 56.069 37.8886 56.0652C37.8899 56.0598 37.8912 56.0543 37.8924 56.0489C37.8929 56.0468 37.8934 56.0447 37.8938 56.0427C37.8988 56.0205 37.9034 55.9983 37.9076 55.976C37.9081 55.9736 37.9086 55.9713 37.909 55.9689C37.9102 55.9624 37.9114 55.956 37.9126 55.9496C37.913 55.9471 37.9135 55.9445 37.914 55.942C37.9152 55.9353 37.9163 55.9286 37.9174 55.9218C37.9178 55.9197 37.9181 55.9176 37.9185 55.9155C37.9195 55.9088 37.9207 55.9019 37.9217 55.8951C37.922 55.8928 37.9224 55.8907 37.9227 55.8885C37.9238 55.8815 37.9248 55.8746 37.9258 55.8676C37.926 55.8657 37.9264 55.8638 37.9266 55.8619C37.9277 55.8545 37.9286 55.8471 37.9296 55.8397C37.9297 55.8385 37.9299 55.8372 37.93 55.836C37.931 55.8282 37.932 55.8204 37.9329 55.8126C37.933 55.8117 37.9331 55.8106 37.9332 55.8097C37.9342 55.8017 37.9351 55.7938 37.9359 55.7858C37.936 55.7851 37.936 55.7843 37.9362 55.7836C37.937 55.7754 37.9378 55.767 37.9386 55.7588C37.9386 55.7585 37.9386 55.7582 37.9388 55.7579C38.0235 54.8523 37.562 53.9591 36.7383 53.5154C36.7254 53.5084 36.7125 53.5024 36.6996 53.4958C36.6418 53.4661 36.583 53.4379 36.5218 53.4126C36.5013 53.404 36.4804 53.3952 36.4603 53.3871L27.8324 49.869C27.3763 50.9878 27.9102 52.2648 29.0271 52.7257L35.8702 55.5501C36.5925 55.8447 37.0876 56.4904 37.2501 57.1972C37.4717 56.982 37.6534 56.7185 37.7774 56.4142C37.7781 56.4125 37.7787 56.4108 37.7794 56.4091Z" fill="#F4C892"/>
<path d="M44.6494 44.8884C44.7605 44.7377 44.8548 44.571 44.9287 44.3896C45.4095 43.2104 44.8434 41.8647 43.6642 41.3839L33.9455 37.4211L28.074 35.027L27.5552 34.8154C28.8653 37.085 30.8936 38.854 33.3203 39.8435L43.6642 44.0613C44.0261 44.2089 44.3971 44.5711 44.6494 44.8884Z" fill="#F4C892"/>
<path d="M45.4719 47.9172C45.4656 47.8998 45.4591 47.8826 45.4524 47.8654C45.4489 47.8568 45.4455 47.8483 45.4421 47.8397C45.4351 47.8226 45.428 47.8056 45.4206 47.7888C45.3986 47.738 45.3747 47.688 45.3491 47.639C45.3362 47.6145 45.323 47.5902 45.3093 47.5661C45.3002 47.5501 45.2908 47.5342 45.2814 47.5182C45.2718 47.5024 45.2621 47.4866 45.2522 47.4711C45.2423 47.4555 45.2322 47.4399 45.2219 47.4246C45.1242 47.2785 45.0094 47.1429 44.8789 47.0212C44.8721 47.0148 44.8651 47.0084 44.8581 47.0021C44.8164 46.9641 44.7731 46.9276 44.7283 46.8925C44.7209 46.8866 44.7133 46.8809 44.7058 46.8751C44.6907 46.8635 44.6754 46.8522 44.66 46.8411C44.6524 46.8356 44.6446 46.83 44.6368 46.8245C44.4965 46.7255 44.3427 46.6409 44.1769 46.5732L41.9231 45.6542H41.9232L31.315 41.3286C30.8455 42.4799 31.3995 43.7937 32.5517 44.2613L44.177 48.9792C44.6449 49.17 45.0241 49.5151 45.2721 49.9142C45.3366 49.8089 45.3934 49.6969 45.4415 49.5788C45.5316 49.3577 45.585 49.1309 45.6044 48.9048C45.606 48.8859 45.6073 48.8672 45.6085 48.8483C45.6277 48.5285 45.5796 48.2116 45.4719 47.9172Z" fill="#F4C892"/>
<path d="M6.33453 27.6031C6.5179 27.1534 7.03099 26.9375 7.48063 27.1209L12.2475 29.0646C12.6971 29.248 12.9131 29.7611 12.7297 30.2107L6.90092 44.5058C6.71754 44.9554 6.20446 45.1714 5.75481 44.988L0.987946 43.0442C0.538299 42.8609 0.32238 42.3478 0.505752 41.8981L6.33453 27.6031Z" fill="#2D5872"/>
<path d="M12.2475 29.0646L10.191 28.2261L4.75115 41.5672C4.56778 42.0169 4.05469 42.2327 3.60504 42.0494L0.894667 40.9442L0.505752 41.8981C0.32238 42.3478 0.538299 42.8609 0.987946 43.0442L5.75481 44.988C6.20445 45.1714 6.71754 44.9554 6.90092 44.5058L12.7298 30.2107C12.9129 29.7611 12.6971 29.2479 12.2475 29.0646Z" fill="#1D4859"/>
<path d="M38.6561 3.40796H29.7137L28.1387 10.2146V24.5919C28.1387 24.9845 28.6022 25.1931 28.896 24.9327L33.8829 20.5148C34.0553 20.3621 34.3145 20.3621 34.4868 20.5148L39.4737 24.9327C39.7676 25.1931 40.231 24.9845 40.231 24.5919V10.2144L38.6561 3.40796Z" fill="#FFB125"/>
<path d="M39.4737 24.9327L34.4868 20.5148C34.3144 20.3621 34.0552 20.3621 33.8829 20.5148L28.896 24.9327C28.6021 25.193 28.1387 24.9844 28.1387 24.5919V10.2146H40.2311V24.5919C40.231 24.9845 39.7676 25.1931 39.4737 24.9327Z" fill="#FF901D"/>
<path d="M41.3103 53.2069C41.3623 53.1174 41.4087 53.0233 41.4486 52.9247C41.4498 52.9217 41.451 52.9188 41.4522 52.916C41.455 52.9088 41.4578 52.9017 41.4607 52.8945C41.4625 52.8896 41.4644 52.8846 41.4663 52.8798C41.4675 52.8766 41.4687 52.8735 41.4699 52.8703C41.4721 52.8643 41.4743 52.8583 41.4766 52.8523C41.4776 52.8493 41.4788 52.8463 41.4799 52.8433C41.4821 52.8372 41.4842 52.8311 41.4865 52.8248C41.4874 52.8221 41.4885 52.8193 41.4894 52.8166C41.4916 52.8104 41.4937 52.8042 41.4958 52.7979C41.4969 52.795 41.4978 52.7919 41.4989 52.789C41.5006 52.7837 41.5024 52.7782 41.5042 52.7729C41.5054 52.7692 41.5066 52.7655 41.5078 52.7617C41.5105 52.7531 41.5134 52.7444 41.516 52.7358C41.5174 52.7313 41.5187 52.7268 41.52 52.7223C41.5213 52.7181 41.5226 52.7138 41.5239 52.7096C41.5255 52.7041 41.5271 52.6986 41.5287 52.6931C41.5296 52.6898 41.5306 52.6864 41.5315 52.6831C41.5331 52.6778 41.5345 52.6725 41.5359 52.6671C41.5368 52.6635 41.5379 52.6598 41.539 52.6562C41.5404 52.6509 41.5418 52.6456 41.5432 52.6403C41.5441 52.6368 41.545 52.6333 41.5459 52.6299C41.5475 52.6241 41.5489 52.6182 41.5503 52.6124C41.551 52.6097 41.5516 52.607 41.5523 52.6042C41.5538 52.5979 41.5554 52.5917 41.5568 52.5853C41.5574 52.5828 41.5579 52.5804 41.5585 52.578C41.5601 52.5716 41.5615 52.5651 41.5629 52.5587C41.5634 52.5564 41.5638 52.5543 41.5643 52.5521C41.5658 52.5453 41.5673 52.5386 41.5687 52.5319C41.569 52.5305 41.5693 52.5291 41.5696 52.5275C41.573 52.5114 41.5762 52.4953 41.5792 52.4792C41.7754 51.4259 41.213 50.3444 40.1821 49.9241L29.574 45.5986C29.1224 46.7062 29.657 47.9697 30.7663 48.4168L40.1821 52.2118C40.6725 52.412 41.063 52.7815 41.3103 53.2069Z" fill="#F4C892"/>
</g>
<defs>
<clipPath id="clip0_229:12973">
<rect width="60.3774" height="60.3774" fill="white" transform="translate(0.44043 0.440308)"/>
</clipPath>
</defs>
</svg>
