<svg width="580" height="56" viewBox="0 0 580 56" fill="none" xmlns="http://www.w3.org/2000/svg">
<path d="M5.56901 34.168C4.64501 34.168 3.83767 33.958 3.14701 33.538C2.45634 33.118 1.91967 32.5347 1.53701 31.788C1.15434 31.032 0.963008 30.1547 0.963008 29.156C0.963008 28.148 1.15901 27.2613 1.55101 26.496C1.95234 25.7213 2.51701 25.1193 3.24501 24.69C3.98234 24.2513 4.85501 24.032 5.86301 24.032C7.01101 24.032 7.96301 24.3073 8.71901 24.858C9.47501 25.4087 9.96501 26.1693 10.189 27.14H8.18701C8.03767 26.6827 7.76701 26.328 7.37501 26.076C6.98301 25.8147 6.47901 25.684 5.86301 25.684C4.88301 25.684 4.12701 25.9967 3.59501 26.622C3.06301 27.238 2.79701 28.0873 2.79701 29.17C2.79701 30.2527 3.05834 31.0927 3.58101 31.69C4.11301 32.278 4.83167 32.572 5.73701 32.572C6.62367 32.572 7.29101 32.334 7.73901 31.858C8.19634 31.3727 8.47167 30.738 8.56501 29.954H6.08701V28.61H10.371V34H8.71901L8.57901 32.712C8.26167 33.1787 7.86501 33.538 7.38901 33.79C6.91301 34.042 6.30634 34.168 5.56901 34.168ZM15.4451 34.168C14.7451 34.168 14.1245 34.0187 13.5831 33.72C13.0418 33.4213 12.6171 33.0013 12.3091 32.46C12.0011 31.9187 11.8471 31.2933 11.8471 30.584C11.8471 29.8653 11.9965 29.226 12.2951 28.666C12.6031 28.106 13.0231 27.672 13.5551 27.364C14.0965 27.0467 14.7311 26.888 15.4591 26.888C16.1405 26.888 16.7425 27.0373 17.2651 27.336C17.7878 27.6347 18.1938 28.0453 18.4831 28.568C18.7818 29.0813 18.9311 29.6553 18.9311 30.29C18.9311 30.3927 18.9265 30.5 18.9171 30.612C18.9171 30.724 18.9125 30.8407 18.9031 30.962H13.6251C13.6625 31.5033 13.8491 31.928 14.1851 32.236C14.5305 32.544 14.9458 32.698 15.4311 32.698C15.7951 32.698 16.0985 32.6187 16.3411 32.46C16.5931 32.292 16.7798 32.0773 16.9011 31.816H18.7211C18.5905 32.2547 18.3711 32.656 18.0631 33.02C17.7645 33.3747 17.3911 33.6547 16.9431 33.86C16.5045 34.0653 16.0051 34.168 15.4451 34.168ZM15.4591 28.344C15.0205 28.344 14.6331 28.47 14.2971 28.722C13.9611 28.9647 13.7465 29.338 13.6531 29.842H17.1111C17.0831 29.3847 16.9151 29.0207 16.6071 28.75C16.2991 28.4793 15.9165 28.344 15.4591 28.344ZM20.4383 34V27.056H22.0203L22.1603 28.232C22.375 27.8213 22.683 27.4947 23.0843 27.252C23.495 27.0093 23.9757 26.888 24.5263 26.888C25.385 26.888 26.0523 27.1587 26.5283 27.7C27.0043 28.2413 27.2423 29.0347 27.2423 30.08V34H25.4503V30.248C25.4503 29.6507 25.329 29.1933 25.0863 28.876C24.8437 28.5587 24.4657 28.4 23.9523 28.4C23.4483 28.4 23.033 28.5773 22.7063 28.932C22.389 29.2867 22.2303 29.7813 22.2303 30.416V34H20.4383ZM32.3299 34.168C31.6299 34.168 31.0092 34.0187 30.4679 33.72C29.9266 33.4213 29.5019 33.0013 29.1939 32.46C28.8859 31.9187 28.7319 31.2933 28.7319 30.584C28.7319 29.8653 28.8812 29.226 29.1799 28.666C29.4879 28.106 29.9079 27.672 30.4399 27.364C30.9812 27.0467 31.6159 26.888 32.3439 26.888C33.0252 26.888 33.6272 27.0373 34.1499 27.336C34.6726 27.6347 35.0786 28.0453 35.3679 28.568C35.6666 29.0813 35.8159 29.6553 35.8159 30.29C35.8159 30.3927 35.8112 30.5 35.8019 30.612C35.8019 30.724 35.7972 30.8407 35.7879 30.962H30.5099C30.5472 31.5033 30.7339 31.928 31.0699 32.236C31.4152 32.544 31.8306 32.698 32.3159 32.698C32.6799 32.698 32.9832 32.6187 33.2259 32.46C33.4779 32.292 33.6646 32.0773 33.7859 31.816H35.6059C35.4752 32.2547 35.2559 32.656 34.9479 33.02C34.6492 33.3747 34.2759 33.6547 33.8279 33.86C33.3892 34.0653 32.8899 34.168 32.3299 34.168ZM32.3439 28.344C31.9052 28.344 31.5179 28.47 31.1819 28.722C30.8459 28.9647 30.6312 29.338 30.5379 29.842H33.9959C33.9679 29.3847 33.7999 29.0207 33.4919 28.75C33.1839 28.4793 32.8012 28.344 32.3439 28.344ZM37.3231 34V27.056H38.9191L39.0871 28.358C39.3391 27.91 39.6798 27.5553 40.1091 27.294C40.5478 27.0233 41.0611 26.888 41.6491 26.888V28.778H41.1451C40.7531 28.778 40.4031 28.8387 40.0951 28.96C39.7871 29.0813 39.5444 29.2913 39.3671 29.59C39.1991 29.8887 39.1151 30.304 39.1151 30.836V34H37.3231ZM45.2679 34.168C44.6705 34.168 44.1805 34.0747 43.7979 33.888C43.4152 33.692 43.1305 33.4353 42.9439 33.118C42.7572 32.8007 42.6639 32.4507 42.6639 32.068C42.6639 31.424 42.9159 30.9013 43.4199 30.5C43.9239 30.0987 44.6799 29.898 45.6879 29.898H47.4519V29.73C47.4519 29.254 47.3165 28.904 47.0459 28.68C46.7752 28.456 46.4392 28.344 46.0379 28.344C45.6739 28.344 45.3565 28.4327 45.0859 28.61C44.8152 28.778 44.6472 29.03 44.5819 29.366H42.8319C42.8785 28.862 43.0465 28.4233 43.3359 28.05C43.6345 27.6767 44.0172 27.392 44.4839 27.196C44.9505 26.9907 45.4732 26.888 46.0519 26.888C47.0412 26.888 47.8205 27.1353 48.3899 27.63C48.9592 28.1247 49.2439 28.8247 49.2439 29.73V34H47.7179L47.5499 32.88C47.3445 33.2533 47.0552 33.5613 46.6819 33.804C46.3179 34.0467 45.8465 34.168 45.2679 34.168ZM45.6739 32.768C46.1872 32.768 46.5839 32.6 46.8639 32.264C47.1532 31.928 47.3352 31.5127 47.4099 31.018H45.8839C45.4079 31.018 45.0672 31.1067 44.8619 31.284C44.6565 31.452 44.5539 31.662 44.5539 31.914C44.5539 32.1847 44.6565 32.3947 44.8619 32.544C45.0672 32.6933 45.3379 32.768 45.6739 32.768ZM50.9539 34V23.92H52.7459V34H50.9539Z" fill="#EB6079"/>
<path d="M121.299 34V24.2H124.925C125.709 24.2 126.357 24.3307 126.871 24.592C127.384 24.8533 127.767 25.2127 128.019 25.67C128.271 26.1273 128.397 26.6407 128.397 27.21C128.397 27.7513 128.275 28.2507 128.033 28.708C127.79 29.156 127.412 29.52 126.899 29.8C126.385 30.0707 125.727 30.206 124.925 30.206H123.091V34H121.299ZM123.091 28.75H124.813C125.438 28.75 125.886 28.6147 126.157 28.344C126.437 28.064 126.577 27.686 126.577 27.21C126.577 26.7247 126.437 26.3467 126.157 26.076C125.886 25.796 125.438 25.656 124.813 25.656H123.091V28.75ZM131.717 34.168C131.12 34.168 130.63 34.0747 130.247 33.888C129.864 33.692 129.58 33.4353 129.393 33.118C129.206 32.8007 129.113 32.4507 129.113 32.068C129.113 31.424 129.365 30.9013 129.869 30.5C130.373 30.0987 131.129 29.898 132.137 29.898H133.901V29.73C133.901 29.254 133.766 28.904 133.495 28.68C133.224 28.456 132.888 28.344 132.487 28.344C132.123 28.344 131.806 28.4327 131.535 28.61C131.264 28.778 131.096 29.03 131.031 29.366H129.281C129.328 28.862 129.496 28.4233 129.785 28.05C130.084 27.6767 130.466 27.392 130.933 27.196C131.4 26.9907 131.922 26.888 132.501 26.888C133.49 26.888 134.27 27.1353 134.839 27.63C135.408 28.1247 135.693 28.8247 135.693 29.73V34H134.167L133.999 32.88C133.794 33.2533 133.504 33.5613 133.131 33.804C132.767 34.0467 132.296 34.168 131.717 34.168ZM132.123 32.768C132.636 32.768 133.033 32.6 133.313 32.264C133.602 31.928 133.784 31.5127 133.859 31.018H132.333C131.857 31.018 131.516 31.1067 131.311 31.284C131.106 31.452 131.003 31.662 131.003 31.914C131.003 32.1847 131.106 32.3947 131.311 32.544C131.516 32.6933 131.787 32.768 132.123 32.768ZM138.039 37.08L139.649 33.538H139.229L136.527 27.056H138.473L140.419 31.942L142.449 27.056H144.353L139.943 37.08H138.039ZM145.524 34V27.056H147.106L147.26 27.994C147.484 27.658 147.778 27.392 148.142 27.196C148.516 26.9907 148.945 26.888 149.43 26.888C150.504 26.888 151.264 27.3033 151.712 28.134C151.964 27.7513 152.3 27.448 152.72 27.224C153.15 27 153.616 26.888 154.12 26.888C155.026 26.888 155.721 27.1587 156.206 27.7C156.692 28.2413 156.934 29.0347 156.934 30.08V34H155.142V30.248C155.142 29.6507 155.026 29.1933 154.792 28.876C154.568 28.5587 154.218 28.4 153.742 28.4C153.257 28.4 152.865 28.5773 152.566 28.932C152.277 29.2867 152.132 29.7813 152.132 30.416V34H150.34V30.248C150.34 29.6507 150.224 29.1933 149.99 28.876C149.757 28.5587 149.398 28.4 148.912 28.4C148.436 28.4 148.049 28.5773 147.75 28.932C147.461 29.2867 147.316 29.7813 147.316 30.416V34H145.524ZM162.01 34.168C161.31 34.168 160.689 34.0187 160.148 33.72C159.606 33.4213 159.182 33.0013 158.874 32.46C158.566 31.9187 158.412 31.2933 158.412 30.584C158.412 29.8653 158.561 29.226 158.86 28.666C159.168 28.106 159.588 27.672 160.12 27.364C160.661 27.0467 161.296 26.888 162.024 26.888C162.705 26.888 163.307 27.0373 163.83 27.336C164.352 27.6347 164.758 28.0453 165.048 28.568C165.346 29.0813 165.496 29.6553 165.496 30.29C165.496 30.3927 165.491 30.5 165.482 30.612C165.482 30.724 165.477 30.8407 165.468 30.962H160.19C160.227 31.5033 160.414 31.928 160.75 32.236C161.095 32.544 161.51 32.698 161.996 32.698C162.36 32.698 162.663 32.6187 162.906 32.46C163.158 32.292 163.344 32.0773 163.466 31.816H165.286C165.155 32.2547 164.936 32.656 164.628 33.02C164.329 33.3747 163.956 33.6547 163.508 33.86C163.069 34.0653 162.57 34.168 162.01 34.168ZM162.024 28.344C161.585 28.344 161.198 28.47 160.862 28.722C160.526 28.9647 160.311 29.338 160.218 29.842H163.676C163.648 29.3847 163.48 29.0207 163.172 28.75C162.864 28.4793 162.481 28.344 162.024 28.344ZM167.003 34V27.056H168.585L168.725 28.232C168.939 27.8213 169.247 27.4947 169.649 27.252C170.059 27.0093 170.54 26.888 171.091 26.888C171.949 26.888 172.617 27.1587 173.093 27.7C173.569 28.2413 173.807 29.0347 173.807 30.08V34H172.015V30.248C172.015 29.6507 171.893 29.1933 171.651 28.876C171.408 28.5587 171.03 28.4 170.517 28.4C170.013 28.4 169.597 28.5773 169.271 28.932C168.953 29.2867 168.795 29.7813 168.795 30.416V34H167.003ZM178.614 34C177.886 34 177.303 33.8227 176.864 33.468C176.426 33.1133 176.206 32.4833 176.206 31.578V28.554H175.016V27.056H176.206L176.416 25.194H177.998V27.056H179.874V28.554H177.998V31.592C177.998 31.928 178.068 32.1613 178.208 32.292C178.358 32.4133 178.61 32.474 178.964 32.474H179.832V34H178.614ZM187.927 34.154C187.208 34.154 186.583 34.0327 186.051 33.79C185.519 33.538 185.104 33.188 184.805 32.74C184.516 32.292 184.371 31.7693 184.371 31.172C184.371 30.5373 184.548 29.9633 184.903 29.45C185.258 28.9367 185.785 28.526 186.485 28.218C186.205 27.8913 186.004 27.5833 185.883 27.294C185.762 27.0047 185.701 26.6967 185.701 26.37C185.701 25.922 185.813 25.5253 186.037 25.18C186.261 24.8253 186.578 24.5453 186.989 24.34C187.409 24.1347 187.908 24.032 188.487 24.032C189.075 24.032 189.574 24.1393 189.985 24.354C190.396 24.5687 190.704 24.858 190.909 25.222C191.124 25.586 191.222 25.992 191.203 26.44H189.495C189.495 26.0947 189.392 25.838 189.187 25.67C188.991 25.4927 188.753 25.404 188.473 25.404C188.156 25.404 187.899 25.4927 187.703 25.67C187.516 25.8473 187.423 26.076 187.423 26.356C187.423 26.5893 187.498 26.8273 187.647 27.07C187.796 27.3127 188.016 27.5927 188.305 27.91L191.049 30.626C191.245 30.3087 191.45 29.94 191.665 29.52L191.973 28.904H193.807L193.317 29.856C192.944 30.612 192.57 31.2513 192.197 31.774L194.451 34H192.309L191.217 32.908C190.741 33.3467 190.232 33.664 189.691 33.86C189.159 34.056 188.571 34.154 187.927 34.154ZM186.107 31.06C186.107 31.5173 186.275 31.9047 186.611 32.222C186.956 32.53 187.414 32.684 187.983 32.684C188.795 32.684 189.5 32.3947 190.097 31.816L187.507 29.254C187.031 29.4593 186.676 29.716 186.443 30.024C186.219 30.332 186.107 30.6773 186.107 31.06ZM132.496 52V42.2H136.094C136.878 42.2 137.522 42.3353 138.026 42.606C138.539 42.8673 138.922 43.2267 139.174 43.684C139.426 44.132 139.552 44.6313 139.552 45.182C139.552 45.7793 139.393 46.3253 139.076 46.82C138.768 47.3147 138.283 47.674 137.62 47.898L139.65 52H137.592L135.772 48.136H134.288V52H132.496ZM134.288 46.82H135.982C136.579 46.82 137.018 46.6753 137.298 46.386C137.578 46.0967 137.718 45.714 137.718 45.238C137.718 44.7713 137.578 44.398 137.298 44.118C137.027 43.838 136.584 43.698 135.968 43.698H134.288V46.82ZM144.127 52.168C143.427 52.168 142.806 52.0187 142.265 51.72C141.723 51.4213 141.299 51.0013 140.991 50.46C140.683 49.9187 140.529 49.2933 140.529 48.584C140.529 47.8653 140.678 47.226 140.977 46.666C141.285 46.106 141.705 45.672 142.237 45.364C142.778 45.0467 143.413 44.888 144.141 44.888C144.822 44.888 145.424 45.0373 145.947 45.336C146.469 45.6347 146.875 46.0453 147.165 46.568C147.463 47.0813 147.613 47.6553 147.613 48.29C147.613 48.3927 147.608 48.5 147.599 48.612C147.599 48.724 147.594 48.8407 147.585 48.962H142.307C142.344 49.5033 142.531 49.928 142.867 50.236C143.212 50.544 143.627 50.698 144.113 50.698C144.477 50.698 144.78 50.6187 145.023 50.46C145.275 50.292 145.461 50.0773 145.583 49.816H147.403C147.272 50.2547 147.053 50.656 146.745 51.02C146.446 51.3747 146.073 51.6547 145.625 51.86C145.186 52.0653 144.687 52.168 144.127 52.168ZM144.141 46.344C143.702 46.344 143.315 46.47 142.979 46.722C142.643 46.9647 142.428 47.338 142.335 47.842H145.793C145.765 47.3847 145.597 47.0207 145.289 46.75C144.981 46.4793 144.598 46.344 144.141 46.344ZM152.522 52.168C151.813 52.168 151.187 52.014 150.646 51.706C150.105 51.398 149.675 50.9687 149.358 50.418C149.05 49.8673 148.896 49.2373 148.896 48.528C148.896 47.8187 149.05 47.1887 149.358 46.638C149.675 46.0873 150.105 45.658 150.646 45.35C151.187 45.042 151.813 44.888 152.522 44.888C153.409 44.888 154.155 45.1213 154.762 45.588C155.369 46.0453 155.756 46.68 155.924 47.492H154.034C153.941 47.156 153.754 46.8947 153.474 46.708C153.203 46.512 152.881 46.414 152.508 46.414C152.013 46.414 151.593 46.6007 151.248 46.974C150.903 47.3473 150.73 47.8653 150.73 48.528C150.73 49.1907 150.903 49.7087 151.248 50.082C151.593 50.4553 152.013 50.642 152.508 50.642C152.881 50.642 153.203 50.5487 153.474 50.362C153.754 50.1753 153.941 49.9093 154.034 49.564H155.924C155.756 50.348 155.369 50.978 154.762 51.454C154.155 51.93 153.409 52.168 152.522 52.168ZM160.888 52.168C160.188 52.168 159.568 52.0187 159.026 51.72C158.485 51.4213 158.06 51.0013 157.752 50.46C157.444 49.9187 157.29 49.2933 157.29 48.584C157.29 47.8653 157.44 47.226 157.738 46.666C158.046 46.106 158.466 45.672 158.998 45.364C159.54 45.0467 160.174 44.888 160.902 44.888C161.584 44.888 162.186 45.0373 162.708 45.336C163.231 45.6347 163.637 46.0453 163.926 46.568C164.225 47.0813 164.374 47.6553 164.374 48.29C164.374 48.3927 164.37 48.5 164.36 48.612C164.36 48.724 164.356 48.8407 164.346 48.962H159.068C159.106 49.5033 159.292 49.928 159.628 50.236C159.974 50.544 160.389 50.698 160.874 50.698C161.238 50.698 161.542 50.6187 161.784 50.46C162.036 50.292 162.223 50.0773 162.344 49.816H164.164C164.034 50.2547 163.814 50.656 163.506 51.02C163.208 51.3747 162.834 51.6547 162.386 51.86C161.948 52.0653 161.448 52.168 160.888 52.168ZM160.902 46.344C160.464 46.344 160.076 46.47 159.74 46.722C159.404 46.9647 159.19 47.338 159.096 47.842H162.554C162.526 47.3847 162.358 47.0207 162.05 46.75C161.742 46.4793 161.36 46.344 160.902 46.344ZM166.848 43.978C166.521 43.978 166.25 43.88 166.036 43.684C165.83 43.488 165.728 43.2407 165.728 42.942C165.728 42.6433 165.83 42.4007 166.036 42.214C166.25 42.018 166.521 41.92 166.848 41.92C167.174 41.92 167.44 42.018 167.646 42.214C167.86 42.4007 167.968 42.6433 167.968 42.942C167.968 43.2407 167.86 43.488 167.646 43.684C167.44 43.88 167.174 43.978 166.848 43.978ZM165.952 52V45.056H167.744V52H165.952ZM169.614 55.08V45.056H171.21L171.406 46.05C171.63 45.742 171.924 45.4713 172.288 45.238C172.661 45.0047 173.142 44.888 173.73 44.888C174.383 44.888 174.967 45.0467 175.48 45.364C175.993 45.6813 176.399 46.1153 176.698 46.666C176.997 47.2167 177.146 47.842 177.146 48.542C177.146 49.242 176.997 49.8673 176.698 50.418C176.399 50.9593 175.993 51.3887 175.48 51.706C174.967 52.014 174.383 52.168 173.73 52.168C173.207 52.168 172.75 52.07 172.358 51.874C171.966 51.678 171.649 51.4027 171.406 51.048V55.08H169.614ZM173.352 50.6C173.921 50.6 174.393 50.4087 174.766 50.026C175.139 49.6433 175.326 49.1487 175.326 48.542C175.326 47.9353 175.139 47.436 174.766 47.044C174.393 46.652 173.921 46.456 173.352 46.456C172.773 46.456 172.297 46.652 171.924 47.044C171.56 47.4267 171.378 47.9213 171.378 48.528C171.378 49.1347 171.56 49.634 171.924 50.026C172.297 50.4087 172.773 50.6 173.352 50.6ZM181.567 52C180.839 52 180.256 51.8227 179.817 51.468C179.379 51.1133 179.159 50.4833 179.159 49.578V46.554H177.969V45.056H179.159L179.369 43.194H180.951V45.056H182.827V46.554H180.951V49.592C180.951 49.928 181.021 50.1613 181.161 50.292C181.311 50.4133 181.563 50.474 181.917 50.474H182.785V52H181.567Z" fill="#EB6079"/>
<path d="M261.28 34V24.2H264.626C265.774 24.2 266.717 24.4053 267.454 24.816C268.201 25.2173 268.751 25.7867 269.106 26.524C269.47 27.252 269.652 28.1107 269.652 29.1C269.652 30.0893 269.47 30.9527 269.106 31.69C268.751 32.418 268.201 32.9873 267.454 33.398C266.717 33.7993 265.774 34 264.626 34H261.28ZM263.072 32.46H264.542C265.363 32.46 266.012 32.3293 266.488 32.068C266.964 31.7973 267.305 31.4147 267.51 30.92C267.715 30.416 267.818 29.8093 267.818 29.1C267.818 28.4 267.715 27.798 267.51 27.294C267.305 26.79 266.964 26.4027 266.488 26.132C266.012 25.8613 265.363 25.726 264.542 25.726H263.072V32.46ZM274.565 34.168C273.865 34.168 273.245 34.0187 272.703 33.72C272.162 33.4213 271.737 33.0013 271.429 32.46C271.121 31.9187 270.967 31.2933 270.967 30.584C270.967 29.8653 271.117 29.226 271.415 28.666C271.723 28.106 272.143 27.672 272.675 27.364C273.217 27.0467 273.851 26.888 274.579 26.888C275.261 26.888 275.863 27.0373 276.385 27.336C276.908 27.6347 277.314 28.0453 277.603 28.568C277.902 29.0813 278.051 29.6553 278.051 30.29C278.051 30.3927 278.047 30.5 278.037 30.612C278.037 30.724 278.033 30.8407 278.023 30.962H272.745C272.783 31.5033 272.969 31.928 273.305 32.236C273.651 32.544 274.066 32.698 274.551 32.698C274.915 32.698 275.219 32.6187 275.461 32.46C275.713 32.292 275.9 32.0773 276.021 31.816H277.841C277.711 32.2547 277.491 32.656 277.183 33.02C276.885 33.3747 276.511 33.6547 276.063 33.86C275.625 34.0653 275.125 34.168 274.565 34.168ZM274.579 28.344C274.141 28.344 273.753 28.47 273.417 28.722C273.081 28.9647 272.867 29.338 272.773 29.842H276.231C276.203 29.3847 276.035 29.0207 275.727 28.75C275.419 28.4793 275.037 28.344 274.579 28.344ZM279.558 34V23.92H281.35V34H279.558ZM284.147 25.978C283.821 25.978 283.55 25.88 283.335 25.684C283.13 25.488 283.027 25.2407 283.027 24.942C283.027 24.6433 283.13 24.4007 283.335 24.214C283.55 24.018 283.821 23.92 284.147 23.92C284.474 23.92 284.74 24.018 284.945 24.214C285.16 24.4007 285.267 24.6433 285.267 24.942C285.267 25.2407 285.16 25.488 284.945 25.684C284.74 25.88 284.474 25.978 284.147 25.978ZM283.251 34V27.056H285.043V34H283.251ZM288.79 34L286.242 27.056H288.118L289.882 32.306L291.646 27.056H293.522L290.96 34H288.79ZM297.684 34.168C296.984 34.168 296.364 34.0187 295.822 33.72C295.281 33.4213 294.856 33.0013 294.548 32.46C294.24 31.9187 294.086 31.2933 294.086 30.584C294.086 29.8653 294.236 29.226 294.534 28.666C294.842 28.106 295.262 27.672 295.794 27.364C296.336 27.0467 296.97 26.888 297.698 26.888C298.38 26.888 298.982 27.0373 299.504 27.336C300.027 27.6347 300.433 28.0453 300.722 28.568C301.021 29.0813 301.17 29.6553 301.17 30.29C301.17 30.3927 301.166 30.5 301.156 30.612C301.156 30.724 301.152 30.8407 301.142 30.962H295.864C295.902 31.5033 296.088 31.928 296.424 32.236C296.77 32.544 297.185 32.698 297.67 32.698C298.034 32.698 298.338 32.6187 298.58 32.46C298.832 32.292 299.019 32.0773 299.14 31.816H300.96C300.83 32.2547 300.61 32.656 300.302 33.02C300.004 33.3747 299.63 33.6547 299.182 33.86C298.744 34.0653 298.244 34.168 297.684 34.168ZM297.698 28.344C297.26 28.344 296.872 28.47 296.536 28.722C296.2 28.9647 295.986 29.338 295.892 29.842H299.35C299.322 29.3847 299.154 29.0207 298.846 28.75C298.538 28.4793 298.156 28.344 297.698 28.344ZM302.678 34V27.056H304.274L304.442 28.358C304.694 27.91 305.034 27.5553 305.464 27.294C305.902 27.0233 306.416 26.888 307.004 26.888V28.778H306.5C306.108 28.778 305.758 28.8387 305.45 28.96C305.142 29.0813 304.899 29.2913 304.722 29.59C304.554 29.8887 304.47 30.304 304.47 30.836V34H302.678ZM309.096 37.08L310.706 33.538H310.286L307.584 27.056H309.53L311.476 31.942L313.506 27.056H315.41L311 37.08H309.096Z" fill="#EB6079"/>
<path d="M378.599 34.168C377.61 34.168 376.76 33.958 376.051 33.538C375.342 33.1087 374.796 32.516 374.413 31.76C374.03 30.9947 373.839 30.1127 373.839 29.114C373.839 28.1153 374.03 27.2333 374.413 26.468C374.796 25.7027 375.342 25.1053 376.051 24.676C376.76 24.2467 377.61 24.032 378.599 24.032C379.775 24.032 380.736 24.326 381.483 24.914C382.239 25.4927 382.71 26.3093 382.897 27.364H380.923C380.802 26.832 380.54 26.4167 380.139 26.118C379.747 25.81 379.224 25.656 378.571 25.656C377.666 25.656 376.956 25.964 376.443 26.58C375.93 27.196 375.673 28.0407 375.673 29.114C375.673 30.1873 375.93 31.032 376.443 31.648C376.956 32.2547 377.666 32.558 378.571 32.558C379.224 32.558 379.747 32.418 380.139 32.138C380.54 31.8487 380.802 31.452 380.923 30.948H382.897C382.71 31.956 382.239 32.7447 381.483 33.314C380.736 33.8833 379.775 34.168 378.599 34.168ZM386.835 34.168C386.238 34.168 385.748 34.0747 385.365 33.888C384.983 33.692 384.698 33.4353 384.511 33.118C384.325 32.8007 384.231 32.4507 384.231 32.068C384.231 31.424 384.483 30.9013 384.987 30.5C385.491 30.0987 386.247 29.898 387.255 29.898H389.019V29.73C389.019 29.254 388.884 28.904 388.613 28.68C388.343 28.456 388.007 28.344 387.605 28.344C387.241 28.344 386.924 28.4327 386.653 28.61C386.383 28.778 386.215 29.03 386.149 29.366H384.399C384.446 28.862 384.614 28.4233 384.903 28.05C385.202 27.6767 385.585 27.392 386.051 27.196C386.518 26.9907 387.041 26.888 387.619 26.888C388.609 26.888 389.388 27.1353 389.957 27.63C390.527 28.1247 390.811 28.8247 390.811 29.73V34H389.285L389.117 32.88C388.912 33.2533 388.623 33.5613 388.249 33.804C387.885 34.0467 387.414 34.168 386.835 34.168ZM387.241 32.768C387.755 32.768 388.151 32.6 388.431 32.264C388.721 31.928 388.903 31.5127 388.977 31.018H387.451C386.975 31.018 386.635 31.1067 386.429 31.284C386.224 31.452 386.121 31.662 386.121 31.914C386.121 32.1847 386.224 32.3947 386.429 32.544C386.635 32.6933 386.905 32.768 387.241 32.768ZM395.52 34C394.792 34 394.208 33.8227 393.77 33.468C393.331 33.1133 393.112 32.4833 393.112 31.578V28.554H391.922V27.056H393.112L393.322 25.194H394.904V27.056H396.78V28.554H394.904V31.592C394.904 31.928 394.974 32.1613 395.114 32.292C395.263 32.4133 395.515 32.474 395.87 32.474H396.738V34H395.52ZM401.514 34.168C400.814 34.168 400.194 34.0187 399.652 33.72C399.111 33.4213 398.686 33.0013 398.378 32.46C398.07 31.9187 397.916 31.2933 397.916 30.584C397.916 29.8653 398.066 29.226 398.364 28.666C398.672 28.106 399.092 27.672 399.624 27.364C400.166 27.0467 400.8 26.888 401.528 26.888C402.21 26.888 402.812 27.0373 403.334 27.336C403.857 27.6347 404.263 28.0453 404.552 28.568C404.851 29.0813 405 29.6553 405 30.29C405 30.3927 404.996 30.5 404.986 30.612C404.986 30.724 404.982 30.8407 404.972 30.962H399.694C399.732 31.5033 399.918 31.928 400.254 32.236C400.6 32.544 401.015 32.698 401.5 32.698C401.864 32.698 402.168 32.6187 402.41 32.46C402.662 32.292 402.849 32.0773 402.97 31.816H404.79C404.66 32.2547 404.44 32.656 404.132 33.02C403.834 33.3747 403.46 33.6547 403.012 33.86C402.574 34.0653 402.074 34.168 401.514 34.168ZM401.528 28.344C401.09 28.344 400.702 28.47 400.366 28.722C400.03 28.9647 399.816 29.338 399.722 29.842H403.18C403.152 29.3847 402.984 29.0207 402.676 28.75C402.368 28.4793 401.986 28.344 401.528 28.344ZM409.297 31.928C408.961 31.928 408.649 31.8907 408.359 31.816L407.841 32.334C408 32.418 408.215 32.488 408.485 32.544C408.756 32.6 409.195 32.656 409.801 32.712C410.725 32.796 411.397 33.0153 411.817 33.37C412.237 33.7247 412.447 34.2147 412.447 34.84C412.447 35.2507 412.335 35.638 412.111 36.002C411.887 36.3753 411.542 36.674 411.075 36.898C410.609 37.1313 410.011 37.248 409.283 37.248C408.294 37.248 407.496 37.0613 406.889 36.688C406.283 36.324 405.979 35.7733 405.979 35.036C405.979 34.4107 406.283 33.8693 406.889 33.412C406.703 33.328 406.539 33.2393 406.399 33.146C406.269 33.0527 406.152 32.9547 406.049 32.852V32.53L407.267 31.242C406.726 30.766 406.455 30.1547 406.455 29.408C406.455 28.9413 406.567 28.5167 406.791 28.134C407.025 27.7513 407.351 27.448 407.771 27.224C408.191 27 408.7 26.888 409.297 26.888C409.689 26.888 410.053 26.944 410.389 27.056H413.021V28.148L411.831 28.232C412.018 28.5867 412.111 28.9787 412.111 29.408C412.111 29.8747 411.999 30.2993 411.775 30.682C411.551 31.0647 411.225 31.368 410.795 31.592C410.375 31.816 409.876 31.928 409.297 31.928ZM409.297 30.556C409.661 30.556 409.96 30.458 410.193 30.262C410.436 30.066 410.557 29.786 410.557 29.422C410.557 29.058 410.436 28.778 410.193 28.582C409.96 28.386 409.661 28.288 409.297 28.288C408.915 28.288 408.607 28.386 408.373 28.582C408.14 28.778 408.023 29.058 408.023 29.422C408.023 29.786 408.14 30.066 408.373 30.262C408.607 30.458 408.915 30.556 409.297 30.556ZM407.617 34.854C407.617 35.1993 407.776 35.456 408.093 35.624C408.42 35.8013 408.817 35.89 409.283 35.89C409.731 35.89 410.095 35.7967 410.375 35.61C410.655 35.4327 410.795 35.19 410.795 34.882C410.795 34.63 410.702 34.42 410.515 34.252C410.338 34.084 409.979 33.9813 409.437 33.944C409.055 33.916 408.7 33.874 408.373 33.818C408.103 33.9673 407.907 34.1307 407.785 34.308C407.673 34.4853 407.617 34.6673 407.617 34.854ZM417.387 34.168C416.715 34.168 416.108 34.014 415.567 33.706C415.035 33.398 414.61 32.9733 414.293 32.432C413.985 31.8813 413.831 31.2467 413.831 30.528C413.831 29.8093 413.989 29.1793 414.307 28.638C414.624 28.0873 415.049 27.658 415.581 27.35C416.122 27.042 416.729 26.888 417.401 26.888C418.063 26.888 418.661 27.042 419.193 27.35C419.734 27.658 420.159 28.0873 420.467 28.638C420.784 29.1793 420.943 29.8093 420.943 30.528C420.943 31.2467 420.784 31.8813 420.467 32.432C420.159 32.9733 419.734 33.398 419.193 33.706C418.651 34.014 418.049 34.168 417.387 34.168ZM417.387 32.614C417.853 32.614 418.259 32.4413 418.605 32.096C418.95 31.7413 419.123 31.2187 419.123 30.528C419.123 29.8373 418.95 29.3193 418.605 28.974C418.259 28.6193 417.858 28.442 417.401 28.442C416.925 28.442 416.514 28.6193 416.169 28.974C415.833 29.3193 415.665 29.8373 415.665 30.528C415.665 31.2187 415.833 31.7413 416.169 32.096C416.514 32.4413 416.92 32.614 417.387 32.614ZM422.545 34V27.056H424.141L424.309 28.358C424.561 27.91 424.901 27.5553 425.331 27.294C425.769 27.0233 426.283 26.888 426.871 26.888V28.778H426.367C425.975 28.778 425.625 28.8387 425.317 28.96C425.009 29.0813 424.766 29.2913 424.589 29.59C424.421 29.8887 424.337 30.304 424.337 30.836V34H422.545ZM429.062 25.978C428.735 25.978 428.464 25.88 428.25 25.684C428.044 25.488 427.942 25.2407 427.942 24.942C427.942 24.6433 428.044 24.4007 428.25 24.214C428.464 24.018 428.735 23.92 429.062 23.92C429.388 23.92 429.654 24.018 429.86 24.214C430.074 24.4007 430.182 24.6433 430.182 24.942C430.182 25.2407 430.074 25.488 429.86 25.684C429.654 25.88 429.388 25.978 429.062 25.978ZM428.166 34V27.056H429.958V34H428.166ZM435.202 34.168C434.502 34.168 433.881 34.0187 433.34 33.72C432.799 33.4213 432.374 33.0013 432.066 32.46C431.758 31.9187 431.604 31.2933 431.604 30.584C431.604 29.8653 431.753 29.226 432.052 28.666C432.36 28.106 432.78 27.672 433.312 27.364C433.853 27.0467 434.488 26.888 435.216 26.888C435.897 26.888 436.499 27.0373 437.022 27.336C437.545 27.6347 437.951 28.0453 438.24 28.568C438.539 29.0813 438.688 29.6553 438.688 30.29C438.688 30.3927 438.683 30.5 438.674 30.612C438.674 30.724 438.669 30.8407 438.66 30.962H433.382C433.419 31.5033 433.606 31.928 433.942 32.236C434.287 32.544 434.703 32.698 435.188 32.698C435.552 32.698 435.855 32.6187 436.098 32.46C436.35 32.292 436.537 32.0773 436.658 31.816H438.478C438.347 32.2547 438.128 32.656 437.82 33.02C437.521 33.3747 437.148 33.6547 436.7 33.86C436.261 34.0653 435.762 34.168 435.202 34.168ZM435.216 28.344C434.777 28.344 434.39 28.47 434.054 28.722C433.718 28.9647 433.503 29.338 433.41 29.842H436.868C436.84 29.3847 436.672 29.0207 436.364 28.75C436.056 28.4793 435.673 28.344 435.216 28.344ZM443.065 34.168C442.449 34.168 441.908 34.07 441.441 33.874C440.974 33.6687 440.601 33.3887 440.321 33.034C440.041 32.6793 439.873 32.2687 439.817 31.802H441.623C441.679 32.0727 441.828 32.306 442.071 32.502C442.323 32.6887 442.645 32.782 443.037 32.782C443.429 32.782 443.714 32.7027 443.891 32.544C444.078 32.3853 444.171 32.2033 444.171 31.998C444.171 31.6993 444.04 31.4987 443.779 31.396C443.518 31.284 443.154 31.1767 442.687 31.074C442.388 31.0087 442.085 30.9293 441.777 30.836C441.469 30.7427 441.184 30.626 440.923 30.486C440.671 30.3367 440.466 30.15 440.307 29.926C440.148 29.6927 440.069 29.408 440.069 29.072C440.069 28.456 440.312 27.938 440.797 27.518C441.292 27.098 441.982 26.888 442.869 26.888C443.69 26.888 444.344 27.0793 444.829 27.462C445.324 27.8447 445.618 28.372 445.711 29.044H444.017C443.914 28.5307 443.527 28.274 442.855 28.274C442.519 28.274 442.258 28.3393 442.071 28.47C441.894 28.6007 441.805 28.764 441.805 28.96C441.805 29.1653 441.94 29.3287 442.211 29.45C442.482 29.5713 442.841 29.6833 443.289 29.786C443.774 29.898 444.218 30.024 444.619 30.164C445.03 30.2947 445.356 30.4953 445.599 30.766C445.842 31.0273 445.963 31.4053 445.963 31.9C445.972 32.3293 445.86 32.7167 445.627 33.062C445.394 33.4073 445.058 33.678 444.619 33.874C444.18 34.07 443.662 34.168 443.065 34.168ZM454.065 34.154C453.346 34.154 452.721 34.0327 452.189 33.79C451.657 33.538 451.241 33.188 450.943 32.74C450.653 32.292 450.509 31.7693 450.509 31.172C450.509 30.5373 450.686 29.9633 451.041 29.45C451.395 28.9367 451.923 28.526 452.623 28.218C452.343 27.8913 452.142 27.5833 452.021 27.294C451.899 27.0047 451.839 26.6967 451.839 26.37C451.839 25.922 451.951 25.5253 452.175 25.18C452.399 24.8253 452.716 24.5453 453.127 24.34C453.547 24.1347 454.046 24.032 454.625 24.032C455.213 24.032 455.712 24.1393 456.123 24.354C456.533 24.5687 456.841 24.858 457.047 25.222C457.261 25.586 457.359 25.992 457.341 26.44H455.633C455.633 26.0947 455.53 25.838 455.325 25.67C455.129 25.4927 454.891 25.404 454.611 25.404C454.293 25.404 454.037 25.4927 453.841 25.67C453.654 25.8473 453.561 26.076 453.561 26.356C453.561 26.5893 453.635 26.8273 453.785 27.07C453.934 27.3127 454.153 27.5927 454.443 27.91L457.187 30.626C457.383 30.3087 457.588 29.94 457.803 29.52L458.111 28.904H459.945L459.455 29.856C459.081 30.612 458.708 31.2513 458.335 31.774L460.589 34H458.447L457.355 32.908C456.879 33.3467 456.37 33.664 455.829 33.86C455.297 34.056 454.709 34.154 454.065 34.154ZM452.245 31.06C452.245 31.5173 452.413 31.9047 452.749 32.222C453.094 32.53 453.551 32.684 454.121 32.684C454.933 32.684 455.637 32.3947 456.235 31.816L453.645 29.254C453.169 29.4593 452.814 29.716 452.581 30.024C452.357 30.332 452.245 30.6773 452.245 31.06ZM387.142 52V42.2H390.768C391.552 42.2 392.201 42.3307 392.714 42.592C393.228 42.8533 393.61 43.2127 393.862 43.67C394.114 44.1273 394.24 44.6407 394.24 45.21C394.24 45.7513 394.119 46.2507 393.876 46.708C393.634 47.156 393.256 47.52 392.742 47.8C392.229 48.0707 391.571 48.206 390.768 48.206H388.934V52H387.142ZM388.934 46.75H390.656C391.282 46.75 391.73 46.6147 392 46.344C392.28 46.064 392.42 45.686 392.42 45.21C392.42 44.7247 392.28 44.3467 392 44.076C391.73 43.796 391.282 43.656 390.656 43.656H388.934V46.75ZM395.604 52V45.056H397.2L397.368 46.358C397.62 45.91 397.961 45.5553 398.39 45.294C398.829 45.0233 399.342 44.888 399.93 44.888V46.778H399.426C399.034 46.778 398.684 46.8387 398.376 46.96C398.068 47.0813 397.826 47.2913 397.648 47.59C397.48 47.8887 397.396 48.304 397.396 48.836V52H395.604ZM404.364 52.168C403.692 52.168 403.085 52.014 402.544 51.706C402.012 51.398 401.587 50.9733 401.27 50.432C400.962 49.8813 400.808 49.2467 400.808 48.528C400.808 47.8093 400.967 47.1793 401.284 46.638C401.601 46.0873 402.026 45.658 402.558 45.35C403.099 45.042 403.706 44.888 404.378 44.888C405.041 44.888 405.638 45.042 406.17 45.35C406.711 45.658 407.136 46.0873 407.444 46.638C407.761 47.1793 407.92 47.8093 407.92 48.528C407.92 49.2467 407.761 49.8813 407.444 50.432C407.136 50.9733 406.711 51.398 406.17 51.706C405.629 52.014 405.027 52.168 404.364 52.168ZM404.364 50.614C404.831 50.614 405.237 50.4413 405.582 50.096C405.927 49.7413 406.1 49.2187 406.1 48.528C406.1 47.8373 405.927 47.3193 405.582 46.974C405.237 46.6193 404.835 46.442 404.378 46.442C403.902 46.442 403.491 46.6193 403.146 46.974C402.81 47.3193 402.642 47.8373 402.642 48.528C402.642 49.2187 402.81 49.7413 403.146 50.096C403.491 50.4413 403.897 50.614 404.364 50.614ZM412.714 52.168C412.061 52.168 411.478 52.0093 410.964 51.692C410.451 51.3747 410.045 50.9407 409.746 50.39C409.448 49.8393 409.298 49.214 409.298 48.514C409.298 47.814 409.448 47.1933 409.746 46.652C410.045 46.1013 410.451 45.672 410.964 45.364C411.478 45.0467 412.061 44.888 412.714 44.888C413.237 44.888 413.694 44.986 414.086 45.182C414.478 45.378 414.796 45.6533 415.038 46.008V41.92H416.83V52H415.234L415.038 51.006C414.814 51.314 414.516 51.5847 414.142 51.818C413.778 52.0513 413.302 52.168 412.714 52.168ZM413.092 50.6C413.671 50.6 414.142 50.4087 414.506 50.026C414.88 49.634 415.066 49.1347 415.066 48.528C415.066 47.9213 414.88 47.4267 414.506 47.044C414.142 46.652 413.671 46.456 413.092 46.456C412.523 46.456 412.052 46.6473 411.678 47.03C411.305 47.4127 411.118 47.9073 411.118 48.514C411.118 49.1207 411.305 49.62 411.678 50.012C412.052 50.404 412.523 50.6 413.092 50.6ZM421.259 52.168C420.391 52.168 419.719 51.8973 419.243 51.356C418.776 50.8147 418.543 50.0213 418.543 48.976V45.056H420.321V48.808C420.321 49.4053 420.442 49.8627 420.685 50.18C420.928 50.4973 421.31 50.656 421.833 50.656C422.328 50.656 422.734 50.4787 423.051 50.124C423.378 49.7693 423.541 49.2747 423.541 48.64V45.056H425.333V52H423.751L423.611 50.824C423.396 51.2347 423.084 51.5613 422.673 51.804C422.272 52.0467 421.8 52.168 421.259 52.168ZM430.575 52.168C429.865 52.168 429.24 52.014 428.699 51.706C428.157 51.398 427.728 50.9687 427.411 50.418C427.103 49.8673 426.949 49.2373 426.949 48.528C426.949 47.8187 427.103 47.1887 427.411 46.638C427.728 46.0873 428.157 45.658 428.699 45.35C429.24 45.042 429.865 44.888 430.575 44.888C431.461 44.888 432.208 45.1213 432.815 45.588C433.421 46.0453 433.809 46.68 433.977 47.492H432.087C431.993 47.156 431.807 46.8947 431.527 46.708C431.256 46.512 430.934 46.414 430.561 46.414C430.066 46.414 429.646 46.6007 429.301 46.974C428.955 47.3473 428.783 47.8653 428.783 48.528C428.783 49.1907 428.955 49.7087 429.301 50.082C429.646 50.4553 430.066 50.642 430.561 50.642C430.934 50.642 431.256 50.5487 431.527 50.362C431.807 50.1753 431.993 49.9093 432.087 49.564H433.977C433.809 50.348 433.421 50.978 432.815 51.454C432.208 51.93 431.461 52.168 430.575 52.168ZM438.566 52C437.838 52 437.254 51.8227 436.816 51.468C436.377 51.1133 436.158 50.4833 436.158 49.578V46.554H434.968V45.056H436.158L436.368 43.194H437.95V45.056H439.826V46.554H437.95V49.592C437.95 49.928 438.02 50.1613 438.16 50.292C438.309 50.4133 438.561 50.474 438.916 50.474H439.784V52H438.566ZM444.234 52.168C443.618 52.168 443.077 52.07 442.61 51.874C442.143 51.6687 441.77 51.3887 441.49 51.034C441.21 50.6793 441.042 50.2687 440.986 49.802H442.792C442.848 50.0727 442.997 50.306 443.24 50.502C443.492 50.6887 443.814 50.782 444.206 50.782C444.598 50.782 444.883 50.7027 445.06 50.544C445.247 50.3853 445.34 50.2033 445.34 49.998C445.34 49.6993 445.209 49.4987 444.948 49.396C444.687 49.284 444.323 49.1767 443.856 49.074C443.557 49.0087 443.254 48.9293 442.946 48.836C442.638 48.7427 442.353 48.626 442.092 48.486C441.84 48.3367 441.635 48.15 441.476 47.926C441.317 47.6927 441.238 47.408 441.238 47.072C441.238 46.456 441.481 45.938 441.966 45.518C442.461 45.098 443.151 44.888 444.038 44.888C444.859 44.888 445.513 45.0793 445.998 45.462C446.493 45.8447 446.787 46.372 446.88 47.044H445.186C445.083 46.5307 444.696 46.274 444.024 46.274C443.688 46.274 443.427 46.3393 443.24 46.47C443.063 46.6007 442.974 46.764 442.974 46.96C442.974 47.1653 443.109 47.3287 443.38 47.45C443.651 47.5713 444.01 47.6833 444.458 47.786C444.943 47.898 445.387 48.024 445.788 48.164C446.199 48.2947 446.525 48.4953 446.768 48.766C447.011 49.0273 447.132 49.4053 447.132 49.9C447.141 50.3293 447.029 50.7167 446.796 51.062C446.563 51.4073 446.227 51.678 445.788 51.874C445.349 52.07 444.831 52.168 444.234 52.168Z" fill="#EB6079"/>
<path d="M518.759 34.168C518.04 34.168 517.406 34.0467 516.855 33.804C516.304 33.552 515.87 33.1973 515.553 32.74C515.236 32.2733 515.072 31.7087 515.063 31.046H516.953C516.972 31.5033 517.135 31.8907 517.443 32.208C517.76 32.516 518.194 32.67 518.745 32.67C519.221 32.67 519.599 32.558 519.879 32.334C520.159 32.1007 520.299 31.7927 520.299 31.41C520.299 31.0087 520.173 30.696 519.921 30.472C519.678 30.248 519.352 30.066 518.941 29.926C518.53 29.786 518.092 29.6367 517.625 29.478C516.869 29.2167 516.29 28.8807 515.889 28.47C515.497 28.0593 515.301 27.5133 515.301 26.832C515.292 26.2533 515.427 25.7587 515.707 25.348C515.996 24.928 516.388 24.606 516.883 24.382C517.378 24.1487 517.947 24.032 518.591 24.032C519.244 24.032 519.818 24.1487 520.313 24.382C520.817 24.6153 521.209 24.942 521.489 25.362C521.778 25.782 521.932 26.2813 521.951 26.86H520.033C520.024 26.5147 519.888 26.2113 519.627 25.95C519.375 25.6793 519.02 25.544 518.563 25.544C518.171 25.5347 517.84 25.6327 517.569 25.838C517.308 26.034 517.177 26.3233 517.177 26.706C517.177 27.0327 517.28 27.294 517.485 27.49C517.69 27.6767 517.97 27.8353 518.325 27.966C518.68 28.0967 519.086 28.2367 519.543 28.386C520.028 28.554 520.472 28.75 520.873 28.974C521.274 29.198 521.596 29.4967 521.839 29.87C522.082 30.234 522.203 30.7053 522.203 31.284C522.203 31.7973 522.072 32.2733 521.811 32.712C521.55 33.1507 521.162 33.5053 520.649 33.776C520.136 34.0373 519.506 34.168 518.759 34.168ZM526.328 34.168C525.46 34.168 524.788 33.8973 524.312 33.356C523.846 32.8147 523.612 32.0213 523.612 30.976V27.056H525.39V30.808C525.39 31.4053 525.512 31.8627 525.754 32.18C525.997 32.4973 526.38 32.656 526.902 32.656C527.397 32.656 527.803 32.4787 528.12 32.124C528.447 31.7693 528.61 31.2747 528.61 30.64V27.056H530.402V34H528.82L528.68 32.824C528.466 33.2347 528.153 33.5613 527.742 33.804C527.341 34.0467 526.87 34.168 526.328 34.168ZM532.242 34V27.056H533.824L533.978 27.994C534.202 27.658 534.496 27.392 534.86 27.196C535.233 26.9907 535.663 26.888 536.148 26.888C537.221 26.888 537.982 27.3033 538.43 28.134C538.682 27.7513 539.018 27.448 539.438 27.224C539.867 27 540.334 26.888 540.838 26.888C541.743 26.888 542.439 27.1587 542.924 27.7C543.409 28.2413 543.652 29.0347 543.652 30.08V34H541.86V30.248C541.86 29.6507 541.743 29.1933 541.51 28.876C541.286 28.5587 540.936 28.4 540.46 28.4C539.975 28.4 539.583 28.5773 539.284 28.932C538.995 29.2867 538.85 29.7813 538.85 30.416V34H537.058V30.248C537.058 29.6507 536.941 29.1933 536.708 28.876C536.475 28.5587 536.115 28.4 535.63 28.4C535.154 28.4 534.767 28.5773 534.468 28.932C534.179 29.2867 534.034 29.7813 534.034 30.416V34H532.242ZM545.353 34V27.056H546.935L547.089 27.994C547.313 27.658 547.607 27.392 547.971 27.196C548.345 26.9907 548.774 26.888 549.259 26.888C550.333 26.888 551.093 27.3033 551.541 28.134C551.793 27.7513 552.129 27.448 552.549 27.224C552.979 27 553.445 26.888 553.949 26.888C554.855 26.888 555.55 27.1587 556.035 27.7C556.521 28.2413 556.763 29.0347 556.763 30.08V34H554.971V30.248C554.971 29.6507 554.855 29.1933 554.621 28.876C554.397 28.5587 554.047 28.4 553.571 28.4C553.086 28.4 552.694 28.5773 552.395 28.932C552.106 29.2867 551.961 29.7813 551.961 30.416V34H550.169V30.248C550.169 29.6507 550.053 29.1933 549.819 28.876C549.586 28.5587 549.227 28.4 548.741 28.4C548.265 28.4 547.878 28.5773 547.579 28.932C547.29 29.2867 547.145 29.7813 547.145 30.416V34H545.353ZM560.859 34.168C560.261 34.168 559.771 34.0747 559.389 33.888C559.006 33.692 558.721 33.4353 558.535 33.118C558.348 32.8007 558.255 32.4507 558.255 32.068C558.255 31.424 558.507 30.9013 559.011 30.5C559.515 30.0987 560.271 29.898 561.279 29.898H563.043V29.73C563.043 29.254 562.907 28.904 562.637 28.68C562.366 28.456 562.03 28.344 561.629 28.344C561.265 28.344 560.947 28.4327 560.677 28.61C560.406 28.778 560.238 29.03 560.173 29.366H558.423C558.469 28.862 558.637 28.4233 558.927 28.05C559.225 27.6767 559.608 27.392 560.075 27.196C560.541 26.9907 561.064 26.888 561.643 26.888C562.632 26.888 563.411 27.1353 563.981 27.63C564.55 28.1247 564.835 28.8247 564.835 29.73V34H563.309L563.141 32.88C562.935 33.2533 562.646 33.5613 562.273 33.804C561.909 34.0467 561.437 34.168 560.859 34.168ZM561.265 32.768C561.778 32.768 562.175 32.6 562.455 32.264C562.744 31.928 562.926 31.5127 563.001 31.018H561.475C560.999 31.018 560.658 31.1067 560.453 31.284C560.247 31.452 560.145 31.662 560.145 31.914C560.145 32.1847 560.247 32.3947 560.453 32.544C560.658 32.6933 560.929 32.768 561.265 32.768ZM566.545 34V27.056H568.141L568.309 28.358C568.561 27.91 568.901 27.5553 569.331 27.294C569.769 27.0233 570.283 26.888 570.871 26.888V28.778H570.367C569.975 28.778 569.625 28.8387 569.317 28.96C569.009 29.0813 568.766 29.2913 568.589 29.59C568.421 29.8887 568.337 30.304 568.337 30.836V34H566.545ZM572.964 37.08L574.574 33.538H574.154L571.452 27.056H573.398L575.344 31.942L577.374 27.056H579.278L574.868 37.08H572.964Z" fill="#EB6079"/>
<circle cx="28" cy="6" r="6" fill="#EB6079"/>
<line x1="42" y1="5.5" x2="142" y2="5.5" stroke="#EB6079" stroke-width="3"/>
<circle cx="158" cy="6" r="6" fill="#EB6079"/>
<line x1="172" y1="5.5" x2="272" y2="5.5" stroke="#EB6079" stroke-width="3"/>
<circle cx="288" cy="6" r="6" fill="#EB6079"/>
<line x1="302" y1="5.5" x2="402" y2="5.5" stroke="#EB6079" stroke-width="3"/>
<circle cx="418" cy="6" r="6" fill="#EB6079"/>
<line x1="432" y1="5.5" x2="532" y2="5.5" stroke="#EB6079" stroke-width="3"/>
<circle cx="548" cy="6" r="6" fill="#EB6079"/>
</svg>
