<svg width="578" height="56" viewBox="0 0 578 56" fill="none" xmlns="http://www.w3.org/2000/svg">
<path d="M5.56901 34.168C4.64501 34.168 3.83767 33.958 3.14701 33.538C2.45634 33.118 1.91967 32.5347 1.53701 31.788C1.15434 31.032 0.963008 30.1547 0.963008 29.156C0.963008 28.148 1.15901 27.2613 1.55101 26.496C1.95234 25.7213 2.51701 25.1193 3.24501 24.69C3.98234 24.2513 4.85501 24.032 5.86301 24.032C7.01101 24.032 7.96301 24.3073 8.71901 24.858C9.47501 25.4087 9.96501 26.1693 10.189 27.14H8.18701C8.03767 26.6827 7.76701 26.328 7.37501 26.076C6.98301 25.8147 6.47901 25.684 5.86301 25.684C4.88301 25.684 4.12701 25.9967 3.59501 26.622C3.06301 27.238 2.79701 28.0873 2.79701 29.17C2.79701 30.2527 3.05834 31.0927 3.58101 31.69C4.11301 32.278 4.83167 32.572 5.73701 32.572C6.62367 32.572 7.29101 32.334 7.73901 31.858C8.19634 31.3727 8.47167 30.738 8.56501 29.954H6.08701V28.61H10.371V34H8.71901L8.57901 32.712C8.26167 33.1787 7.86501 33.538 7.38901 33.79C6.91301 34.042 6.30634 34.168 5.56901 34.168ZM15.4451 34.168C14.7451 34.168 14.1245 34.0187 13.5831 33.72C13.0418 33.4213 12.6171 33.0013 12.3091 32.46C12.0011 31.9187 11.8471 31.2933 11.8471 30.584C11.8471 29.8653 11.9965 29.226 12.2951 28.666C12.6031 28.106 13.0231 27.672 13.5551 27.364C14.0965 27.0467 14.7311 26.888 15.4591 26.888C16.1405 26.888 16.7425 27.0373 17.2651 27.336C17.7878 27.6347 18.1938 28.0453 18.4831 28.568C18.7818 29.0813 18.9311 29.6553 18.9311 30.29C18.9311 30.3927 18.9265 30.5 18.9171 30.612C18.9171 30.724 18.9125 30.8407 18.9031 30.962H13.6251C13.6625 31.5033 13.8491 31.928 14.1851 32.236C14.5305 32.544 14.9458 32.698 15.4311 32.698C15.7951 32.698 16.0985 32.6187 16.3411 32.46C16.5931 32.292 16.7798 32.0773 16.9011 31.816H18.7211C18.5905 32.2547 18.3711 32.656 18.0631 33.02C17.7645 33.3747 17.3911 33.6547 16.9431 33.86C16.5045 34.0653 16.0051 34.168 15.4451 34.168ZM15.4591 28.344C15.0205 28.344 14.6331 28.47 14.2971 28.722C13.9611 28.9647 13.7465 29.338 13.6531 29.842H17.1111C17.0831 29.3847 16.9151 29.0207 16.6071 28.75C16.2991 28.4793 15.9165 28.344 15.4591 28.344ZM20.4383 34V27.056H22.0203L22.1603 28.232C22.375 27.8213 22.683 27.4947 23.0843 27.252C23.495 27.0093 23.9757 26.888 24.5263 26.888C25.385 26.888 26.0523 27.1587 26.5283 27.7C27.0043 28.2413 27.2423 29.0347 27.2423 30.08V34H25.4503V30.248C25.4503 29.6507 25.329 29.1933 25.0863 28.876C24.8437 28.5587 24.4657 28.4 23.9523 28.4C23.4483 28.4 23.033 28.5773 22.7063 28.932C22.389 29.2867 22.2303 29.7813 22.2303 30.416V34H20.4383ZM32.3299 34.168C31.6299 34.168 31.0092 34.0187 30.4679 33.72C29.9266 33.4213 29.5019 33.0013 29.1939 32.46C28.8859 31.9187 28.7319 31.2933 28.7319 30.584C28.7319 29.8653 28.8812 29.226 29.1799 28.666C29.4879 28.106 29.9079 27.672 30.4399 27.364C30.9812 27.0467 31.6159 26.888 32.3439 26.888C33.0252 26.888 33.6272 27.0373 34.1499 27.336C34.6726 27.6347 35.0786 28.0453 35.3679 28.568C35.6666 29.0813 35.8159 29.6553 35.8159 30.29C35.8159 30.3927 35.8112 30.5 35.8019 30.612C35.8019 30.724 35.7972 30.8407 35.7879 30.962H30.5099C30.5472 31.5033 30.7339 31.928 31.0699 32.236C31.4152 32.544 31.8306 32.698 32.3159 32.698C32.6799 32.698 32.9832 32.6187 33.2259 32.46C33.4779 32.292 33.6646 32.0773 33.7859 31.816H35.6059C35.4752 32.2547 35.2559 32.656 34.9479 33.02C34.6492 33.3747 34.2759 33.6547 33.8279 33.86C33.3892 34.0653 32.8899 34.168 32.3299 34.168ZM32.3439 28.344C31.9052 28.344 31.5179 28.47 31.1819 28.722C30.8459 28.9647 30.6312 29.338 30.5379 29.842H33.9959C33.9679 29.3847 33.7999 29.0207 33.4919 28.75C33.1839 28.4793 32.8012 28.344 32.3439 28.344ZM37.3231 34V27.056H38.9191L39.0871 28.358C39.3391 27.91 39.6798 27.5553 40.1091 27.294C40.5478 27.0233 41.0611 26.888 41.6491 26.888V28.778H41.1451C40.7531 28.778 40.4031 28.8387 40.0951 28.96C39.7871 29.0813 39.5444 29.2913 39.3671 29.59C39.1991 29.8887 39.1151 30.304 39.1151 30.836V34H37.3231ZM45.2679 34.168C44.6705 34.168 44.1805 34.0747 43.7979 33.888C43.4152 33.692 43.1305 33.4353 42.9439 33.118C42.7572 32.8007 42.6639 32.4507 42.6639 32.068C42.6639 31.424 42.9159 30.9013 43.4199 30.5C43.9239 30.0987 44.6799 29.898 45.6879 29.898H47.4519V29.73C47.4519 29.254 47.3165 28.904 47.0459 28.68C46.7752 28.456 46.4392 28.344 46.0379 28.344C45.6739 28.344 45.3565 28.4327 45.0859 28.61C44.8152 28.778 44.6472 29.03 44.5819 29.366H42.8319C42.8785 28.862 43.0465 28.4233 43.3359 28.05C43.6345 27.6767 44.0172 27.392 44.4839 27.196C44.9505 26.9907 45.4732 26.888 46.0519 26.888C47.0412 26.888 47.8205 27.1353 48.3899 27.63C48.9592 28.1247 49.2439 28.8247 49.2439 29.73V34H47.7179L47.5499 32.88C47.3445 33.2533 47.0552 33.5613 46.6819 33.804C46.3179 34.0467 45.8465 34.168 45.2679 34.168ZM45.6739 32.768C46.1872 32.768 46.5839 32.6 46.8639 32.264C47.1532 31.928 47.3352 31.5127 47.4099 31.018H45.8839C45.4079 31.018 45.0672 31.1067 44.8619 31.284C44.6565 31.452 44.5539 31.662 44.5539 31.914C44.5539 32.1847 44.6565 32.3947 44.8619 32.544C45.0672 32.6933 45.3379 32.768 45.6739 32.768ZM50.9539 34V23.92H52.7459V34H50.9539Z" fill="#EB6079"/>
<path d="M123.133 34V24.2H126.353C127.118 24.2 127.748 24.326 128.243 24.578C128.737 24.83 129.101 25.1707 129.335 25.6C129.577 26.0293 129.699 26.5147 129.699 27.056C129.699 27.588 129.582 28.0687 129.349 28.498C129.115 28.9273 128.751 29.2727 128.257 29.534C127.762 29.786 127.127 29.912 126.353 29.912H124.309V34H123.133ZM124.309 28.918H126.325C127.109 28.918 127.664 28.7547 127.991 28.428C128.327 28.092 128.495 27.6347 128.495 27.056C128.495 26.468 128.327 26.0107 127.991 25.684C127.664 25.348 127.109 25.18 126.325 25.18H124.309V28.918ZM133.152 34.168C132.573 34.168 132.093 34.07 131.71 33.874C131.327 33.678 131.043 33.4167 130.856 33.09C130.669 32.7633 130.576 32.4087 130.576 32.026C130.576 31.3167 130.847 30.7707 131.388 30.388C131.929 30.0053 132.667 29.814 133.6 29.814H135.476V29.73C135.476 29.1233 135.317 28.666 135 28.358C134.683 28.0407 134.258 27.882 133.726 27.882C133.269 27.882 132.872 27.9987 132.536 28.232C132.209 28.456 132.004 28.7873 131.92 29.226H130.716C130.763 28.722 130.931 28.2973 131.22 27.952C131.519 27.6067 131.887 27.3453 132.326 27.168C132.765 26.9813 133.231 26.888 133.726 26.888C134.697 26.888 135.425 27.1493 135.91 27.672C136.405 28.1853 136.652 28.8713 136.652 29.73V34H135.602L135.532 32.754C135.336 33.146 135.047 33.482 134.664 33.762C134.291 34.0327 133.787 34.168 133.152 34.168ZM133.334 33.174C133.782 33.174 134.165 33.0573 134.482 32.824C134.809 32.5907 135.056 32.2873 135.224 31.914C135.392 31.5407 135.476 31.1487 135.476 30.738V30.724H133.698C133.007 30.724 132.517 30.8453 132.228 31.088C131.948 31.3213 131.808 31.6153 131.808 31.97C131.808 32.334 131.939 32.628 132.2 32.852C132.471 33.0667 132.849 33.174 133.334 33.174ZM138.967 37.08L140.689 33.328H140.283L137.525 27.056H138.799L141.095 32.46L143.531 27.056H144.749L140.199 37.08H138.967ZM145.99 34V27.056H147.054L147.138 28.064C147.362 27.6907 147.661 27.4013 148.034 27.196C148.408 26.9907 148.828 26.888 149.294 26.888C149.845 26.888 150.316 27 150.708 27.224C151.11 27.448 151.418 27.7887 151.632 28.246C151.875 27.826 152.206 27.4947 152.626 27.252C153.056 27.0093 153.518 26.888 154.012 26.888C154.843 26.888 155.506 27.14 156 27.644C156.495 28.1387 156.742 28.904 156.742 29.94V34H155.58V30.066C155.58 29.3473 155.436 28.806 155.146 28.442C154.857 28.078 154.442 27.896 153.9 27.896C153.34 27.896 152.874 28.1153 152.5 28.554C152.136 28.9833 151.954 29.5993 151.954 30.402V34H150.778V30.066C150.778 29.3473 150.634 28.806 150.344 28.442C150.055 28.078 149.64 27.896 149.098 27.896C148.548 27.896 148.086 28.1153 147.712 28.554C147.348 28.9833 147.166 29.5993 147.166 30.402V34H145.99ZM161.636 34.168C160.973 34.168 160.385 34.0187 159.872 33.72C159.359 33.412 158.953 32.9873 158.654 32.446C158.365 31.9047 158.22 31.2653 158.22 30.528C158.22 29.8 158.365 29.1653 158.654 28.624C158.943 28.0733 159.345 27.6487 159.858 27.35C160.381 27.042 160.983 26.888 161.664 26.888C162.336 26.888 162.915 27.042 163.4 27.35C163.895 27.6487 164.273 28.0453 164.534 28.54C164.795 29.0347 164.926 29.5667 164.926 30.136C164.926 30.2387 164.921 30.3413 164.912 30.444C164.912 30.5467 164.912 30.6633 164.912 30.794H159.382C159.41 31.326 159.531 31.7693 159.746 32.124C159.97 32.4693 160.245 32.7307 160.572 32.908C160.908 33.0853 161.263 33.174 161.636 33.174C162.121 33.174 162.527 33.062 162.854 32.838C163.181 32.614 163.419 32.3107 163.568 31.928H164.73C164.543 32.572 164.184 33.1087 163.652 33.538C163.129 33.958 162.457 34.168 161.636 34.168ZM161.636 27.882C161.076 27.882 160.577 28.0547 160.138 28.4C159.709 28.736 159.461 29.2307 159.396 29.884H163.764C163.736 29.2587 163.521 28.7687 163.12 28.414C162.719 28.0593 162.224 27.882 161.636 27.882ZM166.485 34V27.056H167.549L167.619 28.302C167.843 27.8633 168.165 27.518 168.585 27.266C169.005 27.014 169.481 26.888 170.013 26.888C170.834 26.888 171.487 27.14 171.973 27.644C172.467 28.1387 172.715 28.904 172.715 29.94V34H171.539V30.066C171.539 28.6193 170.941 27.896 169.747 27.896C169.149 27.896 168.65 28.1153 168.249 28.554C167.857 28.9833 167.661 29.5993 167.661 30.402V34H166.485ZM177.24 34C176.606 34 176.106 33.846 175.742 33.538C175.378 33.23 175.196 32.6747 175.196 31.872V28.05H173.992V27.056H175.196L175.35 25.39H176.372V27.056H178.416V28.05H176.372V31.872C176.372 32.3107 176.461 32.6093 176.638 32.768C176.816 32.9173 177.128 32.992 177.576 32.992H178.304V34H177.24ZM186.583 34.168C185.911 34.168 185.319 34.0467 184.805 33.804C184.301 33.552 183.905 33.2067 183.615 32.768C183.335 32.32 183.195 31.7927 183.195 31.186C183.195 30.5233 183.387 29.9353 183.769 29.422C184.161 28.8993 184.726 28.4887 185.463 28.19C185.146 27.8447 184.917 27.518 184.777 27.21C184.637 26.8927 184.567 26.552 184.567 26.188C184.567 25.5627 184.787 25.0493 185.225 24.648C185.673 24.2373 186.285 24.032 187.059 24.032C187.563 24.032 188.002 24.13 188.375 24.326C188.749 24.5127 189.038 24.774 189.243 25.11C189.449 25.446 189.542 25.8287 189.523 26.258H188.361C188.371 25.838 188.24 25.5207 187.969 25.306C187.708 25.0913 187.405 24.984 187.059 24.984C186.639 24.984 186.313 25.096 186.079 25.32C185.846 25.544 185.729 25.8287 185.729 26.174C185.729 26.4727 185.809 26.762 185.967 27.042C186.135 27.322 186.383 27.6347 186.709 27.98L189.803 31.102C190.074 30.71 190.368 30.2387 190.685 29.688L191.119 28.932H192.365L191.749 30.024C191.339 30.7613 190.947 31.3773 190.573 31.872L192.687 34H191.203L189.901 32.684C189.407 33.216 188.893 33.5987 188.361 33.832C187.829 34.056 187.237 34.168 186.583 34.168ZM184.371 31.144C184.371 31.7227 184.577 32.2033 184.987 32.586C185.398 32.9687 185.935 33.16 186.597 33.16C187.092 33.16 187.54 33.0667 187.941 32.88C188.352 32.684 188.753 32.3667 189.145 31.928L186.177 28.918C185.561 29.1607 185.104 29.4687 184.805 29.842C184.516 30.2153 184.371 30.6493 184.371 31.144ZM133.995 52V42.2H137.159C137.924 42.2 138.55 42.326 139.035 42.578C139.52 42.83 139.88 43.1753 140.113 43.614C140.346 44.0527 140.463 44.538 140.463 45.07C140.463 45.686 140.295 46.2413 139.959 46.736C139.632 47.2307 139.119 47.5807 138.419 47.786L140.561 52H139.175L137.187 47.954H137.103H135.171V52H133.995ZM135.171 47.03H137.075C137.831 47.03 138.382 46.848 138.727 46.484C139.072 46.12 139.245 45.6533 139.245 45.084C139.245 44.5053 139.072 44.048 138.727 43.712C138.391 43.3667 137.836 43.194 137.061 43.194H135.171V47.03ZM144.922 52.168C144.259 52.168 143.671 52.0187 143.158 51.72C142.645 51.412 142.239 50.9873 141.94 50.446C141.651 49.9047 141.506 49.2653 141.506 48.528C141.506 47.8 141.651 47.1653 141.94 46.624C142.229 46.0733 142.631 45.6487 143.144 45.35C143.667 45.042 144.269 44.888 144.95 44.888C145.622 44.888 146.201 45.042 146.686 45.35C147.181 45.6487 147.559 46.0453 147.82 46.54C148.081 47.0347 148.212 47.5667 148.212 48.136C148.212 48.2387 148.207 48.3413 148.198 48.444C148.198 48.5467 148.198 48.6633 148.198 48.794H142.668C142.696 49.326 142.817 49.7693 143.032 50.124C143.256 50.4693 143.531 50.7307 143.858 50.908C144.194 51.0853 144.549 51.174 144.922 51.174C145.407 51.174 145.813 51.062 146.14 50.838C146.467 50.614 146.705 50.3107 146.854 49.928H148.016C147.829 50.572 147.47 51.1087 146.938 51.538C146.415 51.958 145.743 52.168 144.922 52.168ZM144.922 45.882C144.362 45.882 143.863 46.0547 143.424 46.4C142.995 46.736 142.747 47.2307 142.682 47.884H147.05C147.022 47.2587 146.807 46.7687 146.406 46.414C146.005 46.0593 145.51 45.882 144.922 45.882ZM152.963 52.168C152.3 52.168 151.703 52.0187 151.171 51.72C150.648 51.412 150.233 50.9873 149.925 50.446C149.626 49.8953 149.477 49.256 149.477 48.528C149.477 47.8 149.626 47.1653 149.925 46.624C150.233 46.0733 150.648 45.6487 151.171 45.35C151.703 45.042 152.3 44.888 152.963 44.888C153.784 44.888 154.475 45.1027 155.035 45.532C155.604 45.9613 155.963 46.5353 156.113 47.254H154.909C154.815 46.8247 154.587 46.4933 154.223 46.26C153.859 46.0173 153.434 45.896 152.949 45.896C152.557 45.896 152.188 45.994 151.843 46.19C151.497 46.386 151.217 46.68 151.003 47.072C150.788 47.464 150.681 47.9493 150.681 48.528C150.681 49.1067 150.788 49.592 151.003 49.984C151.217 50.376 151.497 50.6747 151.843 50.88C152.188 51.076 152.557 51.174 152.949 51.174C153.434 51.174 153.859 51.0573 154.223 50.824C154.587 50.5813 154.815 50.2407 154.909 49.802H156.113C155.973 50.502 155.618 51.0713 155.049 51.51C154.479 51.9487 153.784 52.168 152.963 52.168ZM160.877 52.168C160.214 52.168 159.626 52.0187 159.113 51.72C158.6 51.412 158.194 50.9873 157.895 50.446C157.606 49.9047 157.461 49.2653 157.461 48.528C157.461 47.8 157.606 47.1653 157.895 46.624C158.184 46.0733 158.586 45.6487 159.099 45.35C159.622 45.042 160.224 44.888 160.905 44.888C161.577 44.888 162.156 45.042 162.641 45.35C163.136 45.6487 163.514 46.0453 163.775 46.54C164.036 47.0347 164.167 47.5667 164.167 48.136C164.167 48.2387 164.162 48.3413 164.153 48.444C164.153 48.5467 164.153 48.6633 164.153 48.794H158.623C158.651 49.326 158.772 49.7693 158.987 50.124C159.211 50.4693 159.486 50.7307 159.813 50.908C160.149 51.0853 160.504 51.174 160.877 51.174C161.362 51.174 161.768 51.062 162.095 50.838C162.422 50.614 162.66 50.3107 162.809 49.928H163.971C163.784 50.572 163.425 51.1087 162.893 51.538C162.37 51.958 161.698 52.168 160.877 52.168ZM160.877 45.882C160.317 45.882 159.818 46.0547 159.379 46.4C158.95 46.736 158.702 47.2307 158.637 47.884H163.005C162.977 47.2587 162.762 46.7687 162.361 46.414C161.96 46.0593 161.465 45.882 160.877 45.882ZM166.44 43.516C166.206 43.516 166.01 43.4413 165.852 43.292C165.702 43.1333 165.628 42.9373 165.628 42.704C165.628 42.48 165.702 42.2933 165.852 42.144C166.01 41.9947 166.206 41.92 166.44 41.92C166.664 41.92 166.855 41.9947 167.014 42.144C167.172 42.2933 167.252 42.48 167.252 42.704C167.252 42.9373 167.172 43.1333 167.014 43.292C166.855 43.4413 166.664 43.516 166.44 43.516ZM165.852 52V45.056H167.028V52H165.852ZM169.075 55.08V45.056H170.139L170.251 46.204C170.475 45.868 170.793 45.5647 171.203 45.294C171.623 45.0233 172.155 44.888 172.799 44.888C173.49 44.888 174.092 45.0467 174.605 45.364C175.119 45.6813 175.515 46.1153 175.795 46.666C176.085 47.2167 176.229 47.842 176.229 48.542C176.229 49.242 176.085 49.8673 175.795 50.418C175.515 50.9593 175.114 51.3887 174.591 51.706C174.078 52.014 173.476 52.168 172.785 52.168C172.216 52.168 171.707 52.0513 171.259 51.818C170.821 51.5847 170.485 51.258 170.251 50.838V55.08H169.075ZM172.659 51.146C173.126 51.146 173.537 51.0387 173.891 50.824C174.246 50.6 174.526 50.292 174.731 49.9C174.937 49.508 175.039 49.0507 175.039 48.528C175.039 48.0053 174.937 47.548 174.731 47.156C174.526 46.764 174.246 46.4607 173.891 46.246C173.537 46.022 173.126 45.91 172.659 45.91C172.193 45.91 171.782 46.022 171.427 46.246C171.073 46.4607 170.793 46.764 170.587 47.156C170.382 47.548 170.279 48.0053 170.279 48.528C170.279 49.0507 170.382 49.508 170.587 49.9C170.793 50.292 171.073 50.6 171.427 50.824C171.782 51.0387 172.193 51.146 172.659 51.146ZM180.337 52C179.702 52 179.203 51.846 178.839 51.538C178.475 51.23 178.293 50.6747 178.293 49.872V46.05H177.089V45.056H178.293L178.447 43.39H179.469V45.056H181.513V46.05H179.469V49.872C179.469 50.3107 179.558 50.6093 179.735 50.768C179.912 50.9173 180.225 50.992 180.673 50.992H181.401V52H180.337Z" fill="#576B75"/>
<path d="M263.059 34V24.2H266.069C267.796 24.2 269.065 24.6387 269.877 25.516C270.699 26.3933 271.109 27.5973 271.109 29.128C271.109 30.6307 270.699 31.8207 269.877 32.698C269.065 33.566 267.796 34 266.069 34H263.059ZM264.235 33.02H266.041C266.993 33.02 267.749 32.866 268.309 32.558C268.879 32.2407 269.285 31.7927 269.527 31.214C269.77 30.626 269.891 29.9307 269.891 29.128C269.891 28.3067 269.77 27.602 269.527 27.014C269.285 26.426 268.879 25.9733 268.309 25.656C267.749 25.3387 266.993 25.18 266.041 25.18H264.235V33.02ZM275.859 34.168C275.197 34.168 274.609 34.0187 274.095 33.72C273.582 33.412 273.176 32.9873 272.877 32.446C272.588 31.9047 272.443 31.2653 272.443 30.528C272.443 29.8 272.588 29.1653 272.877 28.624C273.167 28.0733 273.568 27.6487 274.081 27.35C274.604 27.042 275.206 26.888 275.887 26.888C276.559 26.888 277.138 27.042 277.623 27.35C278.118 27.6487 278.496 28.0453 278.757 28.54C279.019 29.0347 279.149 29.5667 279.149 30.136C279.149 30.2387 279.145 30.3413 279.135 30.444C279.135 30.5467 279.135 30.6633 279.135 30.794H273.605C273.633 31.326 273.755 31.7693 273.969 32.124C274.193 32.4693 274.469 32.7307 274.795 32.908C275.131 33.0853 275.486 33.174 275.859 33.174C276.345 33.174 276.751 33.062 277.077 32.838C277.404 32.614 277.642 32.3107 277.791 31.928H278.953C278.767 32.572 278.407 33.1087 277.875 33.538C277.353 33.958 276.681 34.168 275.859 34.168ZM275.859 27.882C275.299 27.882 274.8 28.0547 274.361 28.4C273.932 28.736 273.685 29.2307 273.619 29.884H277.987C277.959 29.2587 277.745 28.7687 277.343 28.414C276.942 28.0593 276.447 27.882 275.859 27.882ZM280.708 34V23.92H281.884V34H280.708ZM284.526 25.516C284.292 25.516 284.096 25.4413 283.938 25.292C283.788 25.1333 283.714 24.9373 283.714 24.704C283.714 24.48 283.788 24.2933 283.938 24.144C284.096 23.9947 284.292 23.92 284.526 23.92C284.75 23.92 284.941 23.9947 285.1 24.144C285.258 24.2933 285.338 24.48 285.338 24.704C285.338 24.9373 285.258 25.1333 285.1 25.292C284.941 25.4413 284.75 25.516 284.526 25.516ZM283.938 34V27.056H285.114V34H283.938ZM289.163 34L286.531 27.056H287.763L289.849 32.866L291.949 27.056H293.153L290.521 34H289.163ZM297.229 34.168C296.566 34.168 295.978 34.0187 295.465 33.72C294.951 33.412 294.545 32.9873 294.247 32.446C293.957 31.9047 293.813 31.2653 293.813 30.528C293.813 29.8 293.957 29.1653 294.247 28.624C294.536 28.0733 294.937 27.6487 295.451 27.35C295.973 27.042 296.575 26.888 297.257 26.888C297.929 26.888 298.507 27.042 298.993 27.35C299.487 27.6487 299.865 28.0453 300.127 28.54C300.388 29.0347 300.519 29.5667 300.519 30.136C300.519 30.2387 300.514 30.3413 300.505 30.444C300.505 30.5467 300.505 30.6633 300.505 30.794H294.975C295.003 31.326 295.124 31.7693 295.339 32.124C295.563 32.4693 295.838 32.7307 296.165 32.908C296.501 33.0853 296.855 33.174 297.229 33.174C297.714 33.174 298.12 33.062 298.447 32.838C298.773 32.614 299.011 32.3107 299.161 31.928H300.323C300.136 32.572 299.777 33.1087 299.245 33.538C298.722 33.958 298.05 34.168 297.229 34.168ZM297.229 27.882C296.669 27.882 296.169 28.0547 295.731 28.4C295.301 28.736 295.054 29.2307 294.989 29.884H299.357C299.329 29.2587 299.114 28.7687 298.713 28.414C298.311 28.0593 297.817 27.882 297.229 27.882ZM302.077 34V27.056H303.141L303.239 28.386C303.454 27.9287 303.781 27.5647 304.219 27.294C304.658 27.0233 305.199 26.888 305.843 26.888V28.12H305.521C305.111 28.12 304.733 28.1947 304.387 28.344C304.042 28.484 303.767 28.7267 303.561 29.072C303.356 29.4173 303.253 29.8933 303.253 30.5V34H302.077ZM307.919 37.08L309.641 33.328H309.235L306.477 27.056H307.751L310.047 32.46L312.483 27.056H313.701L309.151 37.08H307.919Z" fill="#576B75"/>
<path d="M380.478 34.168C379.516 34.168 378.686 33.958 377.986 33.538C377.295 33.1087 376.758 32.516 376.376 31.76C375.993 30.9947 375.802 30.108 375.802 29.1C375.802 28.1013 375.993 27.224 376.376 26.468C376.758 25.7027 377.295 25.1053 377.986 24.676C378.686 24.2467 379.516 24.032 380.478 24.032C381.598 24.032 382.508 24.3027 383.208 24.844C383.917 25.376 384.37 26.1227 384.566 27.084H383.264C383.114 26.4773 382.806 25.992 382.34 25.628C381.882 25.2547 381.262 25.068 380.478 25.068C379.778 25.068 379.166 25.2313 378.644 25.558C378.121 25.8753 377.715 26.3373 377.426 26.944C377.146 27.5413 377.006 28.26 377.006 29.1C377.006 29.94 377.146 30.6633 377.426 31.27C377.715 31.8673 378.121 32.3293 378.644 32.656C379.166 32.9733 379.778 33.132 380.478 33.132C381.262 33.132 381.882 32.9547 382.34 32.6C382.806 32.236 383.114 31.7553 383.264 31.158H384.566C384.37 32.1007 383.917 32.838 383.208 33.37C382.508 33.902 381.598 34.168 380.478 34.168ZM388.496 34.168C387.917 34.168 387.436 34.07 387.054 33.874C386.671 33.678 386.386 33.4167 386.2 33.09C386.013 32.7633 385.92 32.4087 385.92 32.026C385.92 31.3167 386.19 30.7707 386.732 30.388C387.273 30.0053 388.01 29.814 388.944 29.814H390.82V29.73C390.82 29.1233 390.661 28.666 390.344 28.358C390.026 28.0407 389.602 27.882 389.07 27.882C388.612 27.882 388.216 27.9987 387.88 28.232C387.553 28.456 387.348 28.7873 387.264 29.226H386.06C386.106 28.722 386.274 28.2973 386.564 27.952C386.862 27.6067 387.231 27.3453 387.67 27.168C388.108 26.9813 388.575 26.888 389.07 26.888C390.04 26.888 390.768 27.1493 391.254 27.672C391.748 28.1853 391.996 28.8713 391.996 29.73V34H390.946L390.876 32.754C390.68 33.146 390.39 33.482 390.008 33.762C389.634 34.0327 389.13 34.168 388.496 34.168ZM388.678 33.174C389.126 33.174 389.508 33.0573 389.826 32.824C390.152 32.5907 390.4 32.2873 390.568 31.914C390.736 31.5407 390.82 31.1487 390.82 30.738V30.724H389.042C388.351 30.724 387.861 30.8453 387.572 31.088C387.292 31.3213 387.152 31.6153 387.152 31.97C387.152 32.334 387.282 32.628 387.544 32.852C387.814 33.0667 388.192 33.174 388.678 33.174ZM396.313 34C395.678 34 395.179 33.846 394.815 33.538C394.451 33.23 394.269 32.6747 394.269 31.872V28.05H393.065V27.056H394.269L394.423 25.39H395.445V27.056H397.489V28.05H395.445V31.872C395.445 32.3107 395.533 32.6093 395.711 32.768C395.888 32.9173 396.201 32.992 396.649 32.992H397.377V34H396.313ZM401.913 34.168C401.251 34.168 400.663 34.0187 400.149 33.72C399.636 33.412 399.23 32.9873 398.931 32.446C398.642 31.9047 398.497 31.2653 398.497 30.528C398.497 29.8 398.642 29.1653 398.931 28.624C399.221 28.0733 399.622 27.6487 400.135 27.35C400.658 27.042 401.26 26.888 401.941 26.888C402.613 26.888 403.192 27.042 403.677 27.35C404.172 27.6487 404.55 28.0453 404.811 28.54C405.073 29.0347 405.203 29.5667 405.203 30.136C405.203 30.2387 405.199 30.3413 405.189 30.444C405.189 30.5467 405.189 30.6633 405.189 30.794H399.659C399.687 31.326 399.809 31.7693 400.023 32.124C400.247 32.4693 400.523 32.7307 400.849 32.908C401.185 33.0853 401.54 33.174 401.913 33.174C402.399 33.174 402.805 33.062 403.131 32.838C403.458 32.614 403.696 32.3107 403.845 31.928H405.007C404.821 32.572 404.461 33.1087 403.929 33.538C403.407 33.958 402.735 34.168 401.913 34.168ZM401.913 27.882C401.353 27.882 400.854 28.0547 400.415 28.4C399.986 28.736 399.739 29.2307 399.673 29.884H404.041C404.013 29.2587 403.799 28.7687 403.397 28.414C402.996 28.0593 402.501 27.882 401.913 27.882ZM409.465 31.816C409.073 31.816 408.714 31.7647 408.387 31.662L407.687 32.32C407.79 32.3947 407.916 32.46 408.065 32.516C408.224 32.5627 408.448 32.6093 408.737 32.656C409.026 32.6933 409.432 32.7353 409.955 32.782C410.888 32.8473 411.556 33.062 411.957 33.426C412.358 33.79 412.559 34.266 412.559 34.854C412.559 35.2553 412.447 35.638 412.223 36.002C412.008 36.366 411.672 36.6647 411.215 36.898C410.767 37.1313 410.188 37.248 409.479 37.248C408.854 37.248 408.298 37.164 407.813 36.996C407.328 36.8373 406.95 36.59 406.679 36.254C406.408 35.9273 406.273 35.512 406.273 35.008C406.273 34.7467 406.343 34.462 406.483 34.154C406.623 33.8553 406.884 33.5707 407.267 33.3C407.062 33.216 406.884 33.1273 406.735 33.034C406.595 32.9313 406.464 32.8193 406.343 32.698V32.376L407.533 31.2C406.982 30.7333 406.707 30.1173 406.707 29.352C406.707 28.8947 406.814 28.4793 407.029 28.106C407.244 27.7327 407.556 27.4387 407.967 27.224C408.378 27 408.877 26.888 409.465 26.888C409.866 26.888 410.23 26.944 410.557 27.056H413.119V27.938L411.817 27.994C412.088 28.386 412.223 28.8387 412.223 29.352C412.223 29.8093 412.111 30.2247 411.887 30.598C411.672 30.9713 411.36 31.27 410.949 31.494C410.548 31.7087 410.053 31.816 409.465 31.816ZM409.465 30.85C409.96 30.85 410.352 30.724 410.641 30.472C410.94 30.2107 411.089 29.8373 411.089 29.352C411.089 28.876 410.94 28.512 410.641 28.26C410.352 27.9987 409.96 27.868 409.465 27.868C408.961 27.868 408.56 27.9987 408.261 28.26C407.972 28.512 407.827 28.876 407.827 29.352C407.827 29.8373 407.972 30.2107 408.261 30.472C408.56 30.724 408.961 30.85 409.465 30.85ZM407.421 34.896C407.421 35.3627 407.617 35.708 408.009 35.932C408.401 36.1653 408.891 36.282 409.479 36.282C410.058 36.282 410.52 36.156 410.865 35.904C411.22 35.652 411.397 35.316 411.397 34.896C411.397 34.5973 411.276 34.336 411.033 34.112C410.79 33.8973 410.342 33.7713 409.689 33.734C409.176 33.6967 408.732 33.65 408.359 33.594C407.976 33.7993 407.724 34.0187 407.603 34.252C407.482 34.4947 407.421 34.7093 407.421 34.896ZM417.336 34.168C416.683 34.168 416.095 34.0187 415.572 33.72C415.049 33.4213 414.634 33.0013 414.326 32.46C414.027 31.9093 413.878 31.2653 413.878 30.528C413.878 29.7907 414.032 29.1513 414.34 28.61C414.648 28.0593 415.063 27.6347 415.586 27.336C416.118 27.0373 416.711 26.888 417.364 26.888C418.017 26.888 418.605 27.0373 419.128 27.336C419.651 27.6347 420.061 28.0593 420.36 28.61C420.668 29.1513 420.822 29.7907 420.822 30.528C420.822 31.2653 420.668 31.9093 420.36 32.46C420.052 33.0013 419.632 33.4213 419.1 33.72C418.577 34.0187 417.989 34.168 417.336 34.168ZM417.336 33.16C417.737 33.16 418.111 33.062 418.456 32.866C418.801 32.67 419.081 32.376 419.296 31.984C419.511 31.592 419.618 31.1067 419.618 30.528C419.618 29.9493 419.511 29.464 419.296 29.072C419.091 28.68 418.815 28.386 418.47 28.19C418.125 27.994 417.756 27.896 417.364 27.896C416.963 27.896 416.589 27.994 416.244 28.19C415.899 28.386 415.619 28.68 415.404 29.072C415.189 29.464 415.082 29.9493 415.082 30.528C415.082 31.1067 415.189 31.592 415.404 31.984C415.619 32.376 415.894 32.67 416.23 32.866C416.575 33.062 416.944 33.16 417.336 33.16ZM422.457 34V27.056H423.521L423.619 28.386C423.834 27.9287 424.161 27.5647 424.599 27.294C425.038 27.0233 425.579 26.888 426.223 26.888V28.12H425.901C425.491 28.12 425.113 28.1947 424.767 28.344C424.422 28.484 424.147 28.7267 423.941 29.072C423.736 29.4173 423.633 29.8933 423.633 30.5V34H422.457ZM428.257 25.516C428.024 25.516 427.828 25.4413 427.669 25.292C427.52 25.1333 427.445 24.9373 427.445 24.704C427.445 24.48 427.52 24.2933 427.669 24.144C427.828 23.9947 428.024 23.92 428.257 23.92C428.481 23.92 428.672 23.9947 428.831 24.144C428.99 24.2933 429.069 24.48 429.069 24.704C429.069 24.9373 428.99 25.1333 428.831 25.292C428.672 25.4413 428.481 25.516 428.257 25.516ZM427.669 34V27.056H428.845V34H427.669ZM434.015 34.168C433.352 34.168 432.764 34.0187 432.251 33.72C431.737 33.412 431.331 32.9873 431.033 32.446C430.743 31.9047 430.599 31.2653 430.599 30.528C430.599 29.8 430.743 29.1653 431.033 28.624C431.322 28.0733 431.723 27.6487 432.237 27.35C432.759 27.042 433.361 26.888 434.043 26.888C434.715 26.888 435.293 27.042 435.779 27.35C436.273 27.6487 436.651 28.0453 436.913 28.54C437.174 29.0347 437.305 29.5667 437.305 30.136C437.305 30.2387 437.3 30.3413 437.291 30.444C437.291 30.5467 437.291 30.6633 437.291 30.794H431.761C431.789 31.326 431.91 31.7693 432.125 32.124C432.349 32.4693 432.624 32.7307 432.951 32.908C433.287 33.0853 433.641 33.174 434.015 33.174C434.5 33.174 434.906 33.062 435.233 32.838C435.559 32.614 435.797 32.3107 435.947 31.928H437.109C436.922 32.572 436.563 33.1087 436.031 33.538C435.508 33.958 434.836 34.168 434.015 34.168ZM434.015 27.882C433.455 27.882 432.955 28.0547 432.517 28.4C432.087 28.736 431.84 29.2307 431.775 29.884H436.143C436.115 29.2587 435.9 28.7687 435.499 28.414C435.097 28.0593 434.603 27.882 434.015 27.882ZM441.523 34.168C440.693 34.168 440.002 33.958 439.451 33.538C438.901 33.118 438.579 32.5487 438.485 31.83H439.689C439.764 32.194 439.955 32.5113 440.263 32.782C440.581 33.0433 441.005 33.174 441.537 33.174C442.032 33.174 442.396 33.0713 442.629 32.866C442.863 32.6513 442.979 32.3993 442.979 32.11C442.979 31.69 442.825 31.41 442.517 31.27C442.219 31.13 441.794 31.004 441.243 30.892C440.87 30.8173 440.497 30.71 440.123 30.57C439.75 30.43 439.437 30.234 439.185 29.982C438.933 29.7207 438.807 29.38 438.807 28.96C438.807 28.3533 439.031 27.8587 439.479 27.476C439.937 27.084 440.553 26.888 441.327 26.888C442.065 26.888 442.667 27.0747 443.133 27.448C443.609 27.812 443.885 28.3347 443.959 29.016H442.797C442.751 28.6613 442.597 28.386 442.335 28.19C442.083 27.9847 441.743 27.882 441.313 27.882C440.893 27.882 440.567 27.9707 440.333 28.148C440.109 28.3253 439.997 28.5587 439.997 28.848C439.997 29.128 440.142 29.3473 440.431 29.506C440.73 29.6647 441.131 29.8 441.635 29.912C442.065 30.0053 442.471 30.122 442.853 30.262C443.245 30.3927 443.563 30.5933 443.805 30.864C444.057 31.1253 444.183 31.508 444.183 32.012C444.193 32.6373 443.955 33.1553 443.469 33.566C442.993 33.9673 442.345 34.168 441.523 34.168ZM452.537 34.168C451.865 34.168 451.272 34.0467 450.759 33.804C450.255 33.552 449.858 33.2067 449.569 32.768C449.289 32.32 449.149 31.7927 449.149 31.186C449.149 30.5233 449.34 29.9353 449.723 29.422C450.115 28.8993 450.679 28.4887 451.417 28.19C451.099 27.8447 450.871 27.518 450.731 27.21C450.591 26.8927 450.521 26.552 450.521 26.188C450.521 25.5627 450.74 25.0493 451.179 24.648C451.627 24.2373 452.238 24.032 453.013 24.032C453.517 24.032 453.955 24.13 454.329 24.326C454.702 24.5127 454.991 24.774 455.197 25.11C455.402 25.446 455.495 25.8287 455.477 26.258H454.315C454.324 25.838 454.193 25.5207 453.923 25.306C453.661 25.0913 453.358 24.984 453.013 24.984C452.593 24.984 452.266 25.096 452.033 25.32C451.799 25.544 451.683 25.8287 451.683 26.174C451.683 26.4727 451.762 26.762 451.921 27.042C452.089 27.322 452.336 27.6347 452.663 27.98L455.757 31.102C456.027 30.71 456.321 30.2387 456.639 29.688L457.073 28.932H458.319L457.703 30.024C457.292 30.7613 456.9 31.3773 456.527 31.872L458.641 34H457.157L455.855 32.684C455.36 33.216 454.847 33.5987 454.315 33.832C453.783 34.056 453.19 34.168 452.537 34.168ZM450.325 31.144C450.325 31.7227 450.53 32.2033 450.941 32.586C451.351 32.9687 451.888 33.16 452.551 33.16C453.045 33.16 453.493 33.0667 453.895 32.88C454.305 32.684 454.707 32.3667 455.099 31.928L452.131 28.918C451.515 29.1607 451.057 29.4687 450.759 29.842C450.469 30.2153 450.325 30.6493 450.325 31.144ZM388.922 52V42.2H392.142C392.907 42.2 393.537 42.326 394.032 42.578C394.526 42.83 394.89 43.1707 395.124 43.6C395.366 44.0293 395.488 44.5147 395.488 45.056C395.488 45.588 395.371 46.0687 395.138 46.498C394.904 46.9273 394.54 47.2727 394.046 47.534C393.551 47.786 392.916 47.912 392.142 47.912H390.098V52H388.922ZM390.098 46.918H392.114C392.898 46.918 393.453 46.7547 393.78 46.428C394.116 46.092 394.284 45.6347 394.284 45.056C394.284 44.468 394.116 44.0107 393.78 43.684C393.453 43.348 392.898 43.18 392.114 43.18H390.098V46.918ZM396.959 52V45.056H398.023L398.121 46.386C398.336 45.9287 398.662 45.5647 399.101 45.294C399.54 45.0233 400.081 44.888 400.725 44.888V46.12H400.403C399.992 46.12 399.614 46.1947 399.269 46.344C398.924 46.484 398.648 46.7267 398.443 47.072C398.238 47.4173 398.135 47.8933 398.135 48.5V52H396.959ZM404.949 52.168C404.296 52.168 403.708 52.0187 403.185 51.72C402.663 51.4213 402.247 51.0013 401.939 50.46C401.641 49.9093 401.491 49.2653 401.491 48.528C401.491 47.7907 401.645 47.1513 401.953 46.61C402.261 46.0593 402.677 45.6347 403.199 45.336C403.731 45.0373 404.324 44.888 404.977 44.888C405.631 44.888 406.219 45.0373 406.741 45.336C407.264 45.6347 407.675 46.0593 407.973 46.61C408.281 47.1513 408.435 47.7907 408.435 48.528C408.435 49.2653 408.281 49.9093 407.973 50.46C407.665 51.0013 407.245 51.4213 406.713 51.72C406.191 52.0187 405.603 52.168 404.949 52.168ZM404.949 51.16C405.351 51.16 405.724 51.062 406.069 50.866C406.415 50.67 406.695 50.376 406.909 49.984C407.124 49.592 407.231 49.1067 407.231 48.528C407.231 47.9493 407.124 47.464 406.909 47.072C406.704 46.68 406.429 46.386 406.083 46.19C405.738 45.994 405.369 45.896 404.977 45.896C404.576 45.896 404.203 45.994 403.857 46.19C403.512 46.386 403.232 46.68 403.017 47.072C402.803 47.464 402.695 47.9493 402.695 48.528C402.695 49.1067 402.803 49.592 403.017 49.984C403.232 50.376 403.507 50.67 403.843 50.866C404.189 51.062 404.557 51.16 404.949 51.16ZM413.22 52.168C412.53 52.168 411.923 52.0093 411.4 51.692C410.887 51.3747 410.486 50.9407 410.196 50.39C409.916 49.8393 409.776 49.214 409.776 48.514C409.776 47.814 409.921 47.1933 410.21 46.652C410.5 46.1013 410.901 45.672 411.414 45.364C411.928 45.0467 412.534 44.888 413.234 44.888C413.804 44.888 414.308 45.0047 414.746 45.238C415.185 45.4713 415.526 45.798 415.768 46.218V41.92H416.944V52H415.88L415.768 50.852C415.544 51.188 415.222 51.4913 414.802 51.762C414.382 52.0327 413.855 52.168 413.22 52.168ZM413.346 51.146C413.813 51.146 414.224 51.0387 414.578 50.824C414.942 50.6 415.222 50.292 415.418 49.9C415.624 49.508 415.726 49.0507 415.726 48.528C415.726 48.0053 415.624 47.548 415.418 47.156C415.222 46.764 414.942 46.4607 414.578 46.246C414.224 46.022 413.813 45.91 413.346 45.91C412.889 45.91 412.478 46.022 412.114 46.246C411.76 46.4607 411.48 46.764 411.274 47.156C411.078 47.548 410.98 48.0053 410.98 48.528C410.98 49.0507 411.078 49.508 411.274 49.9C411.48 50.292 411.76 50.6 412.114 50.824C412.478 51.0387 412.889 51.146 413.346 51.146ZM421.396 52.168C420.574 52.168 419.921 51.9207 419.436 51.426C418.95 50.922 418.708 50.152 418.708 49.116V45.056H419.884V48.99C419.884 50.4367 420.476 51.16 421.662 51.16C422.268 51.16 422.768 50.9453 423.16 50.516C423.561 50.0773 423.762 49.4567 423.762 48.654V45.056H424.938V52H423.874L423.79 50.754C423.575 51.1927 423.253 51.538 422.824 51.79C422.404 52.042 421.928 52.168 421.396 52.168ZM430.065 52.168C429.403 52.168 428.805 52.0187 428.273 51.72C427.751 51.412 427.335 50.9873 427.027 50.446C426.729 49.8953 426.579 49.256 426.579 48.528C426.579 47.8 426.729 47.1653 427.027 46.624C427.335 46.0733 427.751 45.6487 428.273 45.35C428.805 45.042 429.403 44.888 430.065 44.888C430.887 44.888 431.577 45.1027 432.137 45.532C432.707 45.9613 433.066 46.5353 433.215 47.254H432.011C431.918 46.8247 431.689 46.4933 431.325 46.26C430.961 46.0173 430.537 45.896 430.051 45.896C429.659 45.896 429.291 45.994 428.945 46.19C428.6 46.386 428.32 46.68 428.105 47.072C427.891 47.464 427.783 47.9493 427.783 48.528C427.783 49.1067 427.891 49.592 428.105 49.984C428.32 50.376 428.6 50.6747 428.945 50.88C429.291 51.076 429.659 51.174 430.051 51.174C430.537 51.174 430.961 51.0573 431.325 50.824C431.689 50.5813 431.918 50.2407 432.011 49.802H433.215C433.075 50.502 432.721 51.0713 432.151 51.51C431.582 51.9487 430.887 52.168 430.065 52.168ZM437.41 52C436.776 52 436.276 51.846 435.912 51.538C435.548 51.23 435.366 50.6747 435.366 49.872V46.05H434.162V45.056H435.366L435.52 43.39H436.542V45.056H438.586V46.05H436.542V49.872C436.542 50.3107 436.631 50.6093 436.808 50.768C436.986 50.9173 437.298 50.992 437.746 50.992H438.474V52H437.41ZM442.74 52.168C441.91 52.168 441.219 51.958 440.668 51.538C440.118 51.118 439.796 50.5487 439.702 49.83H440.906C440.981 50.194 441.172 50.5113 441.48 50.782C441.798 51.0433 442.222 51.174 442.754 51.174C443.249 51.174 443.613 51.0713 443.846 50.866C444.08 50.6513 444.196 50.3993 444.196 50.11C444.196 49.69 444.042 49.41 443.734 49.27C443.436 49.13 443.011 49.004 442.46 48.892C442.087 48.8173 441.714 48.71 441.34 48.57C440.967 48.43 440.654 48.234 440.402 47.982C440.15 47.7207 440.024 47.38 440.024 46.96C440.024 46.3533 440.248 45.8587 440.696 45.476C441.154 45.084 441.77 44.888 442.544 44.888C443.282 44.888 443.884 45.0747 444.35 45.448C444.826 45.812 445.102 46.3347 445.176 47.016H444.014C443.968 46.6613 443.814 46.386 443.552 46.19C443.3 45.9847 442.96 45.882 442.53 45.882C442.11 45.882 441.784 45.9707 441.55 46.148C441.326 46.3253 441.214 46.5587 441.214 46.848C441.214 47.128 441.359 47.3473 441.648 47.506C441.947 47.6647 442.348 47.8 442.852 47.912C443.282 48.0053 443.688 48.122 444.07 48.262C444.462 48.3927 444.78 48.5933 445.022 48.864C445.274 49.1253 445.4 49.508 445.4 50.012C445.41 50.6373 445.172 51.1553 444.686 51.566C444.21 51.9673 443.562 52.168 442.74 52.168Z" fill="#576B75"/>
<path d="M520.362 34.168C519.643 34.168 519.018 34.0373 518.486 33.776C517.954 33.5147 517.543 33.1507 517.254 32.684C516.965 32.2173 516.82 31.676 516.82 31.06H518.052C518.052 31.4427 518.141 31.7973 518.318 32.124C518.495 32.4413 518.752 32.698 519.088 32.894C519.433 33.0807 519.858 33.174 520.362 33.174C521.025 33.174 521.538 33.0153 521.902 32.698C522.266 32.3807 522.448 31.984 522.448 31.508C522.448 31.116 522.364 30.8033 522.196 30.57C522.028 30.3273 521.799 30.1313 521.51 29.982C521.23 29.8327 520.903 29.702 520.53 29.59C520.166 29.478 519.783 29.352 519.382 29.212C518.626 28.9507 518.066 28.6287 517.702 28.246C517.338 27.854 517.156 27.3453 517.156 26.72C517.147 26.1973 517.268 25.7353 517.52 25.334C517.772 24.9233 518.127 24.606 518.584 24.382C519.051 24.1487 519.601 24.032 520.236 24.032C520.861 24.032 521.403 24.1487 521.86 24.382C522.327 24.6153 522.686 24.9373 522.938 25.348C523.199 25.7587 523.335 26.2253 523.344 26.748H522.112C522.112 26.4773 522.042 26.2113 521.902 25.95C521.762 25.6793 521.547 25.46 521.258 25.292C520.978 25.124 520.623 25.04 520.194 25.04C519.662 25.0307 519.223 25.166 518.878 25.446C518.542 25.726 518.374 26.1133 518.374 26.608C518.374 27.028 518.491 27.35 518.724 27.574C518.967 27.798 519.303 27.9847 519.732 28.134C520.161 28.274 520.656 28.4373 521.216 28.624C521.683 28.792 522.103 28.988 522.476 29.212C522.849 29.436 523.139 29.7253 523.344 30.08C523.559 30.4347 523.666 30.8873 523.666 31.438C523.666 31.9047 523.545 32.348 523.302 32.768C523.059 33.1787 522.691 33.5147 522.196 33.776C521.711 34.0373 521.099 34.168 520.362 34.168ZM527.798 34.168C526.977 34.168 526.323 33.9207 525.838 33.426C525.353 32.922 525.11 32.152 525.11 31.116V27.056H526.286V30.99C526.286 32.4367 526.879 33.16 528.064 33.16C528.671 33.16 529.17 32.9453 529.562 32.516C529.963 32.0773 530.164 31.4567 530.164 30.654V27.056H531.34V34H530.276L530.192 32.754C529.977 33.1927 529.655 33.538 529.226 33.79C528.806 34.042 528.33 34.168 527.798 34.168ZM533.276 34V27.056H534.34L534.424 28.064C534.648 27.6907 534.946 27.4013 535.32 27.196C535.693 26.9907 536.113 26.888 536.58 26.888C537.13 26.888 537.602 27 537.994 27.224C538.395 27.448 538.703 27.7887 538.918 28.246C539.16 27.826 539.492 27.4947 539.912 27.252C540.341 27.0093 540.803 26.888 541.298 26.888C542.128 26.888 542.791 27.14 543.286 27.644C543.78 28.1387 544.028 28.904 544.028 29.94V34H542.866V30.066C542.866 29.3473 542.721 28.806 542.432 28.442C542.142 28.078 541.727 27.896 541.186 27.896C540.626 27.896 540.159 28.1153 539.786 28.554C539.422 28.9833 539.24 29.5993 539.24 30.402V34H538.064V30.066C538.064 29.3473 537.919 28.806 537.63 28.442C537.34 28.078 536.925 27.896 536.384 27.896C535.833 27.896 535.371 28.1153 534.998 28.554C534.634 28.9833 534.452 29.5993 534.452 30.402V34H533.276ZM545.799 34V27.056H546.863L546.947 28.064C547.171 27.6907 547.47 27.4013 547.843 27.196C548.216 26.9907 548.636 26.888 549.103 26.888C549.654 26.888 550.125 27 550.517 27.224C550.918 27.448 551.226 27.7887 551.441 28.246C551.684 27.826 552.015 27.4947 552.435 27.252C552.864 27.0093 553.326 26.888 553.821 26.888C554.652 26.888 555.314 27.14 555.809 27.644C556.304 28.1387 556.551 28.904 556.551 29.94V34H555.389V30.066C555.389 29.3473 555.244 28.806 554.955 28.442C554.666 28.078 554.25 27.896 553.709 27.896C553.149 27.896 552.682 28.1153 552.309 28.554C551.945 28.9833 551.763 29.5993 551.763 30.402V34H550.587V30.066C550.587 29.3473 550.442 28.806 550.153 28.442C549.864 28.078 549.448 27.896 548.907 27.896C548.356 27.896 547.894 28.1153 547.521 28.554C547.157 28.9833 546.975 29.5993 546.975 30.402V34H545.799ZM560.632 34.168C560.054 34.168 559.573 34.07 559.19 33.874C558.808 33.678 558.523 33.4167 558.336 33.09C558.15 32.7633 558.056 32.4087 558.056 32.026C558.056 31.3167 558.327 30.7707 558.868 30.388C559.41 30.0053 560.147 29.814 561.08 29.814H562.956V29.73C562.956 29.1233 562.798 28.666 562.48 28.358C562.163 28.0407 561.738 27.882 561.206 27.882C560.749 27.882 560.352 27.9987 560.016 28.232C559.69 28.456 559.484 28.7873 559.4 29.226H558.196C558.243 28.722 558.411 28.2973 558.7 27.952C558.999 27.6067 559.368 27.3453 559.806 27.168C560.245 26.9813 560.712 26.888 561.206 26.888C562.177 26.888 562.905 27.1493 563.39 27.672C563.885 28.1853 564.132 28.8713 564.132 29.73V34H563.082L563.012 32.754C562.816 33.146 562.527 33.482 562.144 33.762C561.771 34.0327 561.267 34.168 560.632 34.168ZM560.814 33.174C561.262 33.174 561.645 33.0573 561.962 32.824C562.289 32.5907 562.536 32.2873 562.704 31.914C562.872 31.5407 562.956 31.1487 562.956 30.738V30.724H561.178C560.488 30.724 559.998 30.8453 559.708 31.088C559.428 31.3213 559.288 31.6153 559.288 31.97C559.288 32.334 559.419 32.628 559.68 32.852C559.951 33.0667 560.329 33.174 560.814 33.174ZM565.897 34V27.056H566.961L567.059 28.386C567.273 27.9287 567.6 27.5647 568.039 27.294C568.477 27.0233 569.019 26.888 569.663 26.888V28.12H569.341C568.93 28.12 568.552 28.1947 568.207 28.344C567.861 28.484 567.586 28.7267 567.381 29.072C567.175 29.4173 567.073 29.8933 567.073 30.5V34H565.897ZM571.739 37.08L573.461 33.328H573.055L570.297 27.056H571.571L573.867 32.46L576.303 27.056H577.521L572.971 37.08H571.739Z" fill="#576B75"/>
<circle cx="28" cy="6" r="6" fill="#EB6079"/>
<line x1="42" y1="5.5" x2="142" y2="5.5" stroke="#B9B9C4"/>
<circle cx="158" cy="6" r="5.5" fill="white" stroke="#B9B9C4"/>
<line x1="172" y1="5.5" x2="272" y2="5.5" stroke="#B9B9C4"/>
<circle cx="288" cy="6" r="5.5" fill="white" stroke="#B9B9C4"/>
<line x1="302" y1="5.5" x2="402" y2="5.5" stroke="#B9B9C4"/>
<circle cx="418" cy="6" r="5.5" fill="white" stroke="#B9B9C4"/>
<line x1="432" y1="5.5" x2="532" y2="5.5" stroke="#B9B9C4"/>
<circle cx="548" cy="6" r="5.5" fill="white" stroke="#B9B9C4"/>
</svg>
