<svg width="586" height="61" viewBox="0 0 586 61" fill="none" xmlns="http://www.w3.org/2000/svg">
<g filter="url(#filter0_d_120:11987)">
<path d="M9.56901 34.168C8.64501 34.168 7.83767 33.958 7.14701 33.538C6.45634 33.118 5.91967 32.5347 5.53701 31.788C5.15434 31.032 4.96301 30.1547 4.96301 29.156C4.96301 28.148 5.15901 27.2613 5.55101 26.496C5.95234 25.7213 6.51701 25.1193 7.24501 24.69C7.98234 24.2513 8.85501 24.032 9.86301 24.032C11.011 24.032 11.963 24.3073 12.719 24.858C13.475 25.4087 13.965 26.1693 14.189 27.14H12.187C12.0377 26.6827 11.767 26.328 11.375 26.076C10.983 25.8147 10.479 25.684 9.86301 25.684C8.88301 25.684 8.12701 25.9967 7.59501 26.622C7.06301 27.238 6.79701 28.0873 6.79701 29.17C6.79701 30.2527 7.05834 31.0927 7.58101 31.69C8.11301 32.278 8.83167 32.572 9.73701 32.572C10.6237 32.572 11.291 32.334 11.739 31.858C12.1963 31.3727 12.4717 30.738 12.565 29.954H10.087V28.61H14.371V34H12.719L12.579 32.712C12.2617 33.1787 11.865 33.538 11.389 33.79C10.913 34.042 10.3063 34.168 9.56901 34.168ZM19.4451 34.168C18.7451 34.168 18.1245 34.0187 17.5831 33.72C17.0418 33.4213 16.6171 33.0013 16.3091 32.46C16.0011 31.9187 15.8471 31.2933 15.8471 30.584C15.8471 29.8653 15.9965 29.226 16.2951 28.666C16.6031 28.106 17.0231 27.672 17.5551 27.364C18.0965 27.0467 18.7311 26.888 19.4591 26.888C20.1405 26.888 20.7425 27.0373 21.2651 27.336C21.7878 27.6347 22.1938 28.0453 22.4831 28.568C22.7818 29.0813 22.9311 29.6553 22.9311 30.29C22.9311 30.3927 22.9265 30.5 22.9171 30.612C22.9171 30.724 22.9125 30.8407 22.9031 30.962H17.6251C17.6625 31.5033 17.8491 31.928 18.1851 32.236C18.5305 32.544 18.9458 32.698 19.4311 32.698C19.7951 32.698 20.0985 32.6187 20.3411 32.46C20.5931 32.292 20.7798 32.0773 20.9011 31.816H22.7211C22.5905 32.2547 22.3711 32.656 22.0631 33.02C21.7645 33.3747 21.3911 33.6547 20.9431 33.86C20.5045 34.0653 20.0051 34.168 19.4451 34.168ZM19.4591 28.344C19.0205 28.344 18.6331 28.47 18.2971 28.722C17.9611 28.9647 17.7465 29.338 17.6531 29.842H21.1111C21.0831 29.3847 20.9151 29.0207 20.6071 28.75C20.2991 28.4793 19.9165 28.344 19.4591 28.344ZM24.4383 34V27.056H26.0203L26.1603 28.232C26.375 27.8213 26.683 27.4947 27.0843 27.252C27.495 27.0093 27.9757 26.888 28.5263 26.888C29.385 26.888 30.0523 27.1587 30.5283 27.7C31.0043 28.2413 31.2423 29.0347 31.2423 30.08V34H29.4503V30.248C29.4503 29.6507 29.329 29.1933 29.0863 28.876C28.8437 28.5587 28.4657 28.4 27.9523 28.4C27.4483 28.4 27.033 28.5773 26.7063 28.932C26.389 29.2867 26.2303 29.7813 26.2303 30.416V34H24.4383ZM36.3299 34.168C35.6299 34.168 35.0092 34.0187 34.4679 33.72C33.9266 33.4213 33.5019 33.0013 33.1939 32.46C32.8859 31.9187 32.7319 31.2933 32.7319 30.584C32.7319 29.8653 32.8812 29.226 33.1799 28.666C33.4879 28.106 33.9079 27.672 34.4399 27.364C34.9812 27.0467 35.6159 26.888 36.3439 26.888C37.0252 26.888 37.6272 27.0373 38.1499 27.336C38.6726 27.6347 39.0786 28.0453 39.3679 28.568C39.6666 29.0813 39.8159 29.6553 39.8159 30.29C39.8159 30.3927 39.8112 30.5 39.8019 30.612C39.8019 30.724 39.7972 30.8407 39.7879 30.962H34.5099C34.5472 31.5033 34.7339 31.928 35.0699 32.236C35.4152 32.544 35.8306 32.698 36.3159 32.698C36.6799 32.698 36.9832 32.6187 37.2259 32.46C37.4779 32.292 37.6646 32.0773 37.7859 31.816H39.6059C39.4752 32.2547 39.2559 32.656 38.9479 33.02C38.6492 33.3747 38.2759 33.6547 37.8279 33.86C37.3892 34.0653 36.8899 34.168 36.3299 34.168ZM36.3439 28.344C35.9052 28.344 35.5179 28.47 35.1819 28.722C34.8459 28.9647 34.6312 29.338 34.5379 29.842H37.9959C37.9679 29.3847 37.7999 29.0207 37.4919 28.75C37.1839 28.4793 36.8012 28.344 36.3439 28.344ZM41.3231 34V27.056H42.9191L43.0871 28.358C43.3391 27.91 43.6798 27.5553 44.1091 27.294C44.5478 27.0233 45.0611 26.888 45.6491 26.888V28.778H45.1451C44.7531 28.778 44.4031 28.8387 44.0951 28.96C43.7871 29.0813 43.5444 29.2913 43.3671 29.59C43.1991 29.8887 43.1151 30.304 43.1151 30.836V34H41.3231ZM49.2679 34.168C48.6705 34.168 48.1805 34.0747 47.7979 33.888C47.4152 33.692 47.1305 33.4353 46.9439 33.118C46.7572 32.8007 46.6639 32.4507 46.6639 32.068C46.6639 31.424 46.9159 30.9013 47.4199 30.5C47.9239 30.0987 48.6799 29.898 49.6879 29.898H51.4519V29.73C51.4519 29.254 51.3165 28.904 51.0459 28.68C50.7752 28.456 50.4392 28.344 50.0379 28.344C49.6739 28.344 49.3565 28.4327 49.0859 28.61C48.8152 28.778 48.6472 29.03 48.5819 29.366H46.8319C46.8785 28.862 47.0465 28.4233 47.3359 28.05C47.6345 27.6767 48.0172 27.392 48.4839 27.196C48.9505 26.9907 49.4732 26.888 50.0519 26.888C51.0412 26.888 51.8205 27.1353 52.3899 27.63C52.9592 28.1247 53.2439 28.8247 53.2439 29.73V34H51.7179L51.5499 32.88C51.3445 33.2533 51.0552 33.5613 50.6819 33.804C50.3179 34.0467 49.8465 34.168 49.2679 34.168ZM49.6739 32.768C50.1872 32.768 50.5839 32.6 50.8639 32.264C51.1532 31.928 51.3352 31.5127 51.4099 31.018H49.8839C49.4079 31.018 49.0672 31.1067 48.8619 31.284C48.6565 31.452 48.5539 31.662 48.5539 31.914C48.5539 32.1847 48.6565 32.3947 48.8619 32.544C49.0672 32.6933 49.3379 32.768 49.6739 32.768ZM54.9539 34V23.92H56.7459V34H54.9539Z" fill="#EB6079"/>
<path d="M132.374 34V24.2H136C136.784 24.2 137.433 24.3307 137.946 24.592C138.459 24.8533 138.842 25.2127 139.094 25.67C139.346 26.1273 139.472 26.6407 139.472 27.21C139.472 27.7513 139.351 28.2507 139.108 28.708C138.865 29.156 138.487 29.52 137.974 29.8C137.461 30.0707 136.803 30.206 136 30.206H134.166V34H132.374ZM134.166 28.75H135.888C136.513 28.75 136.961 28.6147 137.232 28.344C137.512 28.064 137.652 27.686 137.652 27.21C137.652 26.7247 137.512 26.3467 137.232 26.076C136.961 25.796 136.513 25.656 135.888 25.656H134.166V28.75ZM142.792 34.168C142.195 34.168 141.705 34.0747 141.322 33.888C140.94 33.692 140.655 33.4353 140.468 33.118C140.282 32.8007 140.188 32.4507 140.188 32.068C140.188 31.424 140.44 30.9013 140.944 30.5C141.448 30.0987 142.204 29.898 143.212 29.898H144.976V29.73C144.976 29.254 144.841 28.904 144.57 28.68C144.3 28.456 143.964 28.344 143.562 28.344C143.198 28.344 142.881 28.4327 142.61 28.61C142.34 28.778 142.172 29.03 142.106 29.366H140.356C140.403 28.862 140.571 28.4233 140.86 28.05C141.159 27.6767 141.542 27.392 142.008 27.196C142.475 26.9907 142.998 26.888 143.576 26.888C144.566 26.888 145.345 27.1353 145.914 27.63C146.484 28.1247 146.768 28.8247 146.768 29.73V34H145.242L145.074 32.88C144.869 33.2533 144.58 33.5613 144.206 33.804C143.842 34.0467 143.371 34.168 142.792 34.168ZM143.198 32.768C143.712 32.768 144.108 32.6 144.388 32.264C144.678 31.928 144.86 31.5127 144.934 31.018H143.408C142.932 31.018 142.592 31.1067 142.386 31.284C142.181 31.452 142.078 31.662 142.078 31.914C142.078 32.1847 142.181 32.3947 142.386 32.544C142.592 32.6933 142.862 32.768 143.198 32.768ZM149.114 37.08L150.724 33.538H150.304L147.602 27.056H149.548L151.494 31.942L153.524 27.056H155.428L151.018 37.08H149.114ZM156.599 34V27.056H158.181L158.335 27.994C158.559 27.658 158.853 27.392 159.217 27.196C159.591 26.9907 160.02 26.888 160.505 26.888C161.579 26.888 162.339 27.3033 162.787 28.134C163.039 27.7513 163.375 27.448 163.795 27.224C164.225 27 164.691 26.888 165.195 26.888C166.101 26.888 166.796 27.1587 167.281 27.7C167.767 28.2413 168.009 29.0347 168.009 30.08V34H166.217V30.248C166.217 29.6507 166.101 29.1933 165.867 28.876C165.643 28.5587 165.293 28.4 164.817 28.4C164.332 28.4 163.94 28.5773 163.641 28.932C163.352 29.2867 163.207 29.7813 163.207 30.416V34H161.415V30.248C161.415 29.6507 161.299 29.1933 161.065 28.876C160.832 28.5587 160.473 28.4 159.987 28.4C159.511 28.4 159.124 28.5773 158.825 28.932C158.536 29.2867 158.391 29.7813 158.391 30.416V34H156.599ZM173.085 34.168C172.385 34.168 171.764 34.0187 171.223 33.72C170.681 33.4213 170.257 33.0013 169.949 32.46C169.641 31.9187 169.487 31.2933 169.487 30.584C169.487 29.8653 169.636 29.226 169.935 28.666C170.243 28.106 170.663 27.672 171.195 27.364C171.736 27.0467 172.371 26.888 173.099 26.888C173.78 26.888 174.382 27.0373 174.905 27.336C175.427 27.6347 175.833 28.0453 176.123 28.568C176.421 29.0813 176.571 29.6553 176.571 30.29C176.571 30.3927 176.566 30.5 176.557 30.612C176.557 30.724 176.552 30.8407 176.543 30.962H171.265C171.302 31.5033 171.489 31.928 171.825 32.236C172.17 32.544 172.585 32.698 173.071 32.698C173.435 32.698 173.738 32.6187 173.981 32.46C174.233 32.292 174.419 32.0773 174.541 31.816H176.361C176.23 32.2547 176.011 32.656 175.703 33.02C175.404 33.3747 175.031 33.6547 174.583 33.86C174.144 34.0653 173.645 34.168 173.085 34.168ZM173.099 28.344C172.66 28.344 172.273 28.47 171.937 28.722C171.601 28.9647 171.386 29.338 171.293 29.842H174.751C174.723 29.3847 174.555 29.0207 174.247 28.75C173.939 28.4793 173.556 28.344 173.099 28.344ZM178.078 34V27.056H179.66L179.8 28.232C180.015 27.8213 180.323 27.4947 180.724 27.252C181.135 27.0093 181.615 26.888 182.166 26.888C183.025 26.888 183.692 27.1587 184.168 27.7C184.644 28.2413 184.882 29.0347 184.882 30.08V34H183.09V30.248C183.09 29.6507 182.969 29.1933 182.726 28.876C182.483 28.5587 182.105 28.4 181.592 28.4C181.088 28.4 180.673 28.5773 180.346 28.932C180.029 29.2867 179.87 29.7813 179.87 30.416V34H178.078ZM189.69 34C188.962 34 188.378 33.8227 187.94 33.468C187.501 33.1133 187.282 32.4833 187.282 31.578V28.554H186.092V27.056H187.282L187.492 25.194H189.074V27.056H190.95V28.554H189.074V31.592C189.074 31.928 189.144 32.1613 189.284 32.292C189.433 32.4133 189.685 32.474 190.04 32.474H190.908V34H189.69Z" fill="#EB6079"/>
<path d="M265.28 34V24.2H268.626C269.774 24.2 270.717 24.4053 271.454 24.816C272.201 25.2173 272.751 25.7867 273.106 26.524C273.47 27.252 273.652 28.1107 273.652 29.1C273.652 30.0893 273.47 30.9527 273.106 31.69C272.751 32.418 272.201 32.9873 271.454 33.398C270.717 33.7993 269.774 34 268.626 34H265.28ZM267.072 32.46H268.542C269.363 32.46 270.012 32.3293 270.488 32.068C270.964 31.7973 271.305 31.4147 271.51 30.92C271.715 30.416 271.818 29.8093 271.818 29.1C271.818 28.4 271.715 27.798 271.51 27.294C271.305 26.79 270.964 26.4027 270.488 26.132C270.012 25.8613 269.363 25.726 268.542 25.726H267.072V32.46ZM278.565 34.168C277.865 34.168 277.245 34.0187 276.703 33.72C276.162 33.4213 275.737 33.0013 275.429 32.46C275.121 31.9187 274.967 31.2933 274.967 30.584C274.967 29.8653 275.117 29.226 275.415 28.666C275.723 28.106 276.143 27.672 276.675 27.364C277.217 27.0467 277.851 26.888 278.579 26.888C279.261 26.888 279.863 27.0373 280.385 27.336C280.908 27.6347 281.314 28.0453 281.603 28.568C281.902 29.0813 282.051 29.6553 282.051 30.29C282.051 30.3927 282.047 30.5 282.037 30.612C282.037 30.724 282.033 30.8407 282.023 30.962H276.745C276.783 31.5033 276.969 31.928 277.305 32.236C277.651 32.544 278.066 32.698 278.551 32.698C278.915 32.698 279.219 32.6187 279.461 32.46C279.713 32.292 279.9 32.0773 280.021 31.816H281.841C281.711 32.2547 281.491 32.656 281.183 33.02C280.885 33.3747 280.511 33.6547 280.063 33.86C279.625 34.0653 279.125 34.168 278.565 34.168ZM278.579 28.344C278.141 28.344 277.753 28.47 277.417 28.722C277.081 28.9647 276.867 29.338 276.773 29.842H280.231C280.203 29.3847 280.035 29.0207 279.727 28.75C279.419 28.4793 279.037 28.344 278.579 28.344ZM283.558 34V23.92H285.35V34H283.558ZM288.147 25.978C287.821 25.978 287.55 25.88 287.335 25.684C287.13 25.488 287.027 25.2407 287.027 24.942C287.027 24.6433 287.13 24.4007 287.335 24.214C287.55 24.018 287.821 23.92 288.147 23.92C288.474 23.92 288.74 24.018 288.945 24.214C289.16 24.4007 289.267 24.6433 289.267 24.942C289.267 25.2407 289.16 25.488 288.945 25.684C288.74 25.88 288.474 25.978 288.147 25.978ZM287.251 34V27.056H289.043V34H287.251ZM292.79 34L290.242 27.056H292.118L293.882 32.306L295.646 27.056H297.522L294.96 34H292.79ZM301.684 34.168C300.984 34.168 300.364 34.0187 299.822 33.72C299.281 33.4213 298.856 33.0013 298.548 32.46C298.24 31.9187 298.086 31.2933 298.086 30.584C298.086 29.8653 298.236 29.226 298.534 28.666C298.842 28.106 299.262 27.672 299.794 27.364C300.336 27.0467 300.97 26.888 301.698 26.888C302.38 26.888 302.982 27.0373 303.504 27.336C304.027 27.6347 304.433 28.0453 304.722 28.568C305.021 29.0813 305.17 29.6553 305.17 30.29C305.17 30.3927 305.166 30.5 305.156 30.612C305.156 30.724 305.152 30.8407 305.142 30.962H299.864C299.902 31.5033 300.088 31.928 300.424 32.236C300.77 32.544 301.185 32.698 301.67 32.698C302.034 32.698 302.338 32.6187 302.58 32.46C302.832 32.292 303.019 32.0773 303.14 31.816H304.96C304.83 32.2547 304.61 32.656 304.302 33.02C304.004 33.3747 303.63 33.6547 303.182 33.86C302.744 34.0653 302.244 34.168 301.684 34.168ZM301.698 28.344C301.26 28.344 300.872 28.47 300.536 28.722C300.2 28.9647 299.986 29.338 299.892 29.842H303.35C303.322 29.3847 303.154 29.0207 302.846 28.75C302.538 28.4793 302.156 28.344 301.698 28.344ZM306.678 34V27.056H308.274L308.442 28.358C308.694 27.91 309.034 27.5553 309.464 27.294C309.902 27.0233 310.416 26.888 311.004 26.888V28.778H310.5C310.108 28.778 309.758 28.8387 309.45 28.96C309.142 29.0813 308.899 29.2913 308.722 29.59C308.554 29.8887 308.47 30.304 308.47 30.836V34H306.678ZM313.096 37.08L314.706 33.538H314.286L311.584 27.056H313.53L315.476 31.942L317.506 27.056H319.41L315 37.08H313.096Z" fill="#EB6079"/>
<path d="M382.599 34.168C381.61 34.168 380.76 33.958 380.051 33.538C379.342 33.1087 378.796 32.516 378.413 31.76C378.03 30.9947 377.839 30.1127 377.839 29.114C377.839 28.1153 378.03 27.2333 378.413 26.468C378.796 25.7027 379.342 25.1053 380.051 24.676C380.76 24.2467 381.61 24.032 382.599 24.032C383.775 24.032 384.736 24.326 385.483 24.914C386.239 25.4927 386.71 26.3093 386.897 27.364H384.923C384.802 26.832 384.54 26.4167 384.139 26.118C383.747 25.81 383.224 25.656 382.571 25.656C381.666 25.656 380.956 25.964 380.443 26.58C379.93 27.196 379.673 28.0407 379.673 29.114C379.673 30.1873 379.93 31.032 380.443 31.648C380.956 32.2547 381.666 32.558 382.571 32.558C383.224 32.558 383.747 32.418 384.139 32.138C384.54 31.8487 384.802 31.452 384.923 30.948H386.897C386.71 31.956 386.239 32.7447 385.483 33.314C384.736 33.8833 383.775 34.168 382.599 34.168ZM390.835 34.168C390.238 34.168 389.748 34.0747 389.365 33.888C388.983 33.692 388.698 33.4353 388.511 33.118C388.325 32.8007 388.231 32.4507 388.231 32.068C388.231 31.424 388.483 30.9013 388.987 30.5C389.491 30.0987 390.247 29.898 391.255 29.898H393.019V29.73C393.019 29.254 392.884 28.904 392.613 28.68C392.343 28.456 392.007 28.344 391.605 28.344C391.241 28.344 390.924 28.4327 390.653 28.61C390.383 28.778 390.215 29.03 390.149 29.366H388.399C388.446 28.862 388.614 28.4233 388.903 28.05C389.202 27.6767 389.585 27.392 390.051 27.196C390.518 26.9907 391.041 26.888 391.619 26.888C392.609 26.888 393.388 27.1353 393.957 27.63C394.527 28.1247 394.811 28.8247 394.811 29.73V34H393.285L393.117 32.88C392.912 33.2533 392.623 33.5613 392.249 33.804C391.885 34.0467 391.414 34.168 390.835 34.168ZM391.241 32.768C391.755 32.768 392.151 32.6 392.431 32.264C392.721 31.928 392.903 31.5127 392.977 31.018H391.451C390.975 31.018 390.635 31.1067 390.429 31.284C390.224 31.452 390.121 31.662 390.121 31.914C390.121 32.1847 390.224 32.3947 390.429 32.544C390.635 32.6933 390.905 32.768 391.241 32.768ZM399.52 34C398.792 34 398.208 33.8227 397.77 33.468C397.331 33.1133 397.112 32.4833 397.112 31.578V28.554H395.922V27.056H397.112L397.322 25.194H398.904V27.056H400.78V28.554H398.904V31.592C398.904 31.928 398.974 32.1613 399.114 32.292C399.263 32.4133 399.515 32.474 399.87 32.474H400.738V34H399.52ZM405.514 34.168C404.814 34.168 404.194 34.0187 403.652 33.72C403.111 33.4213 402.686 33.0013 402.378 32.46C402.07 31.9187 401.916 31.2933 401.916 30.584C401.916 29.8653 402.066 29.226 402.364 28.666C402.672 28.106 403.092 27.672 403.624 27.364C404.166 27.0467 404.8 26.888 405.528 26.888C406.21 26.888 406.812 27.0373 407.334 27.336C407.857 27.6347 408.263 28.0453 408.552 28.568C408.851 29.0813 409 29.6553 409 30.29C409 30.3927 408.996 30.5 408.986 30.612C408.986 30.724 408.982 30.8407 408.972 30.962H403.694C403.732 31.5033 403.918 31.928 404.254 32.236C404.6 32.544 405.015 32.698 405.5 32.698C405.864 32.698 406.168 32.6187 406.41 32.46C406.662 32.292 406.849 32.0773 406.97 31.816H408.79C408.66 32.2547 408.44 32.656 408.132 33.02C407.834 33.3747 407.46 33.6547 407.012 33.86C406.574 34.0653 406.074 34.168 405.514 34.168ZM405.528 28.344C405.09 28.344 404.702 28.47 404.366 28.722C404.03 28.9647 403.816 29.338 403.722 29.842H407.18C407.152 29.3847 406.984 29.0207 406.676 28.75C406.368 28.4793 405.986 28.344 405.528 28.344ZM413.297 31.928C412.961 31.928 412.649 31.8907 412.359 31.816L411.841 32.334C412 32.418 412.215 32.488 412.485 32.544C412.756 32.6 413.195 32.656 413.801 32.712C414.725 32.796 415.397 33.0153 415.817 33.37C416.237 33.7247 416.447 34.2147 416.447 34.84C416.447 35.2507 416.335 35.638 416.111 36.002C415.887 36.3753 415.542 36.674 415.075 36.898C414.609 37.1313 414.011 37.248 413.283 37.248C412.294 37.248 411.496 37.0613 410.889 36.688C410.283 36.324 409.979 35.7733 409.979 35.036C409.979 34.4107 410.283 33.8693 410.889 33.412C410.703 33.328 410.539 33.2393 410.399 33.146C410.269 33.0527 410.152 32.9547 410.049 32.852V32.53L411.267 31.242C410.726 30.766 410.455 30.1547 410.455 29.408C410.455 28.9413 410.567 28.5167 410.791 28.134C411.025 27.7513 411.351 27.448 411.771 27.224C412.191 27 412.7 26.888 413.297 26.888C413.689 26.888 414.053 26.944 414.389 27.056H417.021V28.148L415.831 28.232C416.018 28.5867 416.111 28.9787 416.111 29.408C416.111 29.8747 415.999 30.2993 415.775 30.682C415.551 31.0647 415.225 31.368 414.795 31.592C414.375 31.816 413.876 31.928 413.297 31.928ZM413.297 30.556C413.661 30.556 413.96 30.458 414.193 30.262C414.436 30.066 414.557 29.786 414.557 29.422C414.557 29.058 414.436 28.778 414.193 28.582C413.96 28.386 413.661 28.288 413.297 28.288C412.915 28.288 412.607 28.386 412.373 28.582C412.14 28.778 412.023 29.058 412.023 29.422C412.023 29.786 412.14 30.066 412.373 30.262C412.607 30.458 412.915 30.556 413.297 30.556ZM411.617 34.854C411.617 35.1993 411.776 35.456 412.093 35.624C412.42 35.8013 412.817 35.89 413.283 35.89C413.731 35.89 414.095 35.7967 414.375 35.61C414.655 35.4327 414.795 35.19 414.795 34.882C414.795 34.63 414.702 34.42 414.515 34.252C414.338 34.084 413.979 33.9813 413.437 33.944C413.055 33.916 412.7 33.874 412.373 33.818C412.103 33.9673 411.907 34.1307 411.785 34.308C411.673 34.4853 411.617 34.6673 411.617 34.854ZM421.387 34.168C420.715 34.168 420.108 34.014 419.567 33.706C419.035 33.398 418.61 32.9733 418.293 32.432C417.985 31.8813 417.831 31.2467 417.831 30.528C417.831 29.8093 417.989 29.1793 418.307 28.638C418.624 28.0873 419.049 27.658 419.581 27.35C420.122 27.042 420.729 26.888 421.401 26.888C422.063 26.888 422.661 27.042 423.193 27.35C423.734 27.658 424.159 28.0873 424.467 28.638C424.784 29.1793 424.943 29.8093 424.943 30.528C424.943 31.2467 424.784 31.8813 424.467 32.432C424.159 32.9733 423.734 33.398 423.193 33.706C422.651 34.014 422.049 34.168 421.387 34.168ZM421.387 32.614C421.853 32.614 422.259 32.4413 422.605 32.096C422.95 31.7413 423.123 31.2187 423.123 30.528C423.123 29.8373 422.95 29.3193 422.605 28.974C422.259 28.6193 421.858 28.442 421.401 28.442C420.925 28.442 420.514 28.6193 420.169 28.974C419.833 29.3193 419.665 29.8373 419.665 30.528C419.665 31.2187 419.833 31.7413 420.169 32.096C420.514 32.4413 420.92 32.614 421.387 32.614ZM426.545 34V27.056H428.141L428.309 28.358C428.561 27.91 428.901 27.5553 429.331 27.294C429.769 27.0233 430.283 26.888 430.871 26.888V28.778H430.367C429.975 28.778 429.625 28.8387 429.317 28.96C429.009 29.0813 428.766 29.2913 428.589 29.59C428.421 29.8887 428.337 30.304 428.337 30.836V34H426.545ZM433.062 25.978C432.735 25.978 432.464 25.88 432.25 25.684C432.044 25.488 431.942 25.2407 431.942 24.942C431.942 24.6433 432.044 24.4007 432.25 24.214C432.464 24.018 432.735 23.92 433.062 23.92C433.388 23.92 433.654 24.018 433.86 24.214C434.074 24.4007 434.182 24.6433 434.182 24.942C434.182 25.2407 434.074 25.488 433.86 25.684C433.654 25.88 433.388 25.978 433.062 25.978ZM432.166 34V27.056H433.958V34H432.166ZM439.202 34.168C438.502 34.168 437.881 34.0187 437.34 33.72C436.799 33.4213 436.374 33.0013 436.066 32.46C435.758 31.9187 435.604 31.2933 435.604 30.584C435.604 29.8653 435.753 29.226 436.052 28.666C436.36 28.106 436.78 27.672 437.312 27.364C437.853 27.0467 438.488 26.888 439.216 26.888C439.897 26.888 440.499 27.0373 441.022 27.336C441.545 27.6347 441.951 28.0453 442.24 28.568C442.539 29.0813 442.688 29.6553 442.688 30.29C442.688 30.3927 442.683 30.5 442.674 30.612C442.674 30.724 442.669 30.8407 442.66 30.962H437.382C437.419 31.5033 437.606 31.928 437.942 32.236C438.287 32.544 438.703 32.698 439.188 32.698C439.552 32.698 439.855 32.6187 440.098 32.46C440.35 32.292 440.537 32.0773 440.658 31.816H442.478C442.347 32.2547 442.128 32.656 441.82 33.02C441.521 33.3747 441.148 33.6547 440.7 33.86C440.261 34.0653 439.762 34.168 439.202 34.168ZM439.216 28.344C438.777 28.344 438.39 28.47 438.054 28.722C437.718 28.9647 437.503 29.338 437.41 29.842H440.868C440.84 29.3847 440.672 29.0207 440.364 28.75C440.056 28.4793 439.673 28.344 439.216 28.344ZM447.065 34.168C446.449 34.168 445.908 34.07 445.441 33.874C444.974 33.6687 444.601 33.3887 444.321 33.034C444.041 32.6793 443.873 32.2687 443.817 31.802H445.623C445.679 32.0727 445.828 32.306 446.071 32.502C446.323 32.6887 446.645 32.782 447.037 32.782C447.429 32.782 447.714 32.7027 447.891 32.544C448.078 32.3853 448.171 32.2033 448.171 31.998C448.171 31.6993 448.04 31.4987 447.779 31.396C447.518 31.284 447.154 31.1767 446.687 31.074C446.388 31.0087 446.085 30.9293 445.777 30.836C445.469 30.7427 445.184 30.626 444.923 30.486C444.671 30.3367 444.466 30.15 444.307 29.926C444.148 29.6927 444.069 29.408 444.069 29.072C444.069 28.456 444.312 27.938 444.797 27.518C445.292 27.098 445.982 26.888 446.869 26.888C447.69 26.888 448.344 27.0793 448.829 27.462C449.324 27.8447 449.618 28.372 449.711 29.044H448.017C447.914 28.5307 447.527 28.274 446.855 28.274C446.519 28.274 446.258 28.3393 446.071 28.47C445.894 28.6007 445.805 28.764 445.805 28.96C445.805 29.1653 445.94 29.3287 446.211 29.45C446.482 29.5713 446.841 29.6833 447.289 29.786C447.774 29.898 448.218 30.024 448.619 30.164C449.03 30.2947 449.356 30.4953 449.599 30.766C449.842 31.0273 449.963 31.4053 449.963 31.9C449.972 32.3293 449.86 32.7167 449.627 33.062C449.394 33.4073 449.058 33.678 448.619 33.874C448.18 34.07 447.662 34.168 447.065 34.168ZM458.065 34.154C457.346 34.154 456.721 34.0327 456.189 33.79C455.657 33.538 455.241 33.188 454.943 32.74C454.653 32.292 454.509 31.7693 454.509 31.172C454.509 30.5373 454.686 29.9633 455.041 29.45C455.395 28.9367 455.923 28.526 456.623 28.218C456.343 27.8913 456.142 27.5833 456.021 27.294C455.899 27.0047 455.839 26.6967 455.839 26.37C455.839 25.922 455.951 25.5253 456.175 25.18C456.399 24.8253 456.716 24.5453 457.127 24.34C457.547 24.1347 458.046 24.032 458.625 24.032C459.213 24.032 459.712 24.1393 460.123 24.354C460.533 24.5687 460.841 24.858 461.047 25.222C461.261 25.586 461.359 25.992 461.341 26.44H459.633C459.633 26.0947 459.53 25.838 459.325 25.67C459.129 25.4927 458.891 25.404 458.611 25.404C458.293 25.404 458.037 25.4927 457.841 25.67C457.654 25.8473 457.561 26.076 457.561 26.356C457.561 26.5893 457.635 26.8273 457.785 27.07C457.934 27.3127 458.153 27.5927 458.443 27.91L461.187 30.626C461.383 30.3087 461.588 29.94 461.803 29.52L462.111 28.904H463.945L463.455 29.856C463.081 30.612 462.708 31.2513 462.335 31.774L464.589 34H462.447L461.355 32.908C460.879 33.3467 460.37 33.664 459.829 33.86C459.297 34.056 458.709 34.154 458.065 34.154ZM456.245 31.06C456.245 31.5173 456.413 31.9047 456.749 32.222C457.094 32.53 457.551 32.684 458.121 32.684C458.933 32.684 459.637 32.3947 460.235 31.816L457.645 29.254C457.169 29.4593 456.814 29.716 456.581 30.024C456.357 30.332 456.245 30.6773 456.245 31.06ZM391.142 52V42.2H394.768C395.552 42.2 396.201 42.3307 396.714 42.592C397.228 42.8533 397.61 43.2127 397.862 43.67C398.114 44.1273 398.24 44.6407 398.24 45.21C398.24 45.7513 398.119 46.2507 397.876 46.708C397.634 47.156 397.256 47.52 396.742 47.8C396.229 48.0707 395.571 48.206 394.768 48.206H392.934V52H391.142ZM392.934 46.75H394.656C395.282 46.75 395.73 46.6147 396 46.344C396.28 46.064 396.42 45.686 396.42 45.21C396.42 44.7247 396.28 44.3467 396 44.076C395.73 43.796 395.282 43.656 394.656 43.656H392.934V46.75ZM399.604 52V45.056H401.2L401.368 46.358C401.62 45.91 401.961 45.5553 402.39 45.294C402.829 45.0233 403.342 44.888 403.93 44.888V46.778H403.426C403.034 46.778 402.684 46.8387 402.376 46.96C402.068 47.0813 401.826 47.2913 401.648 47.59C401.48 47.8887 401.396 48.304 401.396 48.836V52H399.604ZM408.364 52.168C407.692 52.168 407.085 52.014 406.544 51.706C406.012 51.398 405.587 50.9733 405.27 50.432C404.962 49.8813 404.808 49.2467 404.808 48.528C404.808 47.8093 404.967 47.1793 405.284 46.638C405.601 46.0873 406.026 45.658 406.558 45.35C407.099 45.042 407.706 44.888 408.378 44.888C409.041 44.888 409.638 45.042 410.17 45.35C410.711 45.658 411.136 46.0873 411.444 46.638C411.761 47.1793 411.92 47.8093 411.92 48.528C411.92 49.2467 411.761 49.8813 411.444 50.432C411.136 50.9733 410.711 51.398 410.17 51.706C409.629 52.014 409.027 52.168 408.364 52.168ZM408.364 50.614C408.831 50.614 409.237 50.4413 409.582 50.096C409.927 49.7413 410.1 49.2187 410.1 48.528C410.1 47.8373 409.927 47.3193 409.582 46.974C409.237 46.6193 408.835 46.442 408.378 46.442C407.902 46.442 407.491 46.6193 407.146 46.974C406.81 47.3193 406.642 47.8373 406.642 48.528C406.642 49.2187 406.81 49.7413 407.146 50.096C407.491 50.4413 407.897 50.614 408.364 50.614ZM416.714 52.168C416.061 52.168 415.478 52.0093 414.964 51.692C414.451 51.3747 414.045 50.9407 413.746 50.39C413.448 49.8393 413.298 49.214 413.298 48.514C413.298 47.814 413.448 47.1933 413.746 46.652C414.045 46.1013 414.451 45.672 414.964 45.364C415.478 45.0467 416.061 44.888 416.714 44.888C417.237 44.888 417.694 44.986 418.086 45.182C418.478 45.378 418.796 45.6533 419.038 46.008V41.92H420.83V52H419.234L419.038 51.006C418.814 51.314 418.516 51.5847 418.142 51.818C417.778 52.0513 417.302 52.168 416.714 52.168ZM417.092 50.6C417.671 50.6 418.142 50.4087 418.506 50.026C418.88 49.634 419.066 49.1347 419.066 48.528C419.066 47.9213 418.88 47.4267 418.506 47.044C418.142 46.652 417.671 46.456 417.092 46.456C416.523 46.456 416.052 46.6473 415.678 47.03C415.305 47.4127 415.118 47.9073 415.118 48.514C415.118 49.1207 415.305 49.62 415.678 50.012C416.052 50.404 416.523 50.6 417.092 50.6ZM425.259 52.168C424.391 52.168 423.719 51.8973 423.243 51.356C422.776 50.8147 422.543 50.0213 422.543 48.976V45.056H424.321V48.808C424.321 49.4053 424.442 49.8627 424.685 50.18C424.928 50.4973 425.31 50.656 425.833 50.656C426.328 50.656 426.734 50.4787 427.051 50.124C427.378 49.7693 427.541 49.2747 427.541 48.64V45.056H429.333V52H427.751L427.611 50.824C427.396 51.2347 427.084 51.5613 426.673 51.804C426.272 52.0467 425.8 52.168 425.259 52.168ZM434.575 52.168C433.865 52.168 433.24 52.014 432.699 51.706C432.157 51.398 431.728 50.9687 431.411 50.418C431.103 49.8673 430.949 49.2373 430.949 48.528C430.949 47.8187 431.103 47.1887 431.411 46.638C431.728 46.0873 432.157 45.658 432.699 45.35C433.24 45.042 433.865 44.888 434.575 44.888C435.461 44.888 436.208 45.1213 436.815 45.588C437.421 46.0453 437.809 46.68 437.977 47.492H436.087C435.993 47.156 435.807 46.8947 435.527 46.708C435.256 46.512 434.934 46.414 434.561 46.414C434.066 46.414 433.646 46.6007 433.301 46.974C432.955 47.3473 432.783 47.8653 432.783 48.528C432.783 49.1907 432.955 49.7087 433.301 50.082C433.646 50.4553 434.066 50.642 434.561 50.642C434.934 50.642 435.256 50.5487 435.527 50.362C435.807 50.1753 435.993 49.9093 436.087 49.564H437.977C437.809 50.348 437.421 50.978 436.815 51.454C436.208 51.93 435.461 52.168 434.575 52.168ZM442.566 52C441.838 52 441.254 51.8227 440.816 51.468C440.377 51.1133 440.158 50.4833 440.158 49.578V46.554H438.968V45.056H440.158L440.368 43.194H441.95V45.056H443.826V46.554H441.95V49.592C441.95 49.928 442.02 50.1613 442.16 50.292C442.309 50.4133 442.561 50.474 442.916 50.474H443.784V52H442.566ZM448.234 52.168C447.618 52.168 447.077 52.07 446.61 51.874C446.143 51.6687 445.77 51.3887 445.49 51.034C445.21 50.6793 445.042 50.2687 444.986 49.802H446.792C446.848 50.0727 446.997 50.306 447.24 50.502C447.492 50.6887 447.814 50.782 448.206 50.782C448.598 50.782 448.883 50.7027 449.06 50.544C449.247 50.3853 449.34 50.2033 449.34 49.998C449.34 49.6993 449.209 49.4987 448.948 49.396C448.687 49.284 448.323 49.1767 447.856 49.074C447.557 49.0087 447.254 48.9293 446.946 48.836C446.638 48.7427 446.353 48.626 446.092 48.486C445.84 48.3367 445.635 48.15 445.476 47.926C445.317 47.6927 445.238 47.408 445.238 47.072C445.238 46.456 445.481 45.938 445.966 45.518C446.461 45.098 447.151 44.888 448.038 44.888C448.859 44.888 449.513 45.0793 449.998 45.462C450.493 45.8447 450.787 46.372 450.88 47.044H449.186C449.083 46.5307 448.696 46.274 448.024 46.274C447.688 46.274 447.427 46.3393 447.24 46.47C447.063 46.6007 446.974 46.764 446.974 46.96C446.974 47.1653 447.109 47.3287 447.38 47.45C447.651 47.5713 448.01 47.6833 448.458 47.786C448.943 47.898 449.387 48.024 449.788 48.164C450.199 48.2947 450.525 48.4953 450.768 48.766C451.011 49.0273 451.132 49.4053 451.132 49.9C451.141 50.3293 451.029 50.7167 450.796 51.062C450.563 51.4073 450.227 51.678 449.788 51.874C449.349 52.07 448.831 52.168 448.234 52.168Z" fill="#EB6079"/>
<path d="M524.362 34.168C523.643 34.168 523.018 34.0373 522.486 33.776C521.954 33.5147 521.543 33.1507 521.254 32.684C520.965 32.2173 520.82 31.676 520.82 31.06H522.052C522.052 31.4427 522.141 31.7973 522.318 32.124C522.495 32.4413 522.752 32.698 523.088 32.894C523.433 33.0807 523.858 33.174 524.362 33.174C525.025 33.174 525.538 33.0153 525.902 32.698C526.266 32.3807 526.448 31.984 526.448 31.508C526.448 31.116 526.364 30.8033 526.196 30.57C526.028 30.3273 525.799 30.1313 525.51 29.982C525.23 29.8327 524.903 29.702 524.53 29.59C524.166 29.478 523.783 29.352 523.382 29.212C522.626 28.9507 522.066 28.6287 521.702 28.246C521.338 27.854 521.156 27.3453 521.156 26.72C521.147 26.1973 521.268 25.7353 521.52 25.334C521.772 24.9233 522.127 24.606 522.584 24.382C523.051 24.1487 523.601 24.032 524.236 24.032C524.861 24.032 525.403 24.1487 525.86 24.382C526.327 24.6153 526.686 24.9373 526.938 25.348C527.199 25.7587 527.335 26.2253 527.344 26.748H526.112C526.112 26.4773 526.042 26.2113 525.902 25.95C525.762 25.6793 525.547 25.46 525.258 25.292C524.978 25.124 524.623 25.04 524.194 25.04C523.662 25.0307 523.223 25.166 522.878 25.446C522.542 25.726 522.374 26.1133 522.374 26.608C522.374 27.028 522.491 27.35 522.724 27.574C522.967 27.798 523.303 27.9847 523.732 28.134C524.161 28.274 524.656 28.4373 525.216 28.624C525.683 28.792 526.103 28.988 526.476 29.212C526.849 29.436 527.139 29.7253 527.344 30.08C527.559 30.4347 527.666 30.8873 527.666 31.438C527.666 31.9047 527.545 32.348 527.302 32.768C527.059 33.1787 526.691 33.5147 526.196 33.776C525.711 34.0373 525.099 34.168 524.362 34.168ZM531.798 34.168C530.977 34.168 530.323 33.9207 529.838 33.426C529.353 32.922 529.11 32.152 529.11 31.116V27.056H530.286V30.99C530.286 32.4367 530.879 33.16 532.064 33.16C532.671 33.16 533.17 32.9453 533.562 32.516C533.963 32.0773 534.164 31.4567 534.164 30.654V27.056H535.34V34H534.276L534.192 32.754C533.977 33.1927 533.655 33.538 533.226 33.79C532.806 34.042 532.33 34.168 531.798 34.168ZM537.276 34V27.056H538.34L538.424 28.064C538.648 27.6907 538.946 27.4013 539.32 27.196C539.693 26.9907 540.113 26.888 540.58 26.888C541.13 26.888 541.602 27 541.994 27.224C542.395 27.448 542.703 27.7887 542.918 28.246C543.16 27.826 543.492 27.4947 543.912 27.252C544.341 27.0093 544.803 26.888 545.298 26.888C546.128 26.888 546.791 27.14 547.286 27.644C547.78 28.1387 548.028 28.904 548.028 29.94V34H546.866V30.066C546.866 29.3473 546.721 28.806 546.432 28.442C546.142 28.078 545.727 27.896 545.186 27.896C544.626 27.896 544.159 28.1153 543.786 28.554C543.422 28.9833 543.24 29.5993 543.24 30.402V34H542.064V30.066C542.064 29.3473 541.919 28.806 541.63 28.442C541.34 28.078 540.925 27.896 540.384 27.896C539.833 27.896 539.371 28.1153 538.998 28.554C538.634 28.9833 538.452 29.5993 538.452 30.402V34H537.276ZM549.799 34V27.056H550.863L550.947 28.064C551.171 27.6907 551.47 27.4013 551.843 27.196C552.216 26.9907 552.636 26.888 553.103 26.888C553.654 26.888 554.125 27 554.517 27.224C554.918 27.448 555.226 27.7887 555.441 28.246C555.684 27.826 556.015 27.4947 556.435 27.252C556.864 27.0093 557.326 26.888 557.821 26.888C558.652 26.888 559.314 27.14 559.809 27.644C560.304 28.1387 560.551 28.904 560.551 29.94V34H559.389V30.066C559.389 29.3473 559.244 28.806 558.955 28.442C558.666 28.078 558.25 27.896 557.709 27.896C557.149 27.896 556.682 28.1153 556.309 28.554C555.945 28.9833 555.763 29.5993 555.763 30.402V34H554.587V30.066C554.587 29.3473 554.442 28.806 554.153 28.442C553.864 28.078 553.448 27.896 552.907 27.896C552.356 27.896 551.894 28.1153 551.521 28.554C551.157 28.9833 550.975 29.5993 550.975 30.402V34H549.799ZM564.632 34.168C564.054 34.168 563.573 34.07 563.19 33.874C562.808 33.678 562.523 33.4167 562.336 33.09C562.15 32.7633 562.056 32.4087 562.056 32.026C562.056 31.3167 562.327 30.7707 562.868 30.388C563.41 30.0053 564.147 29.814 565.08 29.814H566.956V29.73C566.956 29.1233 566.798 28.666 566.48 28.358C566.163 28.0407 565.738 27.882 565.206 27.882C564.749 27.882 564.352 27.9987 564.016 28.232C563.69 28.456 563.484 28.7873 563.4 29.226H562.196C562.243 28.722 562.411 28.2973 562.7 27.952C562.999 27.6067 563.368 27.3453 563.806 27.168C564.245 26.9813 564.712 26.888 565.206 26.888C566.177 26.888 566.905 27.1493 567.39 27.672C567.885 28.1853 568.132 28.8713 568.132 29.73V34H567.082L567.012 32.754C566.816 33.146 566.527 33.482 566.144 33.762C565.771 34.0327 565.267 34.168 564.632 34.168ZM564.814 33.174C565.262 33.174 565.645 33.0573 565.962 32.824C566.289 32.5907 566.536 32.2873 566.704 31.914C566.872 31.5407 566.956 31.1487 566.956 30.738V30.724H565.178C564.488 30.724 563.998 30.8453 563.708 31.088C563.428 31.3213 563.288 31.6153 563.288 31.97C563.288 32.334 563.419 32.628 563.68 32.852C563.951 33.0667 564.329 33.174 564.814 33.174ZM569.897 34V27.056H570.961L571.059 28.386C571.273 27.9287 571.6 27.5647 572.039 27.294C572.477 27.0233 573.019 26.888 573.663 26.888V28.12H573.341C572.93 28.12 572.552 28.1947 572.207 28.344C571.861 28.484 571.586 28.7267 571.381 29.072C571.175 29.4173 571.073 29.8933 571.073 30.5V34H569.897ZM575.739 37.08L577.461 33.328H577.055L574.297 27.056H575.571L577.867 32.46L580.303 27.056H581.521L576.971 37.08H575.739Z" fill="#576B75"/>
<circle cx="32" cy="6" r="6" fill="#EB6079"/>
<line x1="46" y1="5.5" x2="146" y2="5.5" stroke="#EB6079" stroke-width="3"/>
<circle cx="162" cy="6" r="6" fill="#EB6079"/>
<line x1="176" y1="5.5" x2="276" y2="5.5" stroke="#EB6079" stroke-width="3"/>
<circle cx="292" cy="6" r="6" fill="#EB6079"/>
<line x1="306" y1="5.5" x2="406" y2="5.5" stroke="#EB6079" stroke-width="3"/>
<circle cx="422" cy="6" r="6" fill="#EB6079"/>
<line x1="436" y1="5.5" x2="536" y2="5.5" stroke="#B9B9C4"/>
<circle cx="552" cy="6" r="5.5" fill="white" stroke="#B9B9C4"/>
</g>
<defs>
<filter id="filter0_d_120:11987" x="0.962891" y="0" width="584.558" height="60.168" filterUnits="userSpaceOnUse" color-interpolation-filters="sRGB">
<feFlood flood-opacity="0" result="BackgroundImageFix"/>
<feColorMatrix in="SourceAlpha" type="matrix" values="0 0 0 0 0 0 0 0 0 0 0 0 0 0 0 0 0 0 127 0" result="hardAlpha"/>
<feOffset dy="4"/>
<feGaussianBlur stdDeviation="2"/>
<feComposite in2="hardAlpha" operator="out"/>
<feColorMatrix type="matrix" values="0 0 0 0 0 0 0 0 0 0 0 0 0 0 0 0 0 0 0.25 0"/>
<feBlend mode="normal" in2="BackgroundImageFix" result="effect1_dropShadow_120:11987"/>
<feBlend mode="normal" in="SourceGraphic" in2="effect1_dropShadow_120:11987" result="shape"/>
</filter>
</defs>
</svg>
