<svg width="578" height="56" viewBox="0 0 578 56" fill="none" xmlns="http://www.w3.org/2000/svg">
<path d="M5.56901 34.168C4.64501 34.168 3.83767 33.958 3.14701 33.538C2.45634 33.118 1.91967 32.5347 1.53701 31.788C1.15434 31.032 0.963008 30.1547 0.963008 29.156C0.963008 28.148 1.15901 27.2613 1.55101 26.496C1.95234 25.7213 2.51701 25.1193 3.24501 24.69C3.98234 24.2513 4.85501 24.032 5.86301 24.032C7.01101 24.032 7.96301 24.3073 8.71901 24.858C9.47501 25.4087 9.96501 26.1693 10.189 27.14H8.18701C8.03767 26.6827 7.76701 26.328 7.37501 26.076C6.98301 25.8147 6.47901 25.684 5.86301 25.684C4.88301 25.684 4.12701 25.9967 3.59501 26.622C3.06301 27.238 2.79701 28.0873 2.79701 29.17C2.79701 30.2527 3.05834 31.0927 3.58101 31.69C4.11301 32.278 4.83167 32.572 5.73701 32.572C6.62367 32.572 7.29101 32.334 7.73901 31.858C8.19634 31.3727 8.47167 30.738 8.56501 29.954H6.08701V28.61H10.371V34H8.71901L8.57901 32.712C8.26167 33.1787 7.86501 33.538 7.38901 33.79C6.91301 34.042 6.30634 34.168 5.56901 34.168ZM15.4451 34.168C14.7451 34.168 14.1245 34.0187 13.5831 33.72C13.0418 33.4213 12.6171 33.0013 12.3091 32.46C12.0011 31.9187 11.8471 31.2933 11.8471 30.584C11.8471 29.8653 11.9965 29.226 12.2951 28.666C12.6031 28.106 13.0231 27.672 13.5551 27.364C14.0965 27.0467 14.7311 26.888 15.4591 26.888C16.1405 26.888 16.7425 27.0373 17.2651 27.336C17.7878 27.6347 18.1938 28.0453 18.4831 28.568C18.7818 29.0813 18.9311 29.6553 18.9311 30.29C18.9311 30.3927 18.9265 30.5 18.9171 30.612C18.9171 30.724 18.9125 30.8407 18.9031 30.962H13.6251C13.6625 31.5033 13.8491 31.928 14.1851 32.236C14.5305 32.544 14.9458 32.698 15.4311 32.698C15.7951 32.698 16.0985 32.6187 16.3411 32.46C16.5931 32.292 16.7798 32.0773 16.9011 31.816H18.7211C18.5905 32.2547 18.3711 32.656 18.0631 33.02C17.7645 33.3747 17.3911 33.6547 16.9431 33.86C16.5045 34.0653 16.0051 34.168 15.4451 34.168ZM15.4591 28.344C15.0205 28.344 14.6331 28.47 14.2971 28.722C13.9611 28.9647 13.7465 29.338 13.6531 29.842H17.1111C17.0831 29.3847 16.9151 29.0207 16.6071 28.75C16.2991 28.4793 15.9165 28.344 15.4591 28.344ZM20.4383 34V27.056H22.0203L22.1603 28.232C22.375 27.8213 22.683 27.4947 23.0843 27.252C23.495 27.0093 23.9757 26.888 24.5263 26.888C25.385 26.888 26.0523 27.1587 26.5283 27.7C27.0043 28.2413 27.2423 29.0347 27.2423 30.08V34H25.4503V30.248C25.4503 29.6507 25.329 29.1933 25.0863 28.876C24.8437 28.5587 24.4657 28.4 23.9523 28.4C23.4483 28.4 23.033 28.5773 22.7063 28.932C22.389 29.2867 22.2303 29.7813 22.2303 30.416V34H20.4383ZM32.3299 34.168C31.6299 34.168 31.0092 34.0187 30.4679 33.72C29.9266 33.4213 29.5019 33.0013 29.1939 32.46C28.8859 31.9187 28.7319 31.2933 28.7319 30.584C28.7319 29.8653 28.8812 29.226 29.1799 28.666C29.4879 28.106 29.9079 27.672 30.4399 27.364C30.9812 27.0467 31.6159 26.888 32.3439 26.888C33.0252 26.888 33.6272 27.0373 34.1499 27.336C34.6726 27.6347 35.0786 28.0453 35.3679 28.568C35.6666 29.0813 35.8159 29.6553 35.8159 30.29C35.8159 30.3927 35.8112 30.5 35.8019 30.612C35.8019 30.724 35.7972 30.8407 35.7879 30.962H30.5099C30.5472 31.5033 30.7339 31.928 31.0699 32.236C31.4152 32.544 31.8306 32.698 32.3159 32.698C32.6799 32.698 32.9832 32.6187 33.2259 32.46C33.4779 32.292 33.6646 32.0773 33.7859 31.816H35.6059C35.4752 32.2547 35.2559 32.656 34.9479 33.02C34.6492 33.3747 34.2759 33.6547 33.8279 33.86C33.3892 34.0653 32.8899 34.168 32.3299 34.168ZM32.3439 28.344C31.9052 28.344 31.5179 28.47 31.1819 28.722C30.8459 28.9647 30.6312 29.338 30.5379 29.842H33.9959C33.9679 29.3847 33.7999 29.0207 33.4919 28.75C33.1839 28.4793 32.8012 28.344 32.3439 28.344ZM37.3231 34V27.056H38.9191L39.0871 28.358C39.3391 27.91 39.6798 27.5553 40.1091 27.294C40.5478 27.0233 41.0611 26.888 41.6491 26.888V28.778H41.1451C40.7531 28.778 40.4031 28.8387 40.0951 28.96C39.7871 29.0813 39.5444 29.2913 39.3671 29.59C39.1991 29.8887 39.1151 30.304 39.1151 30.836V34H37.3231ZM45.2679 34.168C44.6705 34.168 44.1805 34.0747 43.7979 33.888C43.4152 33.692 43.1305 33.4353 42.9439 33.118C42.7572 32.8007 42.6639 32.4507 42.6639 32.068C42.6639 31.424 42.9159 30.9013 43.4199 30.5C43.9239 30.0987 44.6799 29.898 45.6879 29.898H47.4519V29.73C47.4519 29.254 47.3165 28.904 47.0459 28.68C46.7752 28.456 46.4392 28.344 46.0379 28.344C45.6739 28.344 45.3565 28.4327 45.0859 28.61C44.8152 28.778 44.6472 29.03 44.5819 29.366H42.8319C42.8785 28.862 43.0465 28.4233 43.3359 28.05C43.6345 27.6767 44.0172 27.392 44.4839 27.196C44.9505 26.9907 45.4732 26.888 46.0519 26.888C47.0412 26.888 47.8205 27.1353 48.3899 27.63C48.9592 28.1247 49.2439 28.8247 49.2439 29.73V34H47.7179L47.5499 32.88C47.3445 33.2533 47.0552 33.5613 46.6819 33.804C46.3179 34.0467 45.8465 34.168 45.2679 34.168ZM45.6739 32.768C46.1872 32.768 46.5839 32.6 46.8639 32.264C47.1532 31.928 47.3352 31.5127 47.4099 31.018H45.8839C45.4079 31.018 45.0672 31.1067 44.8619 31.284C44.6565 31.452 44.5539 31.662 44.5539 31.914C44.5539 32.1847 44.6565 32.3947 44.8619 32.544C45.0672 32.6933 45.3379 32.768 45.6739 32.768ZM50.9539 34V23.92H52.7459V34H50.9539Z" fill="#EB6079"/>
<path d="M121.299 34V24.2H124.925C125.709 24.2 126.357 24.3307 126.871 24.592C127.384 24.8533 127.767 25.2127 128.019 25.67C128.271 26.1273 128.397 26.6407 128.397 27.21C128.397 27.7513 128.275 28.2507 128.033 28.708C127.79 29.156 127.412 29.52 126.899 29.8C126.385 30.0707 125.727 30.206 124.925 30.206H123.091V34H121.299ZM123.091 28.75H124.813C125.438 28.75 125.886 28.6147 126.157 28.344C126.437 28.064 126.577 27.686 126.577 27.21C126.577 26.7247 126.437 26.3467 126.157 26.076C125.886 25.796 125.438 25.656 124.813 25.656H123.091V28.75ZM131.717 34.168C131.12 34.168 130.63 34.0747 130.247 33.888C129.864 33.692 129.58 33.4353 129.393 33.118C129.206 32.8007 129.113 32.4507 129.113 32.068C129.113 31.424 129.365 30.9013 129.869 30.5C130.373 30.0987 131.129 29.898 132.137 29.898H133.901V29.73C133.901 29.254 133.766 28.904 133.495 28.68C133.224 28.456 132.888 28.344 132.487 28.344C132.123 28.344 131.806 28.4327 131.535 28.61C131.264 28.778 131.096 29.03 131.031 29.366H129.281C129.328 28.862 129.496 28.4233 129.785 28.05C130.084 27.6767 130.466 27.392 130.933 27.196C131.4 26.9907 131.922 26.888 132.501 26.888C133.49 26.888 134.27 27.1353 134.839 27.63C135.408 28.1247 135.693 28.8247 135.693 29.73V34H134.167L133.999 32.88C133.794 33.2533 133.504 33.5613 133.131 33.804C132.767 34.0467 132.296 34.168 131.717 34.168ZM132.123 32.768C132.636 32.768 133.033 32.6 133.313 32.264C133.602 31.928 133.784 31.5127 133.859 31.018H132.333C131.857 31.018 131.516 31.1067 131.311 31.284C131.106 31.452 131.003 31.662 131.003 31.914C131.003 32.1847 131.106 32.3947 131.311 32.544C131.516 32.6933 131.787 32.768 132.123 32.768ZM138.039 37.08L139.649 33.538H139.229L136.527 27.056H138.473L140.419 31.942L142.449 27.056H144.353L139.943 37.08H138.039ZM145.524 34V27.056H147.106L147.26 27.994C147.484 27.658 147.778 27.392 148.142 27.196C148.516 26.9907 148.945 26.888 149.43 26.888C150.504 26.888 151.264 27.3033 151.712 28.134C151.964 27.7513 152.3 27.448 152.72 27.224C153.15 27 153.616 26.888 154.12 26.888C155.026 26.888 155.721 27.1587 156.206 27.7C156.692 28.2413 156.934 29.0347 156.934 30.08V34H155.142V30.248C155.142 29.6507 155.026 29.1933 154.792 28.876C154.568 28.5587 154.218 28.4 153.742 28.4C153.257 28.4 152.865 28.5773 152.566 28.932C152.277 29.2867 152.132 29.7813 152.132 30.416V34H150.34V30.248C150.34 29.6507 150.224 29.1933 149.99 28.876C149.757 28.5587 149.398 28.4 148.912 28.4C148.436 28.4 148.049 28.5773 147.75 28.932C147.461 29.2867 147.316 29.7813 147.316 30.416V34H145.524ZM162.01 34.168C161.31 34.168 160.689 34.0187 160.148 33.72C159.606 33.4213 159.182 33.0013 158.874 32.46C158.566 31.9187 158.412 31.2933 158.412 30.584C158.412 29.8653 158.561 29.226 158.86 28.666C159.168 28.106 159.588 27.672 160.12 27.364C160.661 27.0467 161.296 26.888 162.024 26.888C162.705 26.888 163.307 27.0373 163.83 27.336C164.352 27.6347 164.758 28.0453 165.048 28.568C165.346 29.0813 165.496 29.6553 165.496 30.29C165.496 30.3927 165.491 30.5 165.482 30.612C165.482 30.724 165.477 30.8407 165.468 30.962H160.19C160.227 31.5033 160.414 31.928 160.75 32.236C161.095 32.544 161.51 32.698 161.996 32.698C162.36 32.698 162.663 32.6187 162.906 32.46C163.158 32.292 163.344 32.0773 163.466 31.816H165.286C165.155 32.2547 164.936 32.656 164.628 33.02C164.329 33.3747 163.956 33.6547 163.508 33.86C163.069 34.0653 162.57 34.168 162.01 34.168ZM162.024 28.344C161.585 28.344 161.198 28.47 160.862 28.722C160.526 28.9647 160.311 29.338 160.218 29.842H163.676C163.648 29.3847 163.48 29.0207 163.172 28.75C162.864 28.4793 162.481 28.344 162.024 28.344ZM167.003 34V27.056H168.585L168.725 28.232C168.939 27.8213 169.247 27.4947 169.649 27.252C170.059 27.0093 170.54 26.888 171.091 26.888C171.949 26.888 172.617 27.1587 173.093 27.7C173.569 28.2413 173.807 29.0347 173.807 30.08V34H172.015V30.248C172.015 29.6507 171.893 29.1933 171.651 28.876C171.408 28.5587 171.03 28.4 170.517 28.4C170.013 28.4 169.597 28.5773 169.271 28.932C168.953 29.2867 168.795 29.7813 168.795 30.416V34H167.003ZM178.614 34C177.886 34 177.303 33.8227 176.864 33.468C176.426 33.1133 176.206 32.4833 176.206 31.578V28.554H175.016V27.056H176.206L176.416 25.194H177.998V27.056H179.874V28.554H177.998V31.592C177.998 31.928 178.068 32.1613 178.208 32.292C178.358 32.4133 178.61 32.474 178.964 32.474H179.832V34H178.614ZM187.927 34.154C187.208 34.154 186.583 34.0327 186.051 33.79C185.519 33.538 185.104 33.188 184.805 32.74C184.516 32.292 184.371 31.7693 184.371 31.172C184.371 30.5373 184.548 29.9633 184.903 29.45C185.258 28.9367 185.785 28.526 186.485 28.218C186.205 27.8913 186.004 27.5833 185.883 27.294C185.762 27.0047 185.701 26.6967 185.701 26.37C185.701 25.922 185.813 25.5253 186.037 25.18C186.261 24.8253 186.578 24.5453 186.989 24.34C187.409 24.1347 187.908 24.032 188.487 24.032C189.075 24.032 189.574 24.1393 189.985 24.354C190.396 24.5687 190.704 24.858 190.909 25.222C191.124 25.586 191.222 25.992 191.203 26.44H189.495C189.495 26.0947 189.392 25.838 189.187 25.67C188.991 25.4927 188.753 25.404 188.473 25.404C188.156 25.404 187.899 25.4927 187.703 25.67C187.516 25.8473 187.423 26.076 187.423 26.356C187.423 26.5893 187.498 26.8273 187.647 27.07C187.796 27.3127 188.016 27.5927 188.305 27.91L191.049 30.626C191.245 30.3087 191.45 29.94 191.665 29.52L191.973 28.904H193.807L193.317 29.856C192.944 30.612 192.57 31.2513 192.197 31.774L194.451 34H192.309L191.217 32.908C190.741 33.3467 190.232 33.664 189.691 33.86C189.159 34.056 188.571 34.154 187.927 34.154ZM186.107 31.06C186.107 31.5173 186.275 31.9047 186.611 32.222C186.956 32.53 187.414 32.684 187.983 32.684C188.795 32.684 189.5 32.3947 190.097 31.816L187.507 29.254C187.031 29.4593 186.676 29.716 186.443 30.024C186.219 30.332 186.107 30.6773 186.107 31.06ZM132.496 52V42.2H136.094C136.878 42.2 137.522 42.3353 138.026 42.606C138.539 42.8673 138.922 43.2267 139.174 43.684C139.426 44.132 139.552 44.6313 139.552 45.182C139.552 45.7793 139.393 46.3253 139.076 46.82C138.768 47.3147 138.283 47.674 137.62 47.898L139.65 52H137.592L135.772 48.136H134.288V52H132.496ZM134.288 46.82H135.982C136.579 46.82 137.018 46.6753 137.298 46.386C137.578 46.0967 137.718 45.714 137.718 45.238C137.718 44.7713 137.578 44.398 137.298 44.118C137.027 43.838 136.584 43.698 135.968 43.698H134.288V46.82ZM144.127 52.168C143.427 52.168 142.806 52.0187 142.265 51.72C141.723 51.4213 141.299 51.0013 140.991 50.46C140.683 49.9187 140.529 49.2933 140.529 48.584C140.529 47.8653 140.678 47.226 140.977 46.666C141.285 46.106 141.705 45.672 142.237 45.364C142.778 45.0467 143.413 44.888 144.141 44.888C144.822 44.888 145.424 45.0373 145.947 45.336C146.469 45.6347 146.875 46.0453 147.165 46.568C147.463 47.0813 147.613 47.6553 147.613 48.29C147.613 48.3927 147.608 48.5 147.599 48.612C147.599 48.724 147.594 48.8407 147.585 48.962H142.307C142.344 49.5033 142.531 49.928 142.867 50.236C143.212 50.544 143.627 50.698 144.113 50.698C144.477 50.698 144.78 50.6187 145.023 50.46C145.275 50.292 145.461 50.0773 145.583 49.816H147.403C147.272 50.2547 147.053 50.656 146.745 51.02C146.446 51.3747 146.073 51.6547 145.625 51.86C145.186 52.0653 144.687 52.168 144.127 52.168ZM144.141 46.344C143.702 46.344 143.315 46.47 142.979 46.722C142.643 46.9647 142.428 47.338 142.335 47.842H145.793C145.765 47.3847 145.597 47.0207 145.289 46.75C144.981 46.4793 144.598 46.344 144.141 46.344ZM152.522 52.168C151.813 52.168 151.187 52.014 150.646 51.706C150.105 51.398 149.675 50.9687 149.358 50.418C149.05 49.8673 148.896 49.2373 148.896 48.528C148.896 47.8187 149.05 47.1887 149.358 46.638C149.675 46.0873 150.105 45.658 150.646 45.35C151.187 45.042 151.813 44.888 152.522 44.888C153.409 44.888 154.155 45.1213 154.762 45.588C155.369 46.0453 155.756 46.68 155.924 47.492H154.034C153.941 47.156 153.754 46.8947 153.474 46.708C153.203 46.512 152.881 46.414 152.508 46.414C152.013 46.414 151.593 46.6007 151.248 46.974C150.903 47.3473 150.73 47.8653 150.73 48.528C150.73 49.1907 150.903 49.7087 151.248 50.082C151.593 50.4553 152.013 50.642 152.508 50.642C152.881 50.642 153.203 50.5487 153.474 50.362C153.754 50.1753 153.941 49.9093 154.034 49.564H155.924C155.756 50.348 155.369 50.978 154.762 51.454C154.155 51.93 153.409 52.168 152.522 52.168ZM160.888 52.168C160.188 52.168 159.568 52.0187 159.026 51.72C158.485 51.4213 158.06 51.0013 157.752 50.46C157.444 49.9187 157.29 49.2933 157.29 48.584C157.29 47.8653 157.44 47.226 157.738 46.666C158.046 46.106 158.466 45.672 158.998 45.364C159.54 45.0467 160.174 44.888 160.902 44.888C161.584 44.888 162.186 45.0373 162.708 45.336C163.231 45.6347 163.637 46.0453 163.926 46.568C164.225 47.0813 164.374 47.6553 164.374 48.29C164.374 48.3927 164.37 48.5 164.36 48.612C164.36 48.724 164.356 48.8407 164.346 48.962H159.068C159.106 49.5033 159.292 49.928 159.628 50.236C159.974 50.544 160.389 50.698 160.874 50.698C161.238 50.698 161.542 50.6187 161.784 50.46C162.036 50.292 162.223 50.0773 162.344 49.816H164.164C164.034 50.2547 163.814 50.656 163.506 51.02C163.208 51.3747 162.834 51.6547 162.386 51.86C161.948 52.0653 161.448 52.168 160.888 52.168ZM160.902 46.344C160.464 46.344 160.076 46.47 159.74 46.722C159.404 46.9647 159.19 47.338 159.096 47.842H162.554C162.526 47.3847 162.358 47.0207 162.05 46.75C161.742 46.4793 161.36 46.344 160.902 46.344ZM166.848 43.978C166.521 43.978 166.25 43.88 166.036 43.684C165.83 43.488 165.728 43.2407 165.728 42.942C165.728 42.6433 165.83 42.4007 166.036 42.214C166.25 42.018 166.521 41.92 166.848 41.92C167.174 41.92 167.44 42.018 167.646 42.214C167.86 42.4007 167.968 42.6433 167.968 42.942C167.968 43.2407 167.86 43.488 167.646 43.684C167.44 43.88 167.174 43.978 166.848 43.978ZM165.952 52V45.056H167.744V52H165.952ZM169.614 55.08V45.056H171.21L171.406 46.05C171.63 45.742 171.924 45.4713 172.288 45.238C172.661 45.0047 173.142 44.888 173.73 44.888C174.383 44.888 174.967 45.0467 175.48 45.364C175.993 45.6813 176.399 46.1153 176.698 46.666C176.997 47.2167 177.146 47.842 177.146 48.542C177.146 49.242 176.997 49.8673 176.698 50.418C176.399 50.9593 175.993 51.3887 175.48 51.706C174.967 52.014 174.383 52.168 173.73 52.168C173.207 52.168 172.75 52.07 172.358 51.874C171.966 51.678 171.649 51.4027 171.406 51.048V55.08H169.614ZM173.352 50.6C173.921 50.6 174.393 50.4087 174.766 50.026C175.139 49.6433 175.326 49.1487 175.326 48.542C175.326 47.9353 175.139 47.436 174.766 47.044C174.393 46.652 173.921 46.456 173.352 46.456C172.773 46.456 172.297 46.652 171.924 47.044C171.56 47.4267 171.378 47.9213 171.378 48.528C171.378 49.1347 171.56 49.634 171.924 50.026C172.297 50.4087 172.773 50.6 173.352 50.6ZM181.567 52C180.839 52 180.256 51.8227 179.817 51.468C179.379 51.1133 179.159 50.4833 179.159 49.578V46.554H177.969V45.056H179.159L179.369 43.194H180.951V45.056H182.827V46.554H180.951V49.592C180.951 49.928 181.021 50.1613 181.161 50.292C181.311 50.4133 181.563 50.474 181.917 50.474H182.785V52H181.567Z" fill="#EB6079"/>
<path d="M261.28 34V24.2H264.626C265.774 24.2 266.717 24.4053 267.454 24.816C268.201 25.2173 268.751 25.7867 269.106 26.524C269.47 27.252 269.652 28.1107 269.652 29.1C269.652 30.0893 269.47 30.9527 269.106 31.69C268.751 32.418 268.201 32.9873 267.454 33.398C266.717 33.7993 265.774 34 264.626 34H261.28ZM263.072 32.46H264.542C265.363 32.46 266.012 32.3293 266.488 32.068C266.964 31.7973 267.305 31.4147 267.51 30.92C267.715 30.416 267.818 29.8093 267.818 29.1C267.818 28.4 267.715 27.798 267.51 27.294C267.305 26.79 266.964 26.4027 266.488 26.132C266.012 25.8613 265.363 25.726 264.542 25.726H263.072V32.46ZM274.565 34.168C273.865 34.168 273.245 34.0187 272.703 33.72C272.162 33.4213 271.737 33.0013 271.429 32.46C271.121 31.9187 270.967 31.2933 270.967 30.584C270.967 29.8653 271.117 29.226 271.415 28.666C271.723 28.106 272.143 27.672 272.675 27.364C273.217 27.0467 273.851 26.888 274.579 26.888C275.261 26.888 275.863 27.0373 276.385 27.336C276.908 27.6347 277.314 28.0453 277.603 28.568C277.902 29.0813 278.051 29.6553 278.051 30.29C278.051 30.3927 278.047 30.5 278.037 30.612C278.037 30.724 278.033 30.8407 278.023 30.962H272.745C272.783 31.5033 272.969 31.928 273.305 32.236C273.651 32.544 274.066 32.698 274.551 32.698C274.915 32.698 275.219 32.6187 275.461 32.46C275.713 32.292 275.9 32.0773 276.021 31.816H277.841C277.711 32.2547 277.491 32.656 277.183 33.02C276.885 33.3747 276.511 33.6547 276.063 33.86C275.625 34.0653 275.125 34.168 274.565 34.168ZM274.579 28.344C274.141 28.344 273.753 28.47 273.417 28.722C273.081 28.9647 272.867 29.338 272.773 29.842H276.231C276.203 29.3847 276.035 29.0207 275.727 28.75C275.419 28.4793 275.037 28.344 274.579 28.344ZM279.558 34V23.92H281.35V34H279.558ZM284.147 25.978C283.821 25.978 283.55 25.88 283.335 25.684C283.13 25.488 283.027 25.2407 283.027 24.942C283.027 24.6433 283.13 24.4007 283.335 24.214C283.55 24.018 283.821 23.92 284.147 23.92C284.474 23.92 284.74 24.018 284.945 24.214C285.16 24.4007 285.267 24.6433 285.267 24.942C285.267 25.2407 285.16 25.488 284.945 25.684C284.74 25.88 284.474 25.978 284.147 25.978ZM283.251 34V27.056H285.043V34H283.251ZM288.79 34L286.242 27.056H288.118L289.882 32.306L291.646 27.056H293.522L290.96 34H288.79ZM297.684 34.168C296.984 34.168 296.364 34.0187 295.822 33.72C295.281 33.4213 294.856 33.0013 294.548 32.46C294.24 31.9187 294.086 31.2933 294.086 30.584C294.086 29.8653 294.236 29.226 294.534 28.666C294.842 28.106 295.262 27.672 295.794 27.364C296.336 27.0467 296.97 26.888 297.698 26.888C298.38 26.888 298.982 27.0373 299.504 27.336C300.027 27.6347 300.433 28.0453 300.722 28.568C301.021 29.0813 301.17 29.6553 301.17 30.29C301.17 30.3927 301.166 30.5 301.156 30.612C301.156 30.724 301.152 30.8407 301.142 30.962H295.864C295.902 31.5033 296.088 31.928 296.424 32.236C296.77 32.544 297.185 32.698 297.67 32.698C298.034 32.698 298.338 32.6187 298.58 32.46C298.832 32.292 299.019 32.0773 299.14 31.816H300.96C300.83 32.2547 300.61 32.656 300.302 33.02C300.004 33.3747 299.63 33.6547 299.182 33.86C298.744 34.0653 298.244 34.168 297.684 34.168ZM297.698 28.344C297.26 28.344 296.872 28.47 296.536 28.722C296.2 28.9647 295.986 29.338 295.892 29.842H299.35C299.322 29.3847 299.154 29.0207 298.846 28.75C298.538 28.4793 298.156 28.344 297.698 28.344ZM302.678 34V27.056H304.274L304.442 28.358C304.694 27.91 305.034 27.5553 305.464 27.294C305.902 27.0233 306.416 26.888 307.004 26.888V28.778H306.5C306.108 28.778 305.758 28.8387 305.45 28.96C305.142 29.0813 304.899 29.2913 304.722 29.59C304.554 29.8887 304.47 30.304 304.47 30.836V34H302.678ZM309.096 37.08L310.706 33.538H310.286L307.584 27.056H309.53L311.476 31.942L313.506 27.056H315.41L311 37.08H309.096Z" fill="#EB6079"/>
<path d="M380.478 34.168C379.516 34.168 378.686 33.958 377.986 33.538C377.295 33.1087 376.758 32.516 376.376 31.76C375.993 30.9947 375.802 30.108 375.802 29.1C375.802 28.1013 375.993 27.224 376.376 26.468C376.758 25.7027 377.295 25.1053 377.986 24.676C378.686 24.2467 379.516 24.032 380.478 24.032C381.598 24.032 382.508 24.3027 383.208 24.844C383.917 25.376 384.37 26.1227 384.566 27.084H383.264C383.114 26.4773 382.806 25.992 382.34 25.628C381.882 25.2547 381.262 25.068 380.478 25.068C379.778 25.068 379.166 25.2313 378.644 25.558C378.121 25.8753 377.715 26.3373 377.426 26.944C377.146 27.5413 377.006 28.26 377.006 29.1C377.006 29.94 377.146 30.6633 377.426 31.27C377.715 31.8673 378.121 32.3293 378.644 32.656C379.166 32.9733 379.778 33.132 380.478 33.132C381.262 33.132 381.882 32.9547 382.34 32.6C382.806 32.236 383.114 31.7553 383.264 31.158H384.566C384.37 32.1007 383.917 32.838 383.208 33.37C382.508 33.902 381.598 34.168 380.478 34.168ZM388.496 34.168C387.917 34.168 387.436 34.07 387.054 33.874C386.671 33.678 386.386 33.4167 386.2 33.09C386.013 32.7633 385.92 32.4087 385.92 32.026C385.92 31.3167 386.19 30.7707 386.732 30.388C387.273 30.0053 388.01 29.814 388.944 29.814H390.82V29.73C390.82 29.1233 390.661 28.666 390.344 28.358C390.026 28.0407 389.602 27.882 389.07 27.882C388.612 27.882 388.216 27.9987 387.88 28.232C387.553 28.456 387.348 28.7873 387.264 29.226H386.06C386.106 28.722 386.274 28.2973 386.564 27.952C386.862 27.6067 387.231 27.3453 387.67 27.168C388.108 26.9813 388.575 26.888 389.07 26.888C390.04 26.888 390.768 27.1493 391.254 27.672C391.748 28.1853 391.996 28.8713 391.996 29.73V34H390.946L390.876 32.754C390.68 33.146 390.39 33.482 390.008 33.762C389.634 34.0327 389.13 34.168 388.496 34.168ZM388.678 33.174C389.126 33.174 389.508 33.0573 389.826 32.824C390.152 32.5907 390.4 32.2873 390.568 31.914C390.736 31.5407 390.82 31.1487 390.82 30.738V30.724H389.042C388.351 30.724 387.861 30.8453 387.572 31.088C387.292 31.3213 387.152 31.6153 387.152 31.97C387.152 32.334 387.282 32.628 387.544 32.852C387.814 33.0667 388.192 33.174 388.678 33.174ZM396.313 34C395.678 34 395.179 33.846 394.815 33.538C394.451 33.23 394.269 32.6747 394.269 31.872V28.05H393.065V27.056H394.269L394.423 25.39H395.445V27.056H397.489V28.05H395.445V31.872C395.445 32.3107 395.533 32.6093 395.711 32.768C395.888 32.9173 396.201 32.992 396.649 32.992H397.377V34H396.313ZM401.913 34.168C401.251 34.168 400.663 34.0187 400.149 33.72C399.636 33.412 399.23 32.9873 398.931 32.446C398.642 31.9047 398.497 31.2653 398.497 30.528C398.497 29.8 398.642 29.1653 398.931 28.624C399.221 28.0733 399.622 27.6487 400.135 27.35C400.658 27.042 401.26 26.888 401.941 26.888C402.613 26.888 403.192 27.042 403.677 27.35C404.172 27.6487 404.55 28.0453 404.811 28.54C405.073 29.0347 405.203 29.5667 405.203 30.136C405.203 30.2387 405.199 30.3413 405.189 30.444C405.189 30.5467 405.189 30.6633 405.189 30.794H399.659C399.687 31.326 399.809 31.7693 400.023 32.124C400.247 32.4693 400.523 32.7307 400.849 32.908C401.185 33.0853 401.54 33.174 401.913 33.174C402.399 33.174 402.805 33.062 403.131 32.838C403.458 32.614 403.696 32.3107 403.845 31.928H405.007C404.821 32.572 404.461 33.1087 403.929 33.538C403.407 33.958 402.735 34.168 401.913 34.168ZM401.913 27.882C401.353 27.882 400.854 28.0547 400.415 28.4C399.986 28.736 399.739 29.2307 399.673 29.884H404.041C404.013 29.2587 403.799 28.7687 403.397 28.414C402.996 28.0593 402.501 27.882 401.913 27.882ZM409.465 31.816C409.073 31.816 408.714 31.7647 408.387 31.662L407.687 32.32C407.79 32.3947 407.916 32.46 408.065 32.516C408.224 32.5627 408.448 32.6093 408.737 32.656C409.026 32.6933 409.432 32.7353 409.955 32.782C410.888 32.8473 411.556 33.062 411.957 33.426C412.358 33.79 412.559 34.266 412.559 34.854C412.559 35.2553 412.447 35.638 412.223 36.002C412.008 36.366 411.672 36.6647 411.215 36.898C410.767 37.1313 410.188 37.248 409.479 37.248C408.854 37.248 408.298 37.164 407.813 36.996C407.328 36.8373 406.95 36.59 406.679 36.254C406.408 35.9273 406.273 35.512 406.273 35.008C406.273 34.7467 406.343 34.462 406.483 34.154C406.623 33.8553 406.884 33.5707 407.267 33.3C407.062 33.216 406.884 33.1273 406.735 33.034C406.595 32.9313 406.464 32.8193 406.343 32.698V32.376L407.533 31.2C406.982 30.7333 406.707 30.1173 406.707 29.352C406.707 28.8947 406.814 28.4793 407.029 28.106C407.244 27.7327 407.556 27.4387 407.967 27.224C408.378 27 408.877 26.888 409.465 26.888C409.866 26.888 410.23 26.944 410.557 27.056H413.119V27.938L411.817 27.994C412.088 28.386 412.223 28.8387 412.223 29.352C412.223 29.8093 412.111 30.2247 411.887 30.598C411.672 30.9713 411.36 31.27 410.949 31.494C410.548 31.7087 410.053 31.816 409.465 31.816ZM409.465 30.85C409.96 30.85 410.352 30.724 410.641 30.472C410.94 30.2107 411.089 29.8373 411.089 29.352C411.089 28.876 410.94 28.512 410.641 28.26C410.352 27.9987 409.96 27.868 409.465 27.868C408.961 27.868 408.56 27.9987 408.261 28.26C407.972 28.512 407.827 28.876 407.827 29.352C407.827 29.8373 407.972 30.2107 408.261 30.472C408.56 30.724 408.961 30.85 409.465 30.85ZM407.421 34.896C407.421 35.3627 407.617 35.708 408.009 35.932C408.401 36.1653 408.891 36.282 409.479 36.282C410.058 36.282 410.52 36.156 410.865 35.904C411.22 35.652 411.397 35.316 411.397 34.896C411.397 34.5973 411.276 34.336 411.033 34.112C410.79 33.8973 410.342 33.7713 409.689 33.734C409.176 33.6967 408.732 33.65 408.359 33.594C407.976 33.7993 407.724 34.0187 407.603 34.252C407.482 34.4947 407.421 34.7093 407.421 34.896ZM417.336 34.168C416.683 34.168 416.095 34.0187 415.572 33.72C415.049 33.4213 414.634 33.0013 414.326 32.46C414.027 31.9093 413.878 31.2653 413.878 30.528C413.878 29.7907 414.032 29.1513 414.34 28.61C414.648 28.0593 415.063 27.6347 415.586 27.336C416.118 27.0373 416.711 26.888 417.364 26.888C418.017 26.888 418.605 27.0373 419.128 27.336C419.651 27.6347 420.061 28.0593 420.36 28.61C420.668 29.1513 420.822 29.7907 420.822 30.528C420.822 31.2653 420.668 31.9093 420.36 32.46C420.052 33.0013 419.632 33.4213 419.1 33.72C418.577 34.0187 417.989 34.168 417.336 34.168ZM417.336 33.16C417.737 33.16 418.111 33.062 418.456 32.866C418.801 32.67 419.081 32.376 419.296 31.984C419.511 31.592 419.618 31.1067 419.618 30.528C419.618 29.9493 419.511 29.464 419.296 29.072C419.091 28.68 418.815 28.386 418.47 28.19C418.125 27.994 417.756 27.896 417.364 27.896C416.963 27.896 416.589 27.994 416.244 28.19C415.899 28.386 415.619 28.68 415.404 29.072C415.189 29.464 415.082 29.9493 415.082 30.528C415.082 31.1067 415.189 31.592 415.404 31.984C415.619 32.376 415.894 32.67 416.23 32.866C416.575 33.062 416.944 33.16 417.336 33.16ZM422.457 34V27.056H423.521L423.619 28.386C423.834 27.9287 424.161 27.5647 424.599 27.294C425.038 27.0233 425.579 26.888 426.223 26.888V28.12H425.901C425.491 28.12 425.113 28.1947 424.767 28.344C424.422 28.484 424.147 28.7267 423.941 29.072C423.736 29.4173 423.633 29.8933 423.633 30.5V34H422.457ZM428.257 25.516C428.024 25.516 427.828 25.4413 427.669 25.292C427.52 25.1333 427.445 24.9373 427.445 24.704C427.445 24.48 427.52 24.2933 427.669 24.144C427.828 23.9947 428.024 23.92 428.257 23.92C428.481 23.92 428.672 23.9947 428.831 24.144C428.99 24.2933 429.069 24.48 429.069 24.704C429.069 24.9373 428.99 25.1333 428.831 25.292C428.672 25.4413 428.481 25.516 428.257 25.516ZM427.669 34V27.056H428.845V34H427.669ZM434.015 34.168C433.352 34.168 432.764 34.0187 432.251 33.72C431.737 33.412 431.331 32.9873 431.033 32.446C430.743 31.9047 430.599 31.2653 430.599 30.528C430.599 29.8 430.743 29.1653 431.033 28.624C431.322 28.0733 431.723 27.6487 432.237 27.35C432.759 27.042 433.361 26.888 434.043 26.888C434.715 26.888 435.293 27.042 435.779 27.35C436.273 27.6487 436.651 28.0453 436.913 28.54C437.174 29.0347 437.305 29.5667 437.305 30.136C437.305 30.2387 437.3 30.3413 437.291 30.444C437.291 30.5467 437.291 30.6633 437.291 30.794H431.761C431.789 31.326 431.91 31.7693 432.125 32.124C432.349 32.4693 432.624 32.7307 432.951 32.908C433.287 33.0853 433.641 33.174 434.015 33.174C434.5 33.174 434.906 33.062 435.233 32.838C435.559 32.614 435.797 32.3107 435.947 31.928H437.109C436.922 32.572 436.563 33.1087 436.031 33.538C435.508 33.958 434.836 34.168 434.015 34.168ZM434.015 27.882C433.455 27.882 432.955 28.0547 432.517 28.4C432.087 28.736 431.84 29.2307 431.775 29.884H436.143C436.115 29.2587 435.9 28.7687 435.499 28.414C435.097 28.0593 434.603 27.882 434.015 27.882ZM441.523 34.168C440.693 34.168 440.002 33.958 439.451 33.538C438.901 33.118 438.579 32.5487 438.485 31.83H439.689C439.764 32.194 439.955 32.5113 440.263 32.782C440.581 33.0433 441.005 33.174 441.537 33.174C442.032 33.174 442.396 33.0713 442.629 32.866C442.863 32.6513 442.979 32.3993 442.979 32.11C442.979 31.69 442.825 31.41 442.517 31.27C442.219 31.13 441.794 31.004 441.243 30.892C440.87 30.8173 440.497 30.71 440.123 30.57C439.75 30.43 439.437 30.234 439.185 29.982C438.933 29.7207 438.807 29.38 438.807 28.96C438.807 28.3533 439.031 27.8587 439.479 27.476C439.937 27.084 440.553 26.888 441.327 26.888C442.065 26.888 442.667 27.0747 443.133 27.448C443.609 27.812 443.885 28.3347 443.959 29.016H442.797C442.751 28.6613 442.597 28.386 442.335 28.19C442.083 27.9847 441.743 27.882 441.313 27.882C440.893 27.882 440.567 27.9707 440.333 28.148C440.109 28.3253 439.997 28.5587 439.997 28.848C439.997 29.128 440.142 29.3473 440.431 29.506C440.73 29.6647 441.131 29.8 441.635 29.912C442.065 30.0053 442.471 30.122 442.853 30.262C443.245 30.3927 443.563 30.5933 443.805 30.864C444.057 31.1253 444.183 31.508 444.183 32.012C444.193 32.6373 443.955 33.1553 443.469 33.566C442.993 33.9673 442.345 34.168 441.523 34.168ZM452.537 34.168C451.865 34.168 451.272 34.0467 450.759 33.804C450.255 33.552 449.858 33.2067 449.569 32.768C449.289 32.32 449.149 31.7927 449.149 31.186C449.149 30.5233 449.34 29.9353 449.723 29.422C450.115 28.8993 450.679 28.4887 451.417 28.19C451.099 27.8447 450.871 27.518 450.731 27.21C450.591 26.8927 450.521 26.552 450.521 26.188C450.521 25.5627 450.74 25.0493 451.179 24.648C451.627 24.2373 452.238 24.032 453.013 24.032C453.517 24.032 453.955 24.13 454.329 24.326C454.702 24.5127 454.991 24.774 455.197 25.11C455.402 25.446 455.495 25.8287 455.477 26.258H454.315C454.324 25.838 454.193 25.5207 453.923 25.306C453.661 25.0913 453.358 24.984 453.013 24.984C452.593 24.984 452.266 25.096 452.033 25.32C451.799 25.544 451.683 25.8287 451.683 26.174C451.683 26.4727 451.762 26.762 451.921 27.042C452.089 27.322 452.336 27.6347 452.663 27.98L455.757 31.102C456.027 30.71 456.321 30.2387 456.639 29.688L457.073 28.932H458.319L457.703 30.024C457.292 30.7613 456.9 31.3773 456.527 31.872L458.641 34H457.157L455.855 32.684C455.36 33.216 454.847 33.5987 454.315 33.832C453.783 34.056 453.19 34.168 452.537 34.168ZM450.325 31.144C450.325 31.7227 450.53 32.2033 450.941 32.586C451.351 32.9687 451.888 33.16 452.551 33.16C453.045 33.16 453.493 33.0667 453.895 32.88C454.305 32.684 454.707 32.3667 455.099 31.928L452.131 28.918C451.515 29.1607 451.057 29.4687 450.759 29.842C450.469 30.2153 450.325 30.6493 450.325 31.144ZM388.922 52V42.2H392.142C392.907 42.2 393.537 42.326 394.032 42.578C394.526 42.83 394.89 43.1707 395.124 43.6C395.366 44.0293 395.488 44.5147 395.488 45.056C395.488 45.588 395.371 46.0687 395.138 46.498C394.904 46.9273 394.54 47.2727 394.046 47.534C393.551 47.786 392.916 47.912 392.142 47.912H390.098V52H388.922ZM390.098 46.918H392.114C392.898 46.918 393.453 46.7547 393.78 46.428C394.116 46.092 394.284 45.6347 394.284 45.056C394.284 44.468 394.116 44.0107 393.78 43.684C393.453 43.348 392.898 43.18 392.114 43.18H390.098V46.918ZM396.959 52V45.056H398.023L398.121 46.386C398.336 45.9287 398.662 45.5647 399.101 45.294C399.54 45.0233 400.081 44.888 400.725 44.888V46.12H400.403C399.992 46.12 399.614 46.1947 399.269 46.344C398.924 46.484 398.648 46.7267 398.443 47.072C398.238 47.4173 398.135 47.8933 398.135 48.5V52H396.959ZM404.949 52.168C404.296 52.168 403.708 52.0187 403.185 51.72C402.663 51.4213 402.247 51.0013 401.939 50.46C401.641 49.9093 401.491 49.2653 401.491 48.528C401.491 47.7907 401.645 47.1513 401.953 46.61C402.261 46.0593 402.677 45.6347 403.199 45.336C403.731 45.0373 404.324 44.888 404.977 44.888C405.631 44.888 406.219 45.0373 406.741 45.336C407.264 45.6347 407.675 46.0593 407.973 46.61C408.281 47.1513 408.435 47.7907 408.435 48.528C408.435 49.2653 408.281 49.9093 407.973 50.46C407.665 51.0013 407.245 51.4213 406.713 51.72C406.191 52.0187 405.603 52.168 404.949 52.168ZM404.949 51.16C405.351 51.16 405.724 51.062 406.069 50.866C406.415 50.67 406.695 50.376 406.909 49.984C407.124 49.592 407.231 49.1067 407.231 48.528C407.231 47.9493 407.124 47.464 406.909 47.072C406.704 46.68 406.429 46.386 406.083 46.19C405.738 45.994 405.369 45.896 404.977 45.896C404.576 45.896 404.203 45.994 403.857 46.19C403.512 46.386 403.232 46.68 403.017 47.072C402.803 47.464 402.695 47.9493 402.695 48.528C402.695 49.1067 402.803 49.592 403.017 49.984C403.232 50.376 403.507 50.67 403.843 50.866C404.189 51.062 404.557 51.16 404.949 51.16ZM413.22 52.168C412.53 52.168 411.923 52.0093 411.4 51.692C410.887 51.3747 410.486 50.9407 410.196 50.39C409.916 49.8393 409.776 49.214 409.776 48.514C409.776 47.814 409.921 47.1933 410.21 46.652C410.5 46.1013 410.901 45.672 411.414 45.364C411.928 45.0467 412.534 44.888 413.234 44.888C413.804 44.888 414.308 45.0047 414.746 45.238C415.185 45.4713 415.526 45.798 415.768 46.218V41.92H416.944V52H415.88L415.768 50.852C415.544 51.188 415.222 51.4913 414.802 51.762C414.382 52.0327 413.855 52.168 413.22 52.168ZM413.346 51.146C413.813 51.146 414.224 51.0387 414.578 50.824C414.942 50.6 415.222 50.292 415.418 49.9C415.624 49.508 415.726 49.0507 415.726 48.528C415.726 48.0053 415.624 47.548 415.418 47.156C415.222 46.764 414.942 46.4607 414.578 46.246C414.224 46.022 413.813 45.91 413.346 45.91C412.889 45.91 412.478 46.022 412.114 46.246C411.76 46.4607 411.48 46.764 411.274 47.156C411.078 47.548 410.98 48.0053 410.98 48.528C410.98 49.0507 411.078 49.508 411.274 49.9C411.48 50.292 411.76 50.6 412.114 50.824C412.478 51.0387 412.889 51.146 413.346 51.146ZM421.396 52.168C420.574 52.168 419.921 51.9207 419.436 51.426C418.95 50.922 418.708 50.152 418.708 49.116V45.056H419.884V48.99C419.884 50.4367 420.476 51.16 421.662 51.16C422.268 51.16 422.768 50.9453 423.16 50.516C423.561 50.0773 423.762 49.4567 423.762 48.654V45.056H424.938V52H423.874L423.79 50.754C423.575 51.1927 423.253 51.538 422.824 51.79C422.404 52.042 421.928 52.168 421.396 52.168ZM430.065 52.168C429.403 52.168 428.805 52.0187 428.273 51.72C427.751 51.412 427.335 50.9873 427.027 50.446C426.729 49.8953 426.579 49.256 426.579 48.528C426.579 47.8 426.729 47.1653 427.027 46.624C427.335 46.0733 427.751 45.6487 428.273 45.35C428.805 45.042 429.403 44.888 430.065 44.888C430.887 44.888 431.577 45.1027 432.137 45.532C432.707 45.9613 433.066 46.5353 433.215 47.254H432.011C431.918 46.8247 431.689 46.4933 431.325 46.26C430.961 46.0173 430.537 45.896 430.051 45.896C429.659 45.896 429.291 45.994 428.945 46.19C428.6 46.386 428.32 46.68 428.105 47.072C427.891 47.464 427.783 47.9493 427.783 48.528C427.783 49.1067 427.891 49.592 428.105 49.984C428.32 50.376 428.6 50.6747 428.945 50.88C429.291 51.076 429.659 51.174 430.051 51.174C430.537 51.174 430.961 51.0573 431.325 50.824C431.689 50.5813 431.918 50.2407 432.011 49.802H433.215C433.075 50.502 432.721 51.0713 432.151 51.51C431.582 51.9487 430.887 52.168 430.065 52.168ZM437.41 52C436.776 52 436.276 51.846 435.912 51.538C435.548 51.23 435.366 50.6747 435.366 49.872V46.05H434.162V45.056H435.366L435.52 43.39H436.542V45.056H438.586V46.05H436.542V49.872C436.542 50.3107 436.631 50.6093 436.808 50.768C436.986 50.9173 437.298 50.992 437.746 50.992H438.474V52H437.41ZM442.74 52.168C441.91 52.168 441.219 51.958 440.668 51.538C440.118 51.118 439.796 50.5487 439.702 49.83H440.906C440.981 50.194 441.172 50.5113 441.48 50.782C441.798 51.0433 442.222 51.174 442.754 51.174C443.249 51.174 443.613 51.0713 443.846 50.866C444.08 50.6513 444.196 50.3993 444.196 50.11C444.196 49.69 444.042 49.41 443.734 49.27C443.436 49.13 443.011 49.004 442.46 48.892C442.087 48.8173 441.714 48.71 441.34 48.57C440.967 48.43 440.654 48.234 440.402 47.982C440.15 47.7207 440.024 47.38 440.024 46.96C440.024 46.3533 440.248 45.8587 440.696 45.476C441.154 45.084 441.77 44.888 442.544 44.888C443.282 44.888 443.884 45.0747 444.35 45.448C444.826 45.812 445.102 46.3347 445.176 47.016H444.014C443.968 46.6613 443.814 46.386 443.552 46.19C443.3 45.9847 442.96 45.882 442.53 45.882C442.11 45.882 441.784 45.9707 441.55 46.148C441.326 46.3253 441.214 46.5587 441.214 46.848C441.214 47.128 441.359 47.3473 441.648 47.506C441.947 47.6647 442.348 47.8 442.852 47.912C443.282 48.0053 443.688 48.122 444.07 48.262C444.462 48.3927 444.78 48.5933 445.022 48.864C445.274 49.1253 445.4 49.508 445.4 50.012C445.41 50.6373 445.172 51.1553 444.686 51.566C444.21 51.9673 443.562 52.168 442.74 52.168Z" fill="#576B75"/>
<path d="M520.362 34.168C519.643 34.168 519.018 34.0373 518.486 33.776C517.954 33.5147 517.543 33.1507 517.254 32.684C516.965 32.2173 516.82 31.676 516.82 31.06H518.052C518.052 31.4427 518.141 31.7973 518.318 32.124C518.495 32.4413 518.752 32.698 519.088 32.894C519.433 33.0807 519.858 33.174 520.362 33.174C521.025 33.174 521.538 33.0153 521.902 32.698C522.266 32.3807 522.448 31.984 522.448 31.508C522.448 31.116 522.364 30.8033 522.196 30.57C522.028 30.3273 521.799 30.1313 521.51 29.982C521.23 29.8327 520.903 29.702 520.53 29.59C520.166 29.478 519.783 29.352 519.382 29.212C518.626 28.9507 518.066 28.6287 517.702 28.246C517.338 27.854 517.156 27.3453 517.156 26.72C517.147 26.1973 517.268 25.7353 517.52 25.334C517.772 24.9233 518.127 24.606 518.584 24.382C519.051 24.1487 519.601 24.032 520.236 24.032C520.861 24.032 521.403 24.1487 521.86 24.382C522.327 24.6153 522.686 24.9373 522.938 25.348C523.199 25.7587 523.335 26.2253 523.344 26.748H522.112C522.112 26.4773 522.042 26.2113 521.902 25.95C521.762 25.6793 521.547 25.46 521.258 25.292C520.978 25.124 520.623 25.04 520.194 25.04C519.662 25.0307 519.223 25.166 518.878 25.446C518.542 25.726 518.374 26.1133 518.374 26.608C518.374 27.028 518.491 27.35 518.724 27.574C518.967 27.798 519.303 27.9847 519.732 28.134C520.161 28.274 520.656 28.4373 521.216 28.624C521.683 28.792 522.103 28.988 522.476 29.212C522.849 29.436 523.139 29.7253 523.344 30.08C523.559 30.4347 523.666 30.8873 523.666 31.438C523.666 31.9047 523.545 32.348 523.302 32.768C523.059 33.1787 522.691 33.5147 522.196 33.776C521.711 34.0373 521.099 34.168 520.362 34.168ZM527.798 34.168C526.977 34.168 526.323 33.9207 525.838 33.426C525.353 32.922 525.11 32.152 525.11 31.116V27.056H526.286V30.99C526.286 32.4367 526.879 33.16 528.064 33.16C528.671 33.16 529.17 32.9453 529.562 32.516C529.963 32.0773 530.164 31.4567 530.164 30.654V27.056H531.34V34H530.276L530.192 32.754C529.977 33.1927 529.655 33.538 529.226 33.79C528.806 34.042 528.33 34.168 527.798 34.168ZM533.276 34V27.056H534.34L534.424 28.064C534.648 27.6907 534.946 27.4013 535.32 27.196C535.693 26.9907 536.113 26.888 536.58 26.888C537.13 26.888 537.602 27 537.994 27.224C538.395 27.448 538.703 27.7887 538.918 28.246C539.16 27.826 539.492 27.4947 539.912 27.252C540.341 27.0093 540.803 26.888 541.298 26.888C542.128 26.888 542.791 27.14 543.286 27.644C543.78 28.1387 544.028 28.904 544.028 29.94V34H542.866V30.066C542.866 29.3473 542.721 28.806 542.432 28.442C542.142 28.078 541.727 27.896 541.186 27.896C540.626 27.896 540.159 28.1153 539.786 28.554C539.422 28.9833 539.24 29.5993 539.24 30.402V34H538.064V30.066C538.064 29.3473 537.919 28.806 537.63 28.442C537.34 28.078 536.925 27.896 536.384 27.896C535.833 27.896 535.371 28.1153 534.998 28.554C534.634 28.9833 534.452 29.5993 534.452 30.402V34H533.276ZM545.799 34V27.056H546.863L546.947 28.064C547.171 27.6907 547.47 27.4013 547.843 27.196C548.216 26.9907 548.636 26.888 549.103 26.888C549.654 26.888 550.125 27 550.517 27.224C550.918 27.448 551.226 27.7887 551.441 28.246C551.684 27.826 552.015 27.4947 552.435 27.252C552.864 27.0093 553.326 26.888 553.821 26.888C554.652 26.888 555.314 27.14 555.809 27.644C556.304 28.1387 556.551 28.904 556.551 29.94V34H555.389V30.066C555.389 29.3473 555.244 28.806 554.955 28.442C554.666 28.078 554.25 27.896 553.709 27.896C553.149 27.896 552.682 28.1153 552.309 28.554C551.945 28.9833 551.763 29.5993 551.763 30.402V34H550.587V30.066C550.587 29.3473 550.442 28.806 550.153 28.442C549.864 28.078 549.448 27.896 548.907 27.896C548.356 27.896 547.894 28.1153 547.521 28.554C547.157 28.9833 546.975 29.5993 546.975 30.402V34H545.799ZM560.632 34.168C560.054 34.168 559.573 34.07 559.19 33.874C558.808 33.678 558.523 33.4167 558.336 33.09C558.15 32.7633 558.056 32.4087 558.056 32.026C558.056 31.3167 558.327 30.7707 558.868 30.388C559.41 30.0053 560.147 29.814 561.08 29.814H562.956V29.73C562.956 29.1233 562.798 28.666 562.48 28.358C562.163 28.0407 561.738 27.882 561.206 27.882C560.749 27.882 560.352 27.9987 560.016 28.232C559.69 28.456 559.484 28.7873 559.4 29.226H558.196C558.243 28.722 558.411 28.2973 558.7 27.952C558.999 27.6067 559.368 27.3453 559.806 27.168C560.245 26.9813 560.712 26.888 561.206 26.888C562.177 26.888 562.905 27.1493 563.39 27.672C563.885 28.1853 564.132 28.8713 564.132 29.73V34H563.082L563.012 32.754C562.816 33.146 562.527 33.482 562.144 33.762C561.771 34.0327 561.267 34.168 560.632 34.168ZM560.814 33.174C561.262 33.174 561.645 33.0573 561.962 32.824C562.289 32.5907 562.536 32.2873 562.704 31.914C562.872 31.5407 562.956 31.1487 562.956 30.738V30.724H561.178C560.488 30.724 559.998 30.8453 559.708 31.088C559.428 31.3213 559.288 31.6153 559.288 31.97C559.288 32.334 559.419 32.628 559.68 32.852C559.951 33.0667 560.329 33.174 560.814 33.174ZM565.897 34V27.056H566.961L567.059 28.386C567.273 27.9287 567.6 27.5647 568.039 27.294C568.477 27.0233 569.019 26.888 569.663 26.888V28.12H569.341C568.93 28.12 568.552 28.1947 568.207 28.344C567.861 28.484 567.586 28.7267 567.381 29.072C567.175 29.4173 567.073 29.8933 567.073 30.5V34H565.897ZM571.739 37.08L573.461 33.328H573.055L570.297 27.056H571.571L573.867 32.46L576.303 27.056H577.521L572.971 37.08H571.739Z" fill="#576B75"/>
<circle cx="28" cy="6" r="6" fill="#EB6079"/>
<line x1="42" y1="5.5" x2="142" y2="5.5" stroke="#EB6079" stroke-width="3"/>
<circle cx="158" cy="6" r="6" fill="#EB6079"/>
<line x1="172" y1="5.5" x2="272" y2="5.5" stroke="#EB6079" stroke-width="3"/>
<circle cx="288" cy="6" r="6" fill="#EB6079"/>
<line x1="302" y1="5.5" x2="402" y2="5.5" stroke="#B9B9C4"/>
<circle cx="418" cy="6" r="5.5" fill="white" stroke="#B9B9C4"/>
<line x1="432" y1="5.5" x2="532" y2="5.5" stroke="#B9B9C4"/>
<circle cx="548" cy="6" r="5.5" fill="white" stroke="#B9B9C4"/>
</svg>
