<svg width="31" height="31" viewBox="0 0 31 31" fill="none" xmlns="http://www.w3.org/2000/svg">
<path fill-rule="evenodd" clip-rule="evenodd" d="M0.0273438 15.2201C0.0273438 6.89672 6.78461 0.125732 15.0911 0.125732C23.3976 0.125732 30.1548 6.89672 30.1548 15.2201C30.1548 23.5434 23.3976 30.3144 15.0911 30.3144C6.78461 30.3144 0.0273438 23.5434 0.0273438 15.2201ZM13.6788 20.5661C14.0001 20.5661 14.3215 20.4427 14.5663 20.1974L22.7259 12.0214C23.2167 11.5295 23.2167 10.7346 22.7259 10.2429C22.235 9.75092 21.4417 9.75092 20.951 10.2429L13.6788 17.5296L10.4866 14.3309C9.99559 13.8389 9.20236 13.8389 8.71161 14.3309C8.22064 14.8226 8.22064 15.6177 8.71161 16.1094L12.7913 20.1974C13.0361 20.4427 13.3575 20.5661 13.6788 20.5661Z" fill="#EB6079"/>
</svg>
