<svg width="80" height="22" viewBox="0 0 80 22" fill="none" xmlns="http://www.w3.org/2000/svg">
<path fill-rule="evenodd" clip-rule="evenodd" d="M3.70246 13.549H11.8618V10.6711H3.70246V7.06278H12.5927V3.95092H0V20.7883H12.7814V17.675H3.70246V13.549ZM21.3395 4.0007H13.7458V20.8385H17.4479V14.8017H21.3395C25.5366 14.8017 27.164 12.1365 27.164 9.40074C27.164 6.66497 25.5371 4.0007 21.3395 4.0007ZM20.3248 11.9243H17.4479V6.87768H20.3248C22.0464 6.87768 23.5792 7.25557 23.5792 9.40074C23.5792 11.5477 22.0464 11.9243 20.3248 11.9243ZM36.6725 11.0617C32.4514 9.97686 31.6494 9.81122 31.6494 8.51507C31.6494 7.09989 33.0171 6.60433 34.1965 6.60433C35.9647 6.60433 37.4029 7.12297 37.5211 9.15093H41.1063C41.1063 5.2602 37.8754 3.7278 34.3608 3.7278C31.3195 3.7278 28.0647 5.37832 28.0647 8.8201C28.0647 11.9804 30.5882 12.9475 33.0877 13.6078C35.5637 14.2681 38.0868 14.575 38.0868 16.3911C38.0868 18.1113 36.1059 18.4897 34.8093 18.4897C32.8284 18.4897 31.0828 17.6171 31.0828 15.3765H27.4989C27.4519 19.5274 30.9421 21.3666 34.6676 21.3666C39.2431 21.3666 41.672 19.0563 41.672 15.9666C41.672 12.1469 37.8985 11.3685 36.6725 11.0617ZM50.4708 3.65313C45.2591 3.65313 42.1929 7.54476 42.1929 12.5447C42.1929 17.4017 45.2591 21.2938 50.4708 21.2938C55.6817 21.2938 58.7479 17.4017 58.7479 12.5447C58.7479 7.54476 55.6817 3.65313 50.4708 3.65313ZM50.4708 18.1806C47.1454 18.1806 45.8958 15.3493 45.8958 12.5447C45.8958 9.59671 47.1458 6.76635 50.4708 6.76635C53.7954 6.76635 55.0459 9.59625 55.0459 12.5447C55.0459 15.3498 53.7954 18.1806 50.4708 18.1806ZM73.9424 4.01745H70.4757V15.314H70.4295L63.4007 4.01745H59.7227V20.8557H63.1885V9.58313H63.2364L70.2404 20.8557H73.9424V4.01745ZM78.1472 3.70472C77.656 3.70424 77.1851 3.50895 76.8377 3.16168C76.4904 2.81441 76.295 2.34353 76.2944 1.85236C76.2944 0.836347 77.1298 0 78.1472 0C79.1646 0 80 0.836347 80 1.85236C79.9993 2.3435 79.8038 2.8143 79.4565 3.16155C79.1092 3.50879 78.6383 3.70413 78.1472 3.70472ZM79.7239 1.85191C79.7227 1.43418 79.5562 1.03392 79.2607 0.73862C78.9653 0.443325 78.5649 0.277022 78.1472 0.276067C77.7296 0.277261 77.3295 0.443672 77.0342 0.738941C76.739 1.03421 76.5725 1.43434 76.5713 1.85191C76.5722 2.26972 76.7384 2.67019 77.0337 2.96575C77.329 3.26132 77.7294 3.42791 78.1472 3.42911C78.5651 3.42803 78.9656 3.2615 79.2611 2.96594C79.5566 2.67038 79.723 2.26984 79.7239 1.85191ZM78.9206 2.78284H78.5264L78.2187 1.99402H77.8005V2.78284H77.4453V0.827748H78.1001C78.4703 0.827748 78.8957 0.890654 78.8957 1.45772C78.8957 1.80529 78.6835 1.8768 78.5572 1.93926L78.9206 2.78284L78.2268 1.67948C78.392 1.67948 78.5264 1.60028 78.5264 1.42604C78.5264 1.25361 78.407 1.16627 78.1952 1.16627H77.801V1.67948H78.2268L78.9206 2.78284Z" fill="#2F489A"/>
</svg>
